<svg xmlns="http://www.w3.org/2000/svg" viewBox="0 0 386.92 185.68" xmlns:v="https://vecta.io/nano"><defs><clipPath id="A"><path d="M1.51 50.22h100.38c3.03 0 4.99 3.26 3.62 6.02l-5.83 11.78-57.84 116.82c-.74 1.49-2.94.85-2.8-.81L47.23 83.8c.05-.65-.25-1.27-.79-1.61L.71 53.08c-1.29-.82-.72-2.85.8-2.85z" clip-rule="evenodd" fill="none" stroke-width="0"/></clipPath></defs><path d="M287.22 56.44c-5.82-3.4-12.64-5.35-19.96-5.35-20.57 0-37.35 15.47-38.3 34.9h-.05v1.73h0v55.87l1.47 1.46h14.29l1.48-1.46V86.4a16.08 16.08 0 0 1 .26-1.97c1.7-9.16 10.4-16.15 20.84-16.15 6.04 0 11.5 2.34 15.36 6.09l1.91-.13 3.45-15.89-.76-1.91zm84.29 6.14l-.09-.08c-9.01-7.77-18.72-11.71-28.85-11.71h-2.45c-10.53 0-20.53 4.24-29.74 12.59l-.09.09c-9.57 9.9-14.43 21.41-14.43 34.22v1.13c0 12.87 4.89 24.44 14.52 34.4l.09.09c9.14 8.36 19.53 12.6 30.87 12.6 10.56 0 20.42-3.74 29.29-11.12l.1-.09c10.74-10.16 16.19-22.39 16.19-36.35s-5.19-25.8-15.41-35.77zm-30.17 66.08c-6.84 0-13.19-2.63-18.86-7.82-6.23-6.42-9.38-13.86-9.38-22.12v-.47c0-7.86 2.67-14.98 7.95-21.16 6.04-6.01 12.58-9.06 19.45-9.06h1.41c6.3 0 12.25 2.39 17.68 7.11 6.79 6.57 10.09 14.13 10.09 23.12 0 6.33-1.9 12.47-5.66 18.25-6.37 8.18-13.79 12.16-22.68 12.16zM192.02 60.67l-.88-.7-.53-.4-.78-.57-.53-.37-.9-.62-.93-.61-.3-.19c-6.79-4.21-14.72-6.65-23.19-6.7-.1-.01-.21-.01-.31-.01h-.18c-.21 0-.43 0-.65.01-.55.01-1.08.03-1.62.06-5.34.28-10.43 1.53-15.14 3.56a45.66 45.66 0 0 0-11.08 6.8h0c-10.51 8.75-17.25 22.18-17.25 37.27v86.02l1.47 1.47h14.32l1.47-1.47v-48.75h0c3.7 3.07 7.88 5.57 12.38 7.35a.61.61 0 0 1 .12.05 44.4 44.4 0 0 0 15.92 3.03h.23c.15 0 .31 0 .47-.01a44.02 44.02 0 0 0 17.54-3.81c.68-.3 1.35-.62 2.02-.95a45.2 45.2 0 0 0 3.78-2.13c5.03-3.17 9.43-7.33 12.95-12.21.67-.93 1.31-1.89 1.92-2.87 4.58-7.42 7.23-16.24 7.23-25.71 0-15.24-6.86-28.79-17.56-37.53zm-5.14 53.67c-.36.58-.77 1.2-1.21 1.81-2.17 3.02-4.83 5.53-7.87 7.44a27.32 27.32 0 0 1-2.24 1.27l-1.3.61a25.56 25.56 0 0 1-10.3 2.23h-.52-.05a26.24 26.24 0 0 1-8.99-1.68c-.18-.08-.37-.15-.55-.22-2.59-1.05-5.02-2.51-7.21-4.33-6.79-5.65-10.69-14.13-10.69-23.27s3.9-17.63 10.68-23.27c2.03-1.69 4.27-3.06 6.67-4.1 2.83-1.23 5.82-1.93 8.88-2.09h.03.03a14.21 14.21 0 0 1 .93-.03h.06.64c4.74.03 9.42 1.36 13.53 3.86l.42.26.5.33c.12.08.24.15.32.21l.09.06.09.06.17.12.14.11.36.25s.01 0 .02.01l.5.39.6.47c6.86 5.64 10.79 14.15 10.79 23.36 0 5.78-1.56 11.36-4.51 16.14z" fill="#0b273d"/><path d="M68.18 18.42c0 10.17 8.46 18.42 18.89 18.42s18.89-8.25 18.89-18.42S97.5 0 87.07 0 68.18 8.25 68.18 18.42h0z" fill-rule="evenodd" fill="#ce2e2e"/><g clip-path="url(#A)" fill-rule="evenodd"><path d="M-11.31 47.17l129.57 3.05-13.03 1.79-64.84 34.47-51.7-39.31z" fill="#f96d00"/><path d="m-15.16,49.11l121.5,1.11,9.25.08-71.35,11.78c-5.97.99-12.09.54-17.87-1.29l-41.53-11.68Z" fill="#f9a501"/><path d="M118.26 55.45l-13.03-3.44-64.84 34.47L29.9 192.51h33.02l55.34-137.06z" fill="#64b9ff"/><path d="M125.08 54.95l-19.85-2.94-41.09 44.47-.1.11c-4.47 5.14-7.51 11.42-9.05 18.11l-15.95 69.34-12.93 40.18 98.97-169.27z" fill="#9563c4"/></g></svg>