<svg width="123" height="111" viewBox="0 0 123 111" fill="none" xmlns="http://www.w3.org/2000/svg">
<path d="M39.5087 6.42968C39.5087 6.42968 53.671 22.6653 84.1614 4.11474C111.24 -12.3598 122.841 24.892 119.655 40.9194C115.527 61.6814 89.2326 73.5287 97.5039 89.4412C105.775 105.354 68.0249 120.977 54.2228 97.8249C37.0533 69.025 26.9677 87.4441 14.322 84.8229C5.24623 82.942 -8.71372 56.5292 7.34643 42.3595C20.8608 30.436 16.0571 24.5537 14.2747 19.0795C11.7039 11.1846 25.2548 -5.99004 39.5087 6.42968Z" fill="#DEE9FF"/>
<path d="M70.5632 25.7171C70.4773 25.7172 70.394 25.6874 70.3276 25.6327C70.2613 25.5781 70.2161 25.502 70.1997 25.4177C70.1833 25.3333 70.1968 25.2459 70.2378 25.1704C70.2789 25.0949 70.345 25.036 70.4247 25.0039C70.4395 24.9978 70.804 24.8513 71.4725 24.6053C71.5646 24.5714 71.6664 24.5755 71.7555 24.6166C71.8446 24.6578 71.9136 24.7327 71.9475 24.8248C71.9814 24.9169 71.9773 25.0186 71.9362 25.1077C71.895 25.1968 71.8201 25.2659 71.728 25.2998C71.0701 25.5418 70.7051 25.6888 70.7014 25.6902C70.6575 25.708 70.6106 25.7171 70.5632 25.7171Z" fill="#418DF9"/>
<path d="M86.0477 110.92C85.7898 110.92 85.527 110.915 85.2664 110.905C85.2176 110.903 85.1696 110.892 85.1252 110.872C85.0808 110.851 85.0408 110.823 85.0075 110.787C84.9743 110.751 84.9484 110.709 84.9315 110.663C84.9145 110.618 84.9068 110.569 84.9087 110.52C84.9106 110.471 84.9222 110.424 84.9427 110.379C84.9632 110.335 84.9923 110.295 85.0282 110.262C85.0642 110.229 85.1063 110.204 85.1522 110.187C85.1981 110.17 85.2468 110.163 85.2955 110.165C86.0264 110.195 86.7584 110.181 87.4876 110.123C87.5361 110.119 87.5848 110.125 87.631 110.14C87.6772 110.155 87.7201 110.179 87.7571 110.21C87.7941 110.242 87.8245 110.28 87.8466 110.323C87.8688 110.367 87.8822 110.414 87.886 110.462C87.8899 110.511 87.8842 110.559 87.8693 110.606C87.8544 110.652 87.8305 110.695 87.799 110.732C87.7675 110.769 87.729 110.799 87.6857 110.821C87.6425 110.843 87.5953 110.857 87.5468 110.861C87.0561 110.9 86.5517 110.92 86.0477 110.92ZM83.0555 110.697C83.0376 110.697 83.0197 110.696 83.002 110.693C82.28 110.589 81.53 110.445 80.773 110.267C80.6775 110.244 80.5948 110.185 80.5432 110.101C80.4916 110.018 80.4752 109.917 80.4977 109.822C80.5202 109.726 80.5797 109.643 80.6632 109.592C80.7466 109.54 80.8472 109.524 80.9427 109.546C81.6788 109.72 82.4074 109.859 83.1082 109.961C83.2007 109.974 83.2849 110.022 83.3436 110.095C83.4022 110.168 83.4312 110.26 83.4245 110.353C83.4178 110.447 83.3761 110.534 83.3076 110.598C83.2392 110.661 83.1491 110.697 83.0555 110.697V110.697ZM89.7292 110.54C89.6378 110.54 89.5496 110.506 89.4816 110.445C89.4137 110.383 89.3708 110.299 89.3613 110.208C89.3517 110.117 89.3762 110.026 89.43 109.952C89.4837 109.878 89.563 109.827 89.6524 109.808C90.366 109.655 91.0687 109.456 91.7562 109.212C91.8486 109.179 91.9504 109.184 92.039 109.226C92.1276 109.268 92.1959 109.344 92.2288 109.436C92.2617 109.529 92.2565 109.63 92.2143 109.719C92.1722 109.808 92.0966 109.876 92.0041 109.909C91.2861 110.164 90.5521 110.372 89.8068 110.531C89.7813 110.537 89.7553 110.54 89.7292 110.54V110.54ZM78.6997 109.683C78.6623 109.683 78.6251 109.677 78.5894 109.666C77.902 109.452 77.1834 109.204 76.4525 108.93C76.3606 108.895 76.2862 108.826 76.2456 108.736C76.205 108.647 76.2016 108.545 76.2361 108.453C76.2706 108.361 76.3401 108.287 76.4295 108.246C76.5189 108.206 76.6207 108.202 76.7126 108.237C77.4304 108.506 78.1357 108.749 78.8099 108.96C78.8943 108.986 78.9665 109.042 79.0134 109.117C79.0603 109.192 79.0788 109.281 79.0654 109.369C79.0521 109.456 79.0079 109.536 78.9408 109.594C78.8737 109.651 78.7881 109.683 78.6997 109.683ZM93.9345 109.049C93.8512 109.049 93.7703 109.021 93.705 108.969C93.6396 108.918 93.5935 108.846 93.5742 108.765C93.5549 108.684 93.5634 108.598 93.5985 108.523C93.6336 108.447 93.6932 108.386 93.7676 108.348C94.4204 108.018 95.0542 107.651 95.6658 107.249C95.7064 107.222 95.752 107.203 95.8 107.193C95.8479 107.184 95.8973 107.184 95.9452 107.194C95.993 107.204 96.0385 107.223 96.079 107.25C96.1194 107.278 96.154 107.313 96.1808 107.354C96.2076 107.395 96.2261 107.44 96.2351 107.488C96.2441 107.536 96.2435 107.586 96.2333 107.633C96.2231 107.681 96.2036 107.727 96.1758 107.767C96.148 107.807 96.1126 107.841 96.0715 107.868C95.4366 108.285 94.7787 108.666 94.1009 109.009C94.0493 109.035 93.9923 109.049 93.9345 109.049ZM74.5037 108.119C74.4539 108.119 74.4046 108.109 74.3588 108.089C73.7051 107.811 73.0132 107.502 72.302 107.17C72.2575 107.15 72.2174 107.121 72.1841 107.086C72.1507 107.05 72.1249 107.008 72.1079 106.962C72.0909 106.916 72.0832 106.867 72.0852 106.818C72.0872 106.769 72.0988 106.721 72.1195 106.677C72.1402 106.633 72.1694 106.593 72.2055 106.56C72.2416 106.527 72.2839 106.502 72.33 106.485C72.376 106.469 72.4249 106.461 72.4737 106.464C72.5225 106.466 72.5704 106.479 72.6145 106.5C73.3183 106.827 74.0027 107.133 74.6488 107.409C74.7273 107.442 74.7918 107.502 74.8315 107.577C74.8711 107.653 74.8834 107.739 74.8663 107.823C74.8493 107.907 74.8038 107.982 74.7377 108.036C74.6717 108.09 74.589 108.119 74.5037 108.119V108.119ZM97.6745 106.609C97.5979 106.609 97.5233 106.586 97.4608 106.541C97.3983 106.497 97.351 106.435 97.3255 106.363C97.3 106.29 97.2976 106.212 97.3184 106.138C97.3393 106.065 97.3825 105.999 97.442 105.951C97.9961 105.504 98.5531 105.014 99.0975 104.494C99.1685 104.427 99.2635 104.39 99.3616 104.392C99.4597 104.394 99.5529 104.435 99.6206 104.506C99.6884 104.577 99.7252 104.672 99.7229 104.77C99.7207 104.869 99.6795 104.962 99.6085 105.03C99.0492 105.564 98.4763 106.068 97.9065 106.527C97.8409 106.581 97.7591 106.61 97.6746 106.61L97.6745 106.609ZM70.4391 106.233C70.3822 106.233 70.3261 106.22 70.2752 106.194C69.651 105.885 68.995 105.553 68.2705 105.18C68.2273 105.157 68.1889 105.127 68.1575 105.09C68.1262 105.053 68.1024 105.01 68.0876 104.963C68.0728 104.917 68.0672 104.868 68.0713 104.82C68.0753 104.772 68.0889 104.724 68.1111 104.681C68.1334 104.638 68.164 104.6 68.201 104.568C68.2381 104.537 68.2811 104.513 68.3273 104.498C68.3736 104.483 68.4224 104.478 68.4708 104.482C68.5192 104.486 68.5664 104.5 68.6096 104.522C69.3307 104.894 69.9829 105.224 70.6036 105.531C70.6784 105.568 70.7385 105.63 70.7741 105.705C70.8097 105.781 70.8187 105.866 70.7996 105.947C70.7806 106.029 70.7346 106.101 70.6691 106.153C70.6036 106.205 70.5226 106.233 70.4391 106.233ZM66.4531 104.184C66.393 104.184 66.3339 104.169 66.2808 104.141C65.6647 103.816 65.0462 103.489 64.4252 103.159L64.2994 103.092C64.256 103.07 64.2174 103.039 64.1859 103.002C64.1545 102.964 64.1308 102.921 64.1162 102.874C64.1016 102.827 64.0964 102.778 64.1009 102.73C64.1054 102.681 64.1195 102.634 64.1424 102.59C64.1654 102.547 64.1966 102.509 64.2344 102.478C64.2722 102.447 64.3158 102.424 64.3626 102.409C64.4095 102.395 64.4586 102.391 64.5073 102.396C64.556 102.401 64.6031 102.415 64.6461 102.439L64.7719 102.505C65.3923 102.834 66.0103 103.161 66.6259 103.486C66.6991 103.525 66.7573 103.587 66.7911 103.662C66.825 103.738 66.8325 103.823 66.8126 103.903C66.7928 103.983 66.7465 104.054 66.6814 104.105C66.6162 104.156 66.5358 104.184 66.4531 104.184L66.4531 104.184ZM100.913 103.529C100.842 103.529 100.771 103.509 100.711 103.469C100.651 103.43 100.604 103.375 100.575 103.309C100.546 103.244 100.537 103.171 100.548 103.1C100.559 103.03 100.591 102.964 100.639 102.911C101.12 102.382 101.604 101.815 102.078 101.226C102.14 101.151 102.229 101.104 102.326 101.094C102.423 101.084 102.52 101.112 102.596 101.174C102.672 101.235 102.721 101.323 102.732 101.42C102.743 101.517 102.715 101.614 102.655 101.691C102.171 102.291 101.677 102.869 101.187 103.408C101.152 103.447 101.11 103.477 101.063 103.498C101.016 103.519 100.965 103.53 100.913 103.53V103.529ZM62.4942 102.09C62.4343 102.09 62.3753 102.075 62.3223 102.047C61.5897 101.662 60.9409 101.324 60.3391 101.015C60.2518 100.97 60.1858 100.892 60.1558 100.799C60.1258 100.705 60.1341 100.604 60.179 100.516C60.2238 100.429 60.3015 100.363 60.395 100.333C60.4885 100.303 60.5901 100.311 60.6774 100.356C61.2812 100.666 61.9319 101.005 62.6666 101.392C62.7399 101.43 62.7981 101.492 62.832 101.568C62.8659 101.643 62.8735 101.728 62.8537 101.808C62.8338 101.888 62.7876 101.96 62.7224 102.011C62.6572 102.062 62.5769 102.089 62.4941 102.089L62.4942 102.09ZM103.724 100.05C103.656 100.05 103.589 100.031 103.531 99.9956C103.473 99.96 103.426 99.909 103.395 99.8482C103.364 99.7875 103.35 99.7194 103.356 99.6514C103.361 99.5834 103.385 99.5182 103.425 99.463C103.847 98.8813 104.272 98.2667 104.689 97.6361C104.743 97.5542 104.828 97.4972 104.924 97.4777C105.02 97.4581 105.12 97.4775 105.202 97.5316C105.284 97.5858 105.341 97.6702 105.36 97.7664C105.38 97.8625 105.361 97.9625 105.306 98.0444C104.884 98.6837 104.452 99.3072 104.024 99.8975C103.99 99.9449 103.945 99.9835 103.892 100.01C103.84 100.037 103.783 100.051 103.724 100.051V100.05ZM58.5085 100.045C58.4516 100.045 58.3955 100.032 58.3446 100.007C57.6397 99.658 56.9816 99.3404 56.333 99.036C56.2454 98.9935 56.1781 98.9183 56.1456 98.8266C56.1131 98.7348 56.118 98.634 56.1594 98.5459C56.2007 98.4578 56.2751 98.3895 56.3665 98.3558C56.4578 98.3222 56.5587 98.3259 56.6473 98.3661C57.3007 98.6727 57.9633 98.9924 58.6729 99.3439C58.7477 99.381 58.8078 99.4422 58.8434 99.5177C58.879 99.5933 58.8881 99.6786 58.869 99.7599C58.85 99.8412 58.804 99.9137 58.7385 99.9655C58.6731 100.017 58.592 100.046 58.5085 100.045ZM54.448 98.1453C54.3971 98.1453 54.3467 98.1348 54.3 98.1143C53.5991 97.8084 52.9066 97.5194 52.2419 97.2556C52.1968 97.2376 52.1556 97.211 52.1207 97.1771C52.0859 97.1433 52.058 97.1029 52.0387 97.0583C52.0195 97.0137 52.0092 96.9657 52.0085 96.9171C52.0078 96.8685 52.0166 96.8203 52.0346 96.7751C52.0525 96.7299 52.0791 96.6888 52.113 96.6539C52.1468 96.619 52.1872 96.5912 52.2318 96.5719C52.2764 96.5527 52.3244 96.5424 52.373 96.5416C52.4216 96.5409 52.4698 96.5498 52.515 96.5677C53.1874 96.8347 53.8876 97.1269 54.596 97.4362C54.674 97.4702 54.7378 97.53 54.7768 97.6055C54.8158 97.681 54.8277 97.7677 54.8103 97.8509C54.7929 97.9341 54.7474 98.0088 54.6815 98.0625C54.6155 98.1161 54.533 98.1453 54.448 98.1453ZM50.2788 96.4951C50.2371 96.4952 50.1956 96.4881 50.1563 96.4742C49.4419 96.2234 48.7303 95.9919 48.0411 95.786C47.9946 95.7721 47.9512 95.7492 47.9135 95.7185C47.8758 95.6878 47.8445 95.65 47.8214 95.6073C47.7983 95.5645 47.7839 95.5177 47.7789 95.4693C47.7739 95.421 47.7785 95.3722 47.7924 95.3256C47.8063 95.279 47.8293 95.2357 47.8599 95.198C47.8906 95.1603 47.9284 95.129 47.9711 95.1059C48.0139 95.0828 48.0608 95.0684 48.1091 95.0634C48.1574 95.0584 48.2063 95.063 48.2528 95.0769C48.9532 95.2862 49.6761 95.5213 50.4013 95.776C50.4838 95.8049 50.5533 95.8621 50.5977 95.9374C50.642 96.0126 50.6583 96.1012 50.6436 96.1873C50.6289 96.2734 50.5842 96.3516 50.5175 96.4079C50.4507 96.4642 50.3662 96.4951 50.2788 96.4951ZM106.196 96.3207C106.131 96.3206 106.066 96.3031 106.01 96.2699C105.953 96.2367 105.906 96.189 105.874 96.1318C105.842 96.0745 105.826 96.0098 105.827 95.9441C105.828 95.8785 105.847 95.8144 105.881 95.7583C106.256 95.142 106.636 94.4961 107.008 93.8384C107.031 93.795 107.063 93.7568 107.101 93.7259C107.14 93.6949 107.184 93.672 107.231 93.6583C107.278 93.6447 107.328 93.6406 107.377 93.6464C107.426 93.6521 107.473 93.6676 107.516 93.6919C107.559 93.7161 107.596 93.7487 107.626 93.7877C107.657 93.8267 107.679 93.8713 107.691 93.9189C107.704 93.9665 107.707 94.0161 107.7 94.0649C107.693 94.1136 107.677 94.1606 107.652 94.2029C107.275 94.8675 106.892 95.5201 106.513 96.1434C106.48 96.1976 106.433 96.2425 106.378 96.2736C106.322 96.3047 106.26 96.321 106.196 96.3209V96.3207ZM30.5069 95.4789C30.4182 95.4789 30.3324 95.4471 30.2653 95.3892C30.1981 95.3313 30.1539 95.2512 30.1409 95.1634C30.1278 95.0757 30.1467 94.9862 30.194 94.9112C30.2414 94.8363 30.3142 94.7808 30.399 94.755C31.1233 94.5338 31.8618 94.3405 32.5936 94.1806C32.6895 94.1596 32.7897 94.1776 32.8723 94.2306C32.9549 94.2836 33.0131 94.3672 33.0341 94.4631C33.055 94.559 33.037 94.6592 32.984 94.7418C32.931 94.8244 32.8474 94.8826 32.7515 94.9035C32.0392 95.0589 31.3204 95.2473 30.6151 95.4627C30.58 95.4734 30.5436 95.4789 30.5069 95.4789ZM45.9839 95.2183C45.9547 95.2183 45.9256 95.2148 45.8973 95.208C45.1679 95.033 44.4381 94.8811 43.7279 94.7566C43.6325 94.7384 43.548 94.6834 43.4927 94.6034C43.4375 94.5235 43.4159 94.425 43.4327 94.3293C43.4494 94.2335 43.5032 94.1482 43.5823 94.0918C43.6615 94.0354 43.7596 94.0124 43.8556 94.0277C44.5808 94.1548 45.3258 94.3097 46.07 94.4883C46.1582 94.5093 46.2356 94.5619 46.2876 94.6363C46.3395 94.7106 46.3623 94.8015 46.3517 94.8915C46.3411 94.9816 46.2978 95.0646 46.23 95.1248C46.1622 95.1851 46.0746 95.2183 45.9839 95.2182V95.2183ZM34.8772 94.5251C34.7833 94.5251 34.6929 94.4893 34.6243 94.4251C34.5558 94.3609 34.5142 94.273 34.5081 94.1793C34.5019 94.0856 34.5316 93.993 34.5912 93.9204C34.6508 93.8478 34.7357 93.8006 34.8289 93.7883C35.5732 93.6893 36.3336 93.6199 37.0887 93.5821C37.1373 93.5797 37.1858 93.5868 37.2316 93.6032C37.2774 93.6195 37.3195 93.6447 37.3555 93.6773C37.3915 93.7099 37.4208 93.7493 37.4416 93.7932C37.4624 93.8371 37.4744 93.8847 37.4768 93.9332C37.4793 93.9818 37.4721 94.0303 37.4558 94.0761C37.4395 94.1218 37.4143 94.1639 37.3817 94.2C37.3491 94.236 37.3097 94.2653 37.2658 94.2861C37.2219 94.3069 37.1743 94.3189 37.1257 94.3213C36.3908 94.3583 35.6508 94.4255 34.9265 94.5219C34.9101 94.524 34.8937 94.5251 34.8772 94.5251ZM41.5781 94.4511C41.565 94.4511 41.552 94.4505 41.539 94.4491C40.801 94.3716 40.059 94.3214 39.3347 94.2998C39.2366 94.2968 39.1436 94.255 39.0763 94.1836C39.009 94.1121 38.9729 94.0168 38.9758 93.9187C38.9788 93.8205 39.0206 93.7276 39.092 93.6603C39.1635 93.593 39.2588 93.5568 39.3569 93.5598C40.0998 93.582 40.8601 93.6338 41.6164 93.713C41.7105 93.723 41.7972 93.7687 41.8587 93.8407C41.9201 93.9127 41.9517 94.0055 41.9468 94.1C41.9419 94.1945 41.9009 94.2836 41.8324 94.3489C41.7638 94.4141 41.6728 94.4507 41.5782 94.4509L41.5781 94.4511ZM108.404 92.4273C108.34 92.4273 108.278 92.4108 108.222 92.3794C108.167 92.3479 108.12 92.3027 108.087 92.248C108.054 92.1934 108.036 92.1311 108.034 92.0674C108.033 92.0036 108.048 91.9405 108.077 91.8841C108.417 91.2431 108.759 90.5757 109.096 89.9009C109.117 89.8574 109.147 89.8186 109.184 89.7867C109.221 89.7548 109.263 89.7305 109.309 89.7151C109.355 89.6996 109.404 89.6934 109.453 89.6968C109.501 89.7002 109.548 89.713 109.592 89.7347C109.635 89.7564 109.674 89.7864 109.706 89.8231C109.738 89.8597 109.762 89.9023 109.778 89.9484C109.793 89.9944 109.799 90.0431 109.796 90.0916C109.793 90.1401 109.78 90.1874 109.758 90.2309C109.419 90.9112 109.074 91.584 108.731 92.2305C108.7 92.29 108.653 92.3397 108.595 92.3744C108.537 92.4091 108.471 92.4273 108.404 92.4273V92.4273ZM110.402 88.4211C110.34 88.4211 110.278 88.4053 110.224 88.3753C110.169 88.3452 110.123 88.3018 110.09 88.2492C110.056 88.1966 110.037 88.1363 110.033 88.0741C110.029 88.0119 110.041 87.9498 110.068 87.8934C110.378 87.2353 110.691 86.5529 110.998 85.8653C111.018 85.821 111.047 85.781 111.082 85.7476C111.117 85.7142 111.159 85.6881 111.204 85.6707C111.25 85.6534 111.298 85.6452 111.346 85.6465C111.395 85.6479 111.443 85.6588 111.487 85.6787C111.532 85.6985 111.572 85.7269 111.605 85.7622C111.638 85.7975 111.664 85.8391 111.682 85.8844C111.699 85.9298 111.707 85.9782 111.706 86.0268C111.705 86.0754 111.694 86.1232 111.674 86.1675C111.364 86.8596 111.049 87.5463 110.737 88.2088C110.707 88.2722 110.66 88.3258 110.601 88.3634C110.541 88.4009 110.473 88.4209 110.403 88.4209L110.402 88.4211ZM112.232 84.3347C112.171 84.3347 112.11 84.3196 112.056 84.2906C112.003 84.2616 111.957 84.2197 111.923 84.1687C111.889 84.1177 111.869 84.0591 111.863 83.9981C111.858 83.9372 111.867 83.8759 111.891 83.8196C112.177 83.1497 112.466 82.4562 112.75 81.7585C112.768 81.7128 112.795 81.6712 112.829 81.6359C112.863 81.6007 112.904 81.5726 112.949 81.5533C112.994 81.5339 113.043 81.5237 113.092 81.5233C113.141 81.5228 113.189 81.5321 113.235 81.5506C113.28 81.5692 113.321 81.5965 113.356 81.6311C113.391 81.6657 113.418 81.7069 113.437 81.7522C113.456 81.7975 113.465 81.8461 113.465 81.8952C113.465 81.9442 113.455 81.9927 113.436 82.0378C113.15 82.7392 112.859 83.4364 112.572 84.1098C112.544 84.1765 112.496 84.2333 112.436 84.2733C112.375 84.3133 112.304 84.3346 112.232 84.3346L112.232 84.3347ZM113.923 80.1889C113.863 80.1888 113.804 80.1741 113.75 80.146C113.697 80.1179 113.652 80.0772 113.618 80.0274C113.584 79.9777 113.562 79.9204 113.556 79.8606C113.549 79.8008 113.557 79.7402 113.579 79.6841C113.844 79.0046 114.113 78.3027 114.378 77.5979C114.412 77.506 114.482 77.4317 114.571 77.3911C114.661 77.3506 114.762 77.3472 114.854 77.3817C114.946 77.4162 115.021 77.4858 115.061 77.5752C115.102 77.6646 115.105 77.7664 115.071 77.8582C114.804 78.566 114.534 79.271 114.268 79.9535C114.24 80.0228 114.193 80.0823 114.132 80.1242C114.07 80.1662 113.998 80.1887 113.923 80.1888L113.923 80.1889ZM115.499 75.9975C115.44 75.9975 115.381 75.9832 115.329 75.9557C115.276 75.9283 115.231 75.8886 115.197 75.84C115.162 75.7914 115.141 75.7352 115.133 75.6763C115.125 75.6175 115.131 75.5576 115.151 75.5017C115.4 74.8142 115.652 74.1058 115.901 73.396C115.916 73.3495 115.941 73.3067 115.973 73.2698C116.005 73.233 116.045 73.203 116.089 73.1814C116.133 73.1599 116.181 73.1473 116.229 73.1444C116.278 73.1415 116.327 73.1483 116.374 73.1645C116.42 73.1806 116.462 73.2058 116.499 73.2385C116.535 73.2713 116.565 73.3109 116.586 73.3552C116.607 73.3994 116.619 73.4474 116.621 73.4963C116.623 73.5452 116.616 73.5941 116.599 73.6402C116.35 74.3525 116.097 75.0635 115.847 75.7536C115.821 75.825 115.774 75.8867 115.712 75.9304C115.65 75.974 115.576 75.9974 115.5 75.9974L115.499 75.9975ZM116.975 71.7691C116.916 71.7691 116.859 71.7551 116.806 71.7284C116.754 71.7016 116.709 71.6629 116.675 71.6152C116.641 71.5676 116.618 71.5125 116.609 71.4545C116.6 71.3965 116.606 71.3373 116.624 71.2816C116.863 70.568 117.096 69.8534 117.318 69.1578C117.348 69.0643 117.413 68.9865 117.501 68.9414C117.588 68.8964 117.689 68.8878 117.783 68.9175C117.876 68.9473 117.954 69.013 117.999 69.1002C118.044 69.1874 118.053 69.2889 118.023 69.3824C117.8 70.0814 117.566 70.7994 117.326 71.5164C117.301 71.5899 117.254 71.6538 117.191 71.6992C117.129 71.7445 117.053 71.7689 116.975 71.769L116.975 71.7691ZM118.334 67.501C118.276 67.5011 118.219 67.4876 118.167 67.4617C118.116 67.4357 118.071 67.3981 118.036 67.3518C118.002 67.3054 117.979 67.2517 117.969 67.1948C117.959 67.1379 117.963 67.0795 117.979 67.0243C118.195 66.3065 118.406 65.5853 118.605 64.8806C118.632 64.7861 118.695 64.7062 118.781 64.6583C118.866 64.6104 118.968 64.5985 119.062 64.6252C119.156 64.6519 119.236 64.715 119.284 64.8007C119.332 64.8863 119.344 64.9875 119.317 65.0819C119.117 65.7906 118.905 66.5159 118.688 67.2377C118.665 67.3137 118.618 67.3804 118.554 67.4279C118.491 67.4753 118.413 67.501 118.334 67.5011L118.334 67.501ZM119.551 63.1907C119.494 63.1907 119.439 63.1778 119.388 63.1528C119.337 63.1279 119.292 63.0916 119.258 63.0467C119.223 63.0019 119.199 62.9497 119.188 62.8942C119.177 62.8387 119.179 62.7814 119.193 62.7266C119.384 61.9998 119.568 61.2716 119.739 60.5624C119.762 60.4677 119.822 60.3863 119.906 60.3357C119.989 60.2852 120.089 60.2697 120.184 60.2926C120.279 60.3154 120.361 60.3749 120.412 60.4579C120.464 60.5409 120.48 60.6408 120.458 60.7358C120.286 61.4501 120.101 62.1831 119.909 62.9147C119.888 62.9937 119.842 63.0635 119.777 63.1135C119.712 63.1634 119.633 63.1905 119.551 63.1906L119.551 63.1907ZM120.6 58.8363C120.545 58.8364 120.49 58.824 120.44 58.8002C120.39 58.7764 120.346 58.7416 120.311 58.6986C120.277 58.6555 120.252 58.6053 120.239 58.5514C120.227 58.4976 120.226 58.4416 120.238 58.3876C120.398 57.6528 120.549 56.9177 120.686 56.2027C120.695 56.1547 120.713 56.1089 120.74 56.0679C120.766 56.0269 120.801 55.9917 120.841 55.9641C120.881 55.9365 120.927 55.9172 120.975 55.9073C121.022 55.8973 121.072 55.897 121.12 55.9062C121.168 55.9154 121.213 55.934 121.254 55.961C121.295 55.9879 121.33 56.0227 121.357 56.0632C121.384 56.1038 121.403 56.1493 121.413 56.1972C121.422 56.2451 121.422 56.2945 121.413 56.3424C121.274 57.0633 121.122 57.8044 120.961 58.545C120.943 58.6275 120.898 58.7014 120.832 58.7544C120.766 58.8074 120.684 58.8363 120.6 58.8363ZM121.443 54.4378C121.389 54.4378 121.336 54.4261 121.287 54.4036C121.239 54.3811 121.196 54.3482 121.161 54.3073C121.126 54.2664 121.101 54.2185 121.086 54.1668C121.072 54.1151 121.069 54.0609 121.077 54.0079C121.199 53.2638 121.31 52.5223 121.405 51.8039C121.411 51.7554 121.427 51.7084 121.451 51.6659C121.475 51.6233 121.508 51.586 121.546 51.556C121.585 51.5261 121.629 51.5041 121.676 51.4914C121.724 51.4786 121.773 51.4754 121.821 51.4819C121.87 51.4883 121.917 51.5043 121.959 51.529C122.001 51.5536 122.038 51.5864 122.068 51.6255C122.097 51.6645 122.119 51.709 122.131 51.7564C122.143 51.8038 122.146 51.8531 122.139 51.9015C122.043 52.6272 121.931 53.3762 121.808 54.1276C121.793 54.2141 121.749 54.2927 121.682 54.3495C121.616 54.4063 121.531 54.4376 121.443 54.4378H121.443ZM122.031 49.9984C122.019 49.9984 122.006 49.9977 121.994 49.9966C121.945 49.9918 121.899 49.9775 121.856 49.9546C121.813 49.9317 121.775 49.9006 121.744 49.863C121.713 49.8255 121.69 49.7822 121.676 49.7357C121.662 49.6892 121.657 49.6404 121.662 49.592C121.736 48.8427 121.795 48.0964 121.839 47.3739C121.845 47.276 121.889 47.1844 121.963 47.1193C122.036 47.0542 122.132 47.0209 122.23 47.0268C122.328 47.0327 122.42 47.0772 122.485 47.1507C122.55 47.2241 122.583 47.3204 122.577 47.4183C122.534 48.1502 122.473 48.9057 122.398 49.6647C122.389 49.756 122.347 49.8406 122.279 49.9023C122.211 49.9639 122.123 49.9982 122.031 49.9984H122.031ZM122.295 45.5288H122.289C122.241 45.528 122.193 45.5177 122.148 45.4983C122.103 45.479 122.063 45.4511 122.029 45.4162C121.995 45.3813 121.969 45.34 121.951 45.2949C121.933 45.2497 121.924 45.2014 121.925 45.1528C121.929 44.892 121.932 44.6316 121.932 44.3787C121.932 43.893 121.924 43.4063 121.908 42.9319C121.906 42.8831 121.914 42.8342 121.93 42.7883C121.947 42.7424 121.973 42.7003 122.006 42.6644C122.04 42.6285 122.08 42.5996 122.124 42.5793C122.169 42.5589 122.217 42.5476 122.266 42.546C122.314 42.5444 122.363 42.5525 122.409 42.5698C122.455 42.5872 122.496 42.6134 122.532 42.647C122.568 42.6807 122.596 42.721 122.616 42.7657C122.636 42.8104 122.647 42.8586 122.648 42.9075C122.664 43.39 122.672 43.885 122.672 44.3787C122.672 44.6355 122.669 44.9 122.665 45.1648C122.663 45.2618 122.624 45.3542 122.555 45.4222C122.486 45.4902 122.392 45.5284 122.296 45.5285L122.295 45.5288ZM122.141 41.0568C122.049 41.0567 121.96 41.0221 121.892 40.9598C121.824 40.8975 121.782 40.8119 121.773 40.72C121.706 39.9708 121.615 39.2319 121.505 38.5237C121.497 38.4754 121.498 38.426 121.509 38.3782C121.52 38.3305 121.541 38.2854 121.569 38.2456C121.598 38.2058 121.634 38.1721 121.676 38.1464C121.717 38.1208 121.764 38.1036 121.812 38.0961C121.861 38.0885 121.91 38.0906 121.958 38.1023C122.005 38.114 122.05 38.1351 122.09 38.1642C122.129 38.1934 122.162 38.23 122.187 38.2721C122.212 38.3142 122.229 38.3609 122.236 38.4094C122.349 39.1334 122.442 39.8885 122.51 40.6535C122.515 40.7019 122.51 40.7507 122.495 40.7971C122.481 40.8435 122.457 40.8866 122.426 40.9239C122.395 40.9612 122.357 40.992 122.314 41.0145C122.271 41.0371 122.223 41.0509 122.175 41.0553C122.164 41.056 122.153 41.0565 122.142 41.0565L122.141 41.0568ZM121.444 36.6414C121.36 36.6413 121.279 36.6131 121.214 36.5612C121.149 36.5094 121.103 36.437 121.084 36.3558C120.913 35.6273 120.714 34.9128 120.49 34.2332C120.474 34.1868 120.467 34.1375 120.47 34.0883C120.473 34.0391 120.486 33.991 120.508 33.9469C120.529 33.9027 120.56 33.8633 120.597 33.831C120.634 33.7987 120.677 33.7741 120.724 33.7588C120.771 33.7434 120.82 33.7376 120.869 33.7416C120.919 33.7456 120.966 33.7593 121.01 33.7821C121.054 33.8048 121.093 33.836 121.124 33.8739C121.156 33.9118 121.179 33.9556 121.193 34.0027C121.423 34.7029 121.628 35.4377 121.804 36.1869C121.817 36.2412 121.817 36.2977 121.805 36.3522C121.793 36.4066 121.768 36.4576 121.734 36.5013C121.699 36.5451 121.655 36.5804 121.605 36.6046C121.554 36.6289 121.499 36.6415 121.443 36.6414H121.444ZM120.045 32.3997C119.973 32.3997 119.903 32.3788 119.843 32.3396C119.783 32.3003 119.735 32.2444 119.706 32.1787C119.412 31.5084 119.081 30.8547 118.715 30.2205C118.668 30.1357 118.657 30.0359 118.683 29.9426C118.709 29.8493 118.77 29.7699 118.854 29.7214C118.938 29.673 119.037 29.6594 119.131 29.6835C119.225 29.7076 119.306 29.7676 119.356 29.8505C119.735 30.5081 120.078 31.1858 120.383 31.8808C120.408 31.9371 120.419 31.9987 120.414 32.06C120.409 32.1214 120.388 32.1805 120.355 32.232C120.321 32.2836 120.275 32.326 120.221 32.3553C120.167 32.3846 120.107 32.4 120.045 32.4V32.3997ZM117.805 28.5394C117.748 28.5394 117.691 28.5261 117.64 28.5004C117.588 28.4747 117.543 28.4374 117.509 28.3914C117.071 27.8068 116.597 27.2498 116.091 26.7236C116.023 26.653 115.985 26.5582 115.987 26.46C115.989 26.3619 116.03 26.2686 116.1 26.2005C116.171 26.1323 116.266 26.0951 116.364 26.0969C116.462 26.0987 116.555 26.1394 116.624 26.2101C117.151 26.7583 117.645 27.3386 118.101 27.9477C118.142 28.0027 118.168 28.0681 118.174 28.1365C118.18 28.2049 118.167 28.2738 118.136 28.3352C118.105 28.3967 118.058 28.4484 118 28.4845C117.941 28.5206 117.874 28.5397 117.805 28.5397L117.805 28.5394ZM114.708 25.3269C114.623 25.3269 114.541 25.2979 114.476 25.2447C113.906 24.7854 113.31 24.3604 112.691 23.9719C112.608 23.9197 112.549 23.8367 112.527 23.741C112.505 23.6453 112.522 23.5449 112.574 23.4618C112.626 23.3787 112.709 23.3197 112.805 23.2978C112.9 23.2759 113.001 23.2929 113.084 23.3451C113.729 23.7492 114.349 24.1913 114.941 24.6689C115 24.717 115.043 24.7824 115.064 24.8561C115.085 24.9297 115.083 25.008 115.057 25.0801C115.031 25.1523 114.984 25.2147 114.922 25.2589C114.859 25.3031 114.785 25.3268 114.708 25.3267V25.3269ZM73.7134 24.5821C73.6256 24.5821 73.5406 24.5509 73.4736 24.494C73.4067 24.4371 73.3622 24.3583 73.348 24.2716C73.3339 24.1849 73.3511 24.096 73.3965 24.0208C73.4419 23.9456 73.5126 23.889 73.5959 23.8612C74.294 23.6271 75.0148 23.3955 75.7382 23.173C75.7849 23.1578 75.8341 23.1521 75.8829 23.1562C75.9318 23.1603 75.9794 23.174 76.0229 23.1966C76.0664 23.2192 76.105 23.2503 76.1364 23.288C76.1679 23.3256 76.1915 23.3692 76.2059 23.416C76.2203 23.4629 76.2253 23.5122 76.2205 23.561C76.2157 23.6098 76.2013 23.6572 76.1781 23.7004C76.1548 23.7436 76.1232 23.7817 76.0851 23.8125C76.0469 23.8434 76.0031 23.8664 75.956 23.8801C75.2382 24.1012 74.5235 24.331 73.8311 24.5631C73.7931 24.5757 73.7534 24.5822 73.7134 24.5821ZM77.9961 23.2619C77.9067 23.2619 77.8204 23.2296 77.753 23.1709C77.6856 23.1122 77.6417 23.0311 77.6295 22.9426C77.6172 22.854 77.6375 22.7641 77.6864 22.6893C77.7354 22.6145 77.8097 22.56 77.8957 22.5357C78.6166 22.3322 79.3474 22.1351 80.0678 21.95C80.1624 21.9268 80.2625 21.9418 80.3461 21.9918C80.4297 22.0418 80.4903 22.1229 80.5145 22.2173C80.5388 22.3117 80.5248 22.4118 80.4756 22.496C80.4264 22.5801 80.3461 22.6415 80.2519 22.6667C79.5372 22.8503 78.8122 23.0459 78.097 23.2479C78.0642 23.2572 78.0302 23.2619 77.9962 23.2619H77.9961ZM110.929 22.947C110.873 22.9469 110.818 22.9343 110.768 22.91C110.123 22.5979 109.441 22.3095 108.741 22.0527C108.649 22.0184 108.575 21.9494 108.534 21.8606C108.493 21.7718 108.489 21.6705 108.523 21.5787C108.557 21.487 108.625 21.4123 108.714 21.3709C108.802 21.3296 108.903 21.3249 108.995 21.358C109.718 21.6231 110.423 21.9212 111.09 22.2437C111.166 22.2803 111.226 22.3413 111.263 22.4168C111.299 22.4923 111.308 22.5779 111.29 22.6595C111.271 22.7412 111.225 22.814 111.159 22.8662C111.094 22.9184 111.013 22.9468 110.929 22.9467L110.929 22.947ZM82.3363 22.1478C82.2454 22.1478 82.1577 22.1143 82.0899 22.0538C82.0221 21.9932 81.9789 21.9098 81.9687 21.8195C81.9584 21.7291 81.9818 21.6382 82.0343 21.564C82.0868 21.4898 82.1649 21.4375 82.2535 21.4172C82.9877 21.2477 83.7275 21.087 84.4523 20.9395C84.5485 20.9199 84.6485 20.9394 84.7303 20.9935C84.8121 21.0477 84.8691 21.1321 84.8887 21.2283C84.9082 21.3245 84.8888 21.4245 84.8346 21.5063C84.7805 21.5882 84.696 21.6451 84.5999 21.6647C83.8814 21.811 83.1479 21.9704 82.4198 22.1383C82.3924 22.1445 82.3645 22.1476 82.3364 22.1475L82.3363 22.1478ZM106.734 21.3993C106.701 21.3992 106.669 21.3949 106.637 21.3863C105.945 21.1989 105.22 21.0327 104.482 20.8924C104.434 20.8838 104.388 20.8658 104.347 20.8393C104.306 20.8128 104.27 20.7784 104.242 20.7381C104.214 20.6977 104.195 20.6523 104.185 20.6044C104.175 20.5565 104.174 20.507 104.183 20.4589C104.192 20.4108 104.211 20.365 104.238 20.3241C104.265 20.2832 104.3 20.2481 104.341 20.2208C104.381 20.1935 104.427 20.1746 104.475 20.1651C104.523 20.1556 104.572 20.1557 104.62 20.1655C105.377 20.3093 106.12 20.4797 106.831 20.672C106.917 20.6953 106.992 20.7493 107.042 20.824C107.092 20.8986 107.113 20.9888 107.101 21.0778C107.089 21.1667 107.046 21.2484 106.978 21.3075C106.911 21.3666 106.824 21.3993 106.734 21.3993H106.734ZM86.7268 21.2554C86.6341 21.2554 86.5449 21.2206 86.4767 21.158C86.4085 21.0953 86.3662 21.0094 86.3583 20.9172C86.3503 20.8249 86.3773 20.733 86.4338 20.6596C86.4903 20.5863 86.5723 20.5367 86.6635 20.5209C87.4092 20.3906 88.1573 20.2713 88.8869 20.1663C88.984 20.1523 89.0828 20.1775 89.1613 20.2363C89.2399 20.2951 89.2919 20.3827 89.3059 20.4799C89.3199 20.577 89.2947 20.6757 89.2358 20.7543C89.177 20.8329 89.0894 20.8849 88.9923 20.8989C88.27 21.0028 87.5293 21.1209 86.7908 21.25C86.7698 21.2535 86.7485 21.2552 86.7271 21.2551L86.7268 21.2554ZM91.1598 20.6197C91.0652 20.6196 90.9742 20.5833 90.9056 20.5182C90.8369 20.4531 90.7958 20.3642 90.7906 20.2698C90.7855 20.1753 90.8167 20.0825 90.8779 20.0103C90.9391 19.9382 91.0256 19.8922 91.1196 19.8819C91.876 19.7983 92.6307 19.7285 93.3629 19.6747C93.4607 19.6675 93.5574 19.6994 93.6318 19.7635C93.7061 19.8276 93.7519 19.9186 93.7591 20.0164C93.7664 20.1143 93.7344 20.211 93.6703 20.2853C93.6062 20.3596 93.5153 20.4055 93.4174 20.4127C92.694 20.4661 91.9483 20.535 91.2009 20.6176C91.1874 20.6189 91.1738 20.6195 91.1602 20.6194L91.1598 20.6197ZM102.339 20.5555C102.324 20.5555 102.308 20.5546 102.293 20.5528C101.579 20.4655 100.836 20.3974 100.084 20.3497C100.035 20.3468 99.9876 20.3344 99.9438 20.313C99.9 20.2917 99.8609 20.262 99.8286 20.2255C99.7964 20.189 99.7716 20.1465 99.7558 20.1004C99.74 20.0544 99.7334 20.0056 99.7365 19.957C99.7396 19.9084 99.7522 19.8609 99.7737 19.8172C99.7952 19.7735 99.8251 19.7344 99.8617 19.7023C99.8983 19.6702 99.9409 19.6456 99.987 19.6299C100.033 19.6143 100.082 19.6079 100.131 19.6112C100.896 19.6596 101.654 19.7296 102.383 19.8184C102.477 19.8297 102.562 19.8763 102.623 19.9487C102.683 20.0211 102.714 20.1138 102.708 20.208C102.702 20.3021 102.661 20.3905 102.592 20.4551C102.524 20.5198 102.433 20.5558 102.339 20.5557V20.5555ZM95.6268 20.2927C95.5287 20.2943 95.4339 20.2568 95.3634 20.1886C95.2929 20.1203 95.2523 20.0269 95.2507 19.9287C95.2491 19.8306 95.2866 19.7358 95.3548 19.6653C95.4231 19.5948 95.5166 19.5543 95.6147 19.5527C96.1825 19.5337 96.7498 19.524 97.3007 19.524C97.4945 19.5225 97.6819 19.5251 97.8723 19.5274C97.9704 19.528 98.0643 19.5675 98.1333 19.6373C98.2022 19.7071 98.2407 19.8015 98.2401 19.8996C98.2395 19.9977 98.2 20.0916 98.1302 20.1606C98.0604 20.2296 97.966 20.268 97.8679 20.2674H97.8635C97.6771 20.2652 97.4905 20.2641 97.3039 20.2641H97.3007C96.7579 20.2641 96.1991 20.2736 95.6394 20.2923C95.6356 20.2923 95.6313 20.2924 95.6272 20.2924L95.6268 20.2927Z" fill="#418DF9"/>
<path d="M27.3053 96.6681C27.2203 96.6682 27.1378 96.639 27.0718 96.5855C27.0058 96.5319 26.9602 96.4573 26.9428 96.3741C26.9253 96.2909 26.937 96.2043 26.9759 96.1287C27.0148 96.0532 27.0786 95.9933 27.1564 95.9592C27.4995 95.8088 27.8485 95.6632 28.1939 95.5269C28.239 95.509 28.2873 95.5002 28.3359 95.501C28.3845 95.5018 28.4324 95.5122 28.477 95.5315C28.5216 95.5508 28.5619 95.5787 28.5957 95.6136C28.6295 95.6486 28.6561 95.6898 28.674 95.735C28.6918 95.7802 28.7006 95.8284 28.6998 95.877C28.699 95.9256 28.6887 95.9735 28.6694 96.0181C28.65 96.0627 28.6221 96.103 28.5872 96.1368C28.5523 96.1706 28.5111 96.1972 28.4659 96.2151C28.129 96.3483 27.7884 96.4903 27.4536 96.6369C27.4069 96.6575 27.3563 96.6681 27.3053 96.6681Z" fill="#418DF9"/>
<path d="M23.0182 97.0428C23.5816 96.9006 23.8318 95.9676 23.5773 94.9588C23.3227 93.95 22.6596 93.2475 22.0963 93.3897C21.533 93.5318 21.2827 94.4649 21.5373 95.4736C21.7918 96.4824 22.4549 97.1849 23.0182 97.0428Z" fill="#A2BDFF"/>
<path d="M25.1539 102.409C25.6967 102.202 25.8363 101.246 25.4657 100.274C25.095 99.3022 24.3545 98.6819 23.8116 98.8889C23.2687 99.0959 23.1291 100.052 23.4998 101.024C23.8704 101.996 24.611 102.616 25.1539 102.409Z" fill="#A2BDFF"/>
<path d="M23.2682 98.8132C23.6978 98.8132 24.0461 98.4649 24.0461 98.0353C24.0461 97.6056 23.6978 97.2573 23.2682 97.2573C22.8385 97.2573 22.4902 97.6056 22.4902 98.0353C22.4902 98.4649 22.8385 98.8132 23.2682 98.8132Z" fill="#0E84E5"/>
<path d="M56.5164 56.4304H66.5297V78.2125H56.5164V56.4304Z" fill="black"/>
<path d="M66.5352 61.9319C65.6383 60.4772 64.4516 59.2358 62.9531 58.4264C62.0234 57.9233 60.9953 57.6334 59.9508 57.5295H58.2062C57.6375 57.5842 57.0687 57.6936 56.5219 57.8577V68.8663C57.0086 68.1225 57.818 67.5866 58.693 67.3788C60.2187 67.0233 61.8375 67.6084 63.0734 68.5655C64.3094 69.5225 65.2336 70.8241 66.1359 72.0983L66.5406 72.667V61.9319H66.5352Z" fill="#263238"/>
<path d="M75.3398 24.121H37.8188C37.8188 24.121 50.7141 25.7014 50.7141 36.5788L50.7797 64.185H87.1578C88.618 64.185 89.7992 63.0038 89.7992 61.5436V38.5858C89.8047 30.596 83.3297 24.121 75.3398 24.121Z" fill="#36689E"/>
<path d="M62.5758 44.9733C65.0343 44.9733 67.0273 42.7306 67.0273 39.964C67.0273 37.1974 65.0343 34.9546 62.5758 34.9546C60.1173 34.9546 58.1242 37.1974 58.1242 39.964C58.1242 42.7306 60.1173 44.9733 62.5758 44.9733Z" fill="#1E1E1E"/>
<path d="M80.9508 37.7655L60.3719 37.7819V42.2499H75.8211V49.9499C75.8211 51.7272 76.5922 51.935 79.95 51.935C83.3078 51.935 84.2922 51.7272 84.2922 49.9499V41.1069C84.2867 39.2639 82.7937 37.7655 80.9508 37.7655Z" fill="#1E1E1E"/>
<path d="M82.3891 36.032L61.8102 36.0484V40.5164H77.2594V48.2164C77.2594 49.9937 78.0305 50.2015 81.3883 50.2015C84.7461 50.2015 85.7305 49.9937 85.7305 48.2164V39.3734C85.7305 37.5304 84.232 36.032 82.3891 36.032Z" fill="#263238"/>
<path d="M83.6578 36.032L60.9297 36.0484V40.5164H78.5281V48.2164C78.5281 49.9937 79.2992 50.2015 82.657 50.2015C86.0148 50.2015 86.9992 49.9937 86.9992 48.2164V39.3734C86.9938 37.5304 85.5008 36.032 83.6578 36.032Z" fill="#36689E" fill-opacity="0.4"/>
<path d="M83.2313 38.9195C82.143 38.8812 72.2883 38.1702 70.4398 38.0445C68.2031 37.8913 67.9734 36.6007 70.0078 36.6007H83.3352C85.4844 36.6007 85.5992 39.0015 83.2313 38.9195Z" fill="#263238"/>
<path d="M61.7719 33.6092L61.8102 43.6225H59.907C57.6922 43.6225 55.8984 41.3803 55.8984 38.6131C55.8984 35.8459 57.6922 33.6038 59.907 33.6038C62.1164 33.6092 61.7719 33.6092 61.7719 33.6092Z" fill="#82AEC0"/>
<path d="M62.1328 43.6225C64.3467 43.6225 66.1414 41.3797 66.1414 38.6131C66.1414 35.8465 64.3467 33.6038 62.1328 33.6038C59.9189 33.6038 58.1242 35.8465 58.1242 38.6131C58.1242 41.3797 59.9189 43.6225 62.1328 43.6225Z" fill="#E0E0E0"/>
<path d="M59.7375 38.7609C59.9781 38.8812 60.268 38.7499 60.4758 38.5749C61.1102 38.0445 61.3508 37.1695 61.9359 36.5898C62.45 36.0757 63.232 35.5726 62.6195 34.8124C62.1766 34.2656 61.4055 34.3202 60.8422 34.6101C59.4805 35.2992 58.518 38.1484 59.7375 38.7609Z" fill="white"/>
<path d="M37.8188 26.2429C44.3047 26.2429 49.582 30.6289 49.582 36.0265V62.0578H26.0555V36.0265C26.0555 30.6289 31.3328 26.2429 37.8188 26.2429Z" fill="#263238"/>
<path d="M37.8188 26.3796C44.2555 26.3796 49.4945 30.7327 49.4945 36.0866V61.9155H26.1484V36.0866C26.1484 30.7382 31.382 26.3796 37.8188 26.3796ZM37.8188 24.121C29.5445 24.121 24.1797 29.6936 24.1797 36.5733V63.0147C24.1797 63.6546 24.6992 64.1796 25.3445 64.1796H51.6438C52.2836 64.1796 52.8086 63.66 52.8086 63.0147V36.5733C52.8031 29.6936 46.093 24.121 37.8188 24.121Z" fill="#DEE9FF"/>
</svg>
