<svg width="356" height="356" viewBox="0 0 356 356" fill="none" xmlns="http://www.w3.org/2000/svg">
<path d="M53.2207 157.976C53.2207 157.976 110.022 155.76 122.296 64.7818C133.197 -16.0157 228.978 20.7604 256.665 52.9682C292.531 94.6907 273.412 166.462 319.809 175.529C366.205 184.596 335.908 285.403 265.48 275.754C177.87 263.751 199.066 313.635 172.767 334.748C153.892 349.902 76.4977 335.315 73.9183 280.307C71.7477 234.018 51.7093 234.165 37.5059 228.916C17.0214 221.346 4.11386 166.524 53.2207 157.976Z" fill="#DEE9FF"/>
<path opacity="0.2" d="M179.255 233.064C224.101 233.064 260.456 196.709 260.456 151.862C260.456 107.016 224.101 70.6606 179.255 70.6606C134.408 70.6606 98.0527 107.016 98.0527 151.862C98.0527 196.709 134.408 233.064 179.255 233.064Z" fill="#263238"/>
<path d="M179.254 226.692C220.582 226.692 254.084 193.19 254.084 151.863C254.084 110.535 220.582 77.033 179.254 77.033C137.927 77.033 104.425 110.535 104.425 151.863C104.425 193.19 137.927 226.692 179.254 226.692Z" fill="#36689E" stroke="#263238" stroke-miterlimit="10"/>
<path d="M182.287 151.863C182.288 151.263 182.112 150.676 181.779 150.176C181.447 149.676 180.974 149.286 180.42 149.056C179.866 148.825 179.256 148.764 178.667 148.88C178.078 148.996 177.537 149.285 177.113 149.708C176.688 150.132 176.398 150.673 176.28 151.261C176.163 151.85 176.223 152.46 176.452 153.014C176.681 153.569 177.07 154.043 177.569 154.376C178.068 154.71 178.654 154.888 179.254 154.888C180.057 154.888 180.828 154.57 181.396 154.002C181.965 153.435 182.285 152.666 182.287 151.863Z" fill="#263238" stroke="#263238" stroke-miterlimit="10" stroke-linecap="round"/>
<path d="M179.312 83.7263V93.84" stroke="white" stroke-width="2" stroke-miterlimit="10" stroke-linecap="round"/>
<path d="M179.312 209.096V219.209" stroke="#263238" stroke-width="2" stroke-miterlimit="10" stroke-linecap="round"/>
<path d="M247.054 151.468H236.933" stroke="white" stroke-width="2" stroke-miterlimit="10" stroke-linecap="round"/>
<path d="M121.685 151.468H111.571" stroke="white" stroke-width="2" stroke-miterlimit="10" stroke-linecap="round"/>
<path d="M214.835 93.7893L209.529 102.405" stroke="white" stroke-width="2" stroke-miterlimit="10" stroke-linecap="round"/>
<path d="M149.089 200.531L143.783 209.147" stroke="white" stroke-width="2" stroke-miterlimit="10" stroke-linecap="round"/>
<path d="M238.906 119.263L230.005 124.072" stroke="white" stroke-width="2" stroke-miterlimit="10" stroke-linecap="round"/>
<path d="M128.613 178.864L119.712 183.672" stroke="white" stroke-width="2" stroke-miterlimit="10" stroke-linecap="round"/>
<path d="M236.992 186.997L228.376 181.685" stroke="white" stroke-width="2" stroke-miterlimit="10" stroke-linecap="round"/>
<path d="M130.25 121.251L121.635 115.946" stroke="white" stroke-width="2" stroke-miterlimit="10" stroke-linecap="round"/>
<path d="M211.517 211.069L206.709 202.161" stroke="white" stroke-width="2" stroke-miterlimit="10" stroke-linecap="round"/>
<path d="M151.917 100.775L147.108 91.8745" stroke="white" stroke-width="2" stroke-miterlimit="10" stroke-linecap="round"/>
<g opacity="0.2">
<path d="M179.255 154.311C178.928 154.313 178.605 154.249 178.303 154.123C178.002 153.998 177.729 153.813 177.501 153.58L130.433 105.24C130.003 104.771 129.773 104.152 129.791 103.516C129.809 102.88 130.075 102.276 130.531 101.832C130.987 101.389 131.598 101.14 132.235 101.139C132.871 101.138 133.483 101.385 133.94 101.828L181.016 150.131C181.352 150.475 181.58 150.912 181.669 151.385C181.759 151.859 181.707 152.348 181.519 152.792C181.332 153.236 181.018 153.615 180.617 153.881C180.215 154.147 179.744 154.289 179.262 154.289L179.255 154.311Z" fill="white"/>
</g>
<path opacity="0.2" d="M158.143 168.436C157.616 168.439 157.103 168.271 156.679 167.959C156.255 167.646 155.943 167.205 155.79 166.701C155.636 166.198 155.649 165.658 155.827 165.162C156.005 164.666 156.338 164.241 156.777 163.949L177.896 149.824C178.435 149.482 179.087 149.365 179.712 149.497C180.338 149.63 180.886 150.001 181.241 150.533C181.596 151.064 181.729 151.713 181.612 152.341C181.495 152.969 181.136 153.526 180.614 153.894L159.502 168.02C159.1 168.29 158.627 168.434 158.143 168.436Z" fill="white"/>
<path d="M177.718 324C209.888 324 235.967 320.918 235.967 317.116C235.967 313.315 209.888 310.233 177.718 310.233C145.549 310.233 119.47 313.315 119.47 317.116C119.47 320.918 145.549 324 177.718 324Z" fill="#36689E"/>
<path opacity="0.5" d="M177.718 324C209.888 324 235.967 320.918 235.967 317.116C235.967 313.315 209.888 310.233 177.718 310.233C145.549 310.233 119.47 313.315 119.47 317.116C119.47 320.918 145.549 324 177.718 324Z" fill="white"/>
<path d="M193.352 214.693C193.271 213.071 193.352 210.572 193.418 209.132C193.612 207.968 193.71 206.79 193.71 205.61C193.71 189.942 187.667 188.627 180.198 188.627C172.73 188.627 166.686 191.141 166.686 205.61C166.686 205.99 166.686 206.341 166.723 206.742C166.789 207.371 167.403 213.378 166.84 215.643C166.241 218.033 161.454 218.515 158.707 224.251C155.959 229.988 161.937 238.362 181.426 239.437C200.915 240.511 202.939 227.489 202.939 223.068C202.939 218.647 193.476 217.083 193.352 214.693Z" fill="#263238"/>
<path d="M166.211 206.801L166.694 206.75V206.684L166.211 206.801Z" fill="#263238"/>
<path d="M168.959 228.322C168.959 228.322 161.074 228.753 158.275 230.324C155.476 231.895 154.95 241.168 154.95 241.168L146.561 259.174C146.561 259.174 124.002 243.441 122.08 241.87C120.159 240.299 119.632 239.071 117.696 237.844C115.759 236.616 115.073 236.623 112.624 236.623C110.176 236.623 109.826 236.974 110.001 237.668C110.176 238.362 111.053 238.545 111.748 238.545C112.515 238.606 113.277 238.724 114.028 238.896L107.027 241.695C105.28 242.389 105.631 239.59 104.06 239.59C102.489 239.59 102.657 243.617 105.28 245.538C107.904 247.46 109.665 246.934 111.748 246.759C113.83 246.583 118.748 245.889 118.748 245.889C118.748 245.889 132.209 257.779 137.105 262.149C142.001 266.519 148.644 270.713 151.092 268.967C153.54 267.22 162.784 250.084 162.784 250.084L168.725 234.351C168.725 234.351 170.384 231.048 168.959 228.322Z" fill="white"/>
<mask id="mask0_14749_7564" style="mask-type:luminance" maskUnits="userSpaceOnUse" x="103" y="228" width="67" height="42">
<path d="M168.96 228.321C168.96 228.321 161.075 228.752 158.276 230.324C155.477 231.895 154.951 241.168 154.951 241.168L146.562 259.174C146.562 259.174 124.003 243.441 122.081 241.87C120.16 240.298 119.633 239.071 117.697 237.843C115.76 236.615 115.073 236.623 112.625 236.623C110.177 236.623 109.827 236.973 110.002 237.668C110.177 238.362 111.054 238.545 111.749 238.545C112.516 238.606 113.278 238.723 114.029 238.895L107.028 241.694C105.281 242.388 105.632 239.59 104.061 239.59C102.49 239.59 102.658 243.616 105.281 245.538C107.905 247.46 109.666 246.934 111.749 246.758C113.831 246.583 118.749 245.889 118.749 245.889C118.749 245.889 132.21 257.778 137.106 262.148C142.002 266.518 148.645 270.713 151.093 268.966C153.541 267.22 162.785 250.083 162.785 250.083L168.726 234.35C168.726 234.35 170.385 231.047 168.96 228.321Z" fill="white"/>
</mask>
<g mask="url(#mask0_14749_7564)">
<path opacity="0.1" d="M168.96 228.321C168.96 228.321 161.075 228.752 158.276 230.324C155.477 231.895 154.951 241.168 154.951 241.168L146.562 259.174C146.562 259.174 124.003 243.441 122.081 241.87C120.16 240.298 119.633 239.071 117.697 237.843C115.76 236.615 115.073 236.623 112.625 236.623C110.177 236.623 109.827 236.973 110.002 237.668C110.177 238.362 111.054 238.545 111.749 238.545C112.516 238.606 113.278 238.723 114.029 238.895L107.028 241.694C105.281 242.388 105.632 239.59 104.061 239.59C102.49 239.59 102.658 243.616 105.281 245.538C107.905 247.46 109.666 246.934 111.749 246.758C113.831 246.583 118.749 245.889 118.749 245.889C118.749 245.889 132.21 257.778 137.106 262.148C142.002 266.518 148.645 270.713 151.093 268.966C153.541 267.22 162.785 250.083 162.785 250.083L168.726 234.35C168.726 234.35 170.385 231.047 168.96 228.321Z" fill="black"/>
</g>
<path d="M168.959 228.322C168.959 228.322 161.074 228.753 158.275 230.324C155.476 231.895 154.95 241.168 154.95 241.168L146.561 259.174C146.561 259.174 124.002 243.441 122.08 241.87C120.159 240.299 119.632 239.071 117.696 237.844C115.759 236.616 115.073 236.623 112.624 236.623C110.176 236.623 109.826 236.974 110.001 237.668C110.176 238.362 111.053 238.545 111.748 238.545C112.515 238.606 113.277 238.724 114.028 238.896L107.027 241.695C105.28 242.389 105.631 239.59 104.06 239.59C102.489 239.59 102.657 243.617 105.28 245.538C107.904 247.46 109.665 246.934 111.748 246.759C113.83 246.583 118.748 245.889 118.748 245.889C118.748 245.889 132.209 257.779 137.105 262.149C142.001 266.519 148.644 270.713 151.092 268.967C153.54 267.22 162.784 250.084 162.784 250.084L168.725 234.351C168.725 234.351 170.384 231.048 168.959 228.322Z" stroke="#263238" stroke-miterlimit="10" stroke-linecap="round"/>
<path d="M105.785 245.926C105.785 245.926 102.379 243.163 104.213 240.46C104.666 239.787 105.675 240.803 105.967 242.652C106.259 244.501 107.18 245.217 107.655 245.348" fill="white"/>
<mask id="mask1_14749_7564" style="mask-type:luminance" maskUnits="userSpaceOnUse" x="103" y="240" width="5" height="6">
<path d="M105.784 245.926C105.784 245.926 102.378 243.163 104.212 240.46C104.665 239.787 105.674 240.803 105.966 242.652C106.259 244.501 107.179 245.217 107.654 245.348" fill="white"/>
</mask>
<g mask="url(#mask1_14749_7564)">
<path opacity="0.1" d="M105.784 245.926C105.784 245.926 102.378 243.163 104.212 240.46C104.665 239.787 105.674 240.803 105.966 242.652C106.259 244.501 107.179 245.217 107.654 245.348" fill="black"/>
</g>
<path d="M105.785 245.926C105.785 245.926 102.379 243.163 104.213 240.46C104.666 239.787 105.675 240.803 105.967 242.652C106.259 244.501 107.18 245.217 107.655 245.348" stroke="#263238" stroke-miterlimit="10" stroke-linecap="round"/>
<path d="M108.327 245.319C107.516 245.319 107.56 243.127 106.032 242.082C104.819 241.227 104.973 242.908 105.258 244.274C105.369 244.835 105.647 245.349 106.055 245.749C106.463 246.149 106.983 246.417 107.545 246.518C108.068 246.649 108.613 246.671 109.145 246.583" fill="white"/>
<mask id="mask2_14749_7564" style="mask-type:luminance" maskUnits="userSpaceOnUse" x="105" y="241" width="5" height="6">
<path d="M108.327 245.319C107.516 245.319 107.56 243.127 106.032 242.082C104.819 241.227 104.973 242.908 105.258 244.274C105.369 244.835 105.647 245.349 106.055 245.749C106.463 246.149 106.983 246.417 107.545 246.518C108.068 246.649 108.613 246.671 109.145 246.583" fill="white"/>
</mask>
<g mask="url(#mask2_14749_7564)">
<path opacity="0.1" d="M108.327 245.319C107.516 245.319 107.56 243.127 106.032 242.082C104.819 241.227 104.973 242.908 105.258 244.274C105.369 244.835 105.647 245.349 106.055 245.749C106.463 246.149 106.983 246.417 107.545 246.518C108.068 246.649 108.613 246.671 109.145 246.583" fill="black"/>
</g>
<path d="M108.327 245.319C107.516 245.319 107.56 243.127 106.032 242.082C104.819 241.227 104.973 242.908 105.258 244.274C105.369 244.835 105.647 245.349 106.055 245.749C106.463 246.149 106.983 246.417 107.545 246.518C108.068 246.649 108.613 246.671 109.145 246.583" stroke="#263238" stroke-miterlimit="10" stroke-linecap="round"/>
<path d="M118.587 241.746C118.587 241.746 117.44 240.935 115.211 241.68C112.982 242.425 110.351 245.663 109.745 245.392C109.177 245.067 108.746 244.548 108.532 243.931C108.188 243.258 107.523 242.287 107.07 243.068C106.062 244.778 108.809 246.722 108.809 246.722C108.809 246.722 109.189 247.044 111.316 246.788C113.442 246.532 118.243 245.86 118.243 245.86" fill="white"/>
<mask id="mask3_14749_7564" style="mask-type:luminance" maskUnits="userSpaceOnUse" x="106" y="241" width="13" height="6">
<path d="M118.588 241.746C118.588 241.746 117.441 240.935 115.212 241.68C112.983 242.425 110.352 245.663 109.746 245.392C109.178 245.067 108.747 244.548 108.533 243.931C108.189 243.258 107.524 242.287 107.071 243.068C106.063 244.778 108.81 246.722 108.81 246.722C108.81 246.722 109.19 247.044 111.317 246.788C113.443 246.532 118.244 245.86 118.244 245.86" fill="white"/>
</mask>
<g mask="url(#mask3_14749_7564)">
<path opacity="0.1" d="M118.588 241.746C118.588 241.746 117.441 240.935 115.212 241.68C112.983 242.425 110.352 245.663 109.746 245.392C109.178 245.067 108.747 244.548 108.533 243.931C108.189 243.258 107.524 242.287 107.071 243.068C106.063 244.778 108.81 246.722 108.81 246.722C108.81 246.722 109.19 247.044 111.317 246.788C113.443 246.532 118.244 245.86 118.244 245.86" fill="black"/>
</g>
<path d="M118.587 241.746C118.587 241.746 117.44 240.935 115.211 241.68C112.982 242.425 110.351 245.663 109.745 245.392C109.177 245.067 108.746 244.548 108.532 243.931C108.188 243.258 107.523 242.287 107.07 243.068C106.062 244.778 108.809 246.722 108.809 246.722C108.809 246.722 109.189 247.044 111.316 246.788C113.442 246.532 118.243 245.86 118.243 245.86" stroke="#263238" stroke-miterlimit="10" stroke-linecap="round"/>
<path d="M162.916 246.335L160.365 239.035" stroke="#263238" stroke-miterlimit="10" stroke-linecap="round"/>
<path d="M189.427 228.161C189.427 228.161 197.736 228.753 200.535 230.353C203.333 231.953 203.86 241.197 203.86 241.197L212.249 259.203C212.249 259.203 234.807 243.47 236.729 241.899C238.651 240.328 239.177 239.1 241.114 237.872C243.05 236.645 243.737 236.652 246.185 236.652C248.633 236.652 248.984 237.003 248.808 237.697C248.633 238.391 247.756 238.574 247.055 238.574C246.29 238.636 245.53 238.753 244.782 238.925L251.775 241.724C253.529 242.418 253.178 239.619 254.75 239.619C256.321 239.619 256.153 243.645 253.529 245.567C250.906 247.489 249.145 246.963 247.055 246.788C244.965 246.612 240.061 245.918 240.061 245.918C240.061 245.918 226.601 257.808 221.705 262.177C216.809 266.547 210.166 270.742 207.718 268.995C205.27 267.249 196.026 250.113 196.026 250.113L190.085 234.379C190.085 234.379 188.009 230.886 189.427 228.161Z" fill="white"/>
<mask id="mask4_14749_7564" style="mask-type:luminance" maskUnits="userSpaceOnUse" x="188" y="228" width="68" height="42">
<path d="M189.428 228.161C189.428 228.161 197.737 228.753 200.536 230.353C203.334 231.954 203.861 241.198 203.861 241.198L212.25 259.204C212.25 259.204 234.808 243.47 236.73 241.899C238.652 240.328 239.178 239.1 241.115 237.873C243.051 236.645 243.738 236.652 246.186 236.652C248.634 236.652 248.985 237.003 248.809 237.697C248.634 238.391 247.757 238.574 247.056 238.574C246.291 238.636 245.531 238.753 244.783 238.925L251.776 241.724C253.53 242.418 253.179 239.619 254.751 239.619C256.322 239.619 256.154 243.646 253.53 245.568C250.907 247.489 249.146 246.963 247.056 246.788C244.966 246.613 240.062 245.918 240.062 245.918C240.062 245.918 226.602 257.808 221.706 262.178C216.81 266.548 210.167 270.742 207.719 268.996C205.271 267.249 196.027 250.113 196.027 250.113L190.086 234.38C190.086 234.38 188.01 230.887 189.428 228.161Z" fill="white"/>
</mask>
<g mask="url(#mask4_14749_7564)">
<path opacity="0.1" d="M189.428 228.161C189.428 228.161 197.737 228.753 200.536 230.353C203.334 231.954 203.861 241.198 203.861 241.198L212.25 259.204C212.25 259.204 234.808 243.47 236.73 241.899C238.652 240.328 239.178 239.1 241.115 237.873C243.051 236.645 243.738 236.652 246.186 236.652C248.634 236.652 248.985 237.003 248.809 237.697C248.634 238.391 247.757 238.574 247.056 238.574C246.291 238.636 245.531 238.753 244.783 238.925L251.776 241.724C253.53 242.418 253.179 239.619 254.751 239.619C256.322 239.619 256.154 243.646 253.53 245.568C250.907 247.489 249.146 246.963 247.056 246.788C244.966 246.613 240.062 245.918 240.062 245.918C240.062 245.918 226.602 257.808 221.706 262.178C216.81 266.548 210.167 270.742 207.719 268.996C205.271 267.249 196.027 250.113 196.027 250.113L190.086 234.38C190.086 234.38 188.01 230.887 189.428 228.161Z" fill="black"/>
</g>
<path d="M189.427 228.161C189.427 228.161 197.736 228.753 200.535 230.353C203.333 231.953 203.86 241.197 203.86 241.197L212.249 259.203C212.249 259.203 234.807 243.47 236.729 241.899C238.651 240.328 239.177 239.1 241.114 237.872C243.05 236.645 243.737 236.652 246.185 236.652C248.633 236.652 248.984 237.003 248.808 237.697C248.633 238.391 247.756 238.574 247.055 238.574C246.29 238.636 245.53 238.753 244.782 238.925L251.775 241.724C253.529 242.418 253.178 239.619 254.75 239.619C256.321 239.619 256.153 243.645 253.529 245.567C250.906 247.489 249.145 246.963 247.055 246.788C244.965 246.612 240.061 245.918 240.061 245.918C240.061 245.918 226.601 257.808 221.705 262.177C216.809 266.547 210.166 270.742 207.718 268.995C205.27 267.249 196.026 250.113 196.026 250.113L190.085 234.379C190.085 234.379 188.009 230.886 189.427 228.161Z" stroke="#263238" stroke-miterlimit="10" stroke-linecap="round"/>
<path d="M196.025 244.808L198.057 238.867" stroke="#263238" stroke-miterlimit="10" stroke-linecap="round"/>
<path d="M253.865 244.932C253.865 244.932 255.327 240.803 254.596 240.46C253.865 240.116 253.135 240.803 252.842 242.652C252.55 244.501 251.629 245.217 251.154 245.349" fill="white"/>
<mask id="mask5_14749_7564" style="mask-type:luminance" maskUnits="userSpaceOnUse" x="251" y="240" width="4" height="6">
<path d="M253.864 244.932C253.864 244.932 255.326 240.803 254.595 240.46C253.864 240.116 253.134 240.803 252.841 242.652C252.549 244.501 251.628 245.217 251.153 245.348" fill="white"/>
</mask>
<g mask="url(#mask5_14749_7564)">
<path opacity="0.1" d="M254.866 244.04C254.866 244.04 255.341 240.803 254.595 240.46C253.85 240.116 253.134 240.803 252.841 242.652C252.549 244.501 251.628 245.217 251.153 245.348" fill="black"/>
</g>
<path d="M253.865 244.932C253.865 244.932 255.327 240.803 254.596 240.46C253.865 240.116 253.135 240.803 252.842 242.652C252.55 244.501 251.629 245.217 251.154 245.349" stroke="#263238" stroke-miterlimit="10" stroke-linecap="round"/>
<path d="M252.754 245.67C252.754 245.67 254.596 240.46 252.462 241.841C250.891 242.857 251.293 245.319 250.481 245.319" fill="white"/>
<mask id="mask6_14749_7564" style="mask-type:luminance" maskUnits="userSpaceOnUse" x="250" y="241" width="4" height="5">
<path d="M252.753 245.67C252.753 245.67 254.595 240.46 252.461 241.841C250.89 242.857 251.292 245.319 250.48 245.319" fill="white"/>
</mask>
<g mask="url(#mask6_14749_7564)">
<path opacity="0.1" d="M253.177 245.729C253.177 245.729 254.595 240.46 252.446 241.841C250.875 242.857 251.277 245.32 250.466 245.32" fill="black"/>
</g>
<path d="M252.754 245.67C252.754 245.67 254.596 240.46 252.462 241.841C250.891 242.857 251.293 245.319 250.481 245.319" stroke="#263238" stroke-miterlimit="10" stroke-linecap="round"/>
<path d="M240.208 241.746C240.208 241.746 241.355 240.935 243.584 241.68C245.813 242.425 248.444 245.663 249.05 245.392C249.618 245.067 250.048 244.548 250.263 243.931C250.599 243.258 251.213 242.857 251.615 243.66C252.017 244.464 250.804 246.839 250.804 246.839C250.804 246.839 250.073 247.358 248.283 246.942C246.261 246.455 244.208 246.116 242.137 245.926" fill="white"/>
<mask id="mask7_14749_7564" style="mask-type:luminance" maskUnits="userSpaceOnUse" x="240" y="241" width="12" height="7">
<path d="M240.208 241.746C240.208 241.746 241.355 240.935 243.584 241.68C245.813 242.425 248.444 245.663 249.05 245.392C249.618 245.067 250.048 244.548 250.263 243.931C250.599 243.258 251.213 242.857 251.615 243.66C252.017 244.464 250.804 246.839 250.804 246.839C250.804 246.839 250.073 247.358 248.283 246.942C246.261 246.455 244.208 246.116 242.137 245.926" fill="white"/>
</mask>
<g mask="url(#mask7_14749_7564)">
<path opacity="0.1" d="M240.208 241.746C240.208 241.746 241.355 240.935 243.584 241.68C245.813 242.425 248.444 245.663 249.05 245.392C249.618 245.067 250.048 244.548 250.263 243.931C250.599 243.258 251.213 242.857 251.615 243.66C252.017 244.464 250.804 246.839 250.804 246.839C250.804 246.839 250.073 247.358 248.283 246.942C246.493 246.525 241.655 245.239 240.551 245.239" fill="black"/>
</g>
<path d="M240.208 241.746C240.208 241.746 241.355 240.935 243.584 241.68C245.813 242.425 248.444 245.663 249.05 245.392C249.618 245.067 250.048 244.548 250.263 243.931C250.599 243.258 251.213 242.857 251.615 243.66C252.017 244.464 250.804 246.839 250.804 246.839C250.804 246.839 250.073 247.358 248.283 246.942C246.261 246.455 244.208 246.116 242.137 245.926" stroke="#263238" stroke-miterlimit="10" stroke-linecap="round"/>
<path d="M176.134 217.682C176.134 217.682 175.776 221.752 174.103 224.5C172.429 227.247 168.987 228.322 168.987 228.322L162.177 249.251L165.735 263.398C165.735 263.398 159.392 273.044 156.901 278.905C154.409 284.765 157.405 291.393 160.036 294.141C162.666 296.889 166.159 300.616 175.075 300.265C187.497 299.775 196.267 300.908 200.249 296.246C204.232 291.583 204.634 282.778 199.898 276.135C197.034 272.094 193.124 263.362 193.124 263.362L196.997 248.783L191.064 228.322C191.064 228.322 187.49 228.117 185.342 225.486C183.193 222.856 183.668 218.069 183.668 218.069L176.134 217.682Z" fill="white"/>
<mask id="mask8_14749_7564" style="mask-type:luminance" maskUnits="userSpaceOnUse" x="155" y="217" width="49" height="84">
<path d="M176.133 217.682C176.133 217.682 175.775 221.752 174.102 224.5C172.428 227.247 168.986 228.321 168.986 228.321L162.176 249.25L165.734 263.398C165.734 263.398 159.392 273.044 156.9 278.905C154.408 284.765 157.404 291.393 160.035 294.141C162.665 296.889 166.158 300.615 175.074 300.265C187.496 299.775 196.266 300.908 200.248 296.245C204.231 291.583 204.633 282.778 199.897 276.135C197.033 272.094 193.123 263.361 193.123 263.361L196.996 248.783L191.063 228.321C191.063 228.321 187.489 228.117 185.341 225.486C183.192 222.855 183.667 218.069 183.667 218.069L176.133 217.682Z" fill="white"/>
</mask>
<g mask="url(#mask8_14749_7564)">
<path opacity="0.1" d="M176.133 217.682C176.133 217.682 175.775 221.752 174.102 224.5C172.428 227.247 168.986 228.321 168.986 228.321L162.176 249.25L165.734 263.398C165.734 263.398 159.392 273.044 156.9 278.905C154.408 284.765 157.404 291.393 160.035 294.141C162.665 296.889 166.158 300.615 175.074 300.265C187.496 299.775 196.266 300.908 200.248 296.245C204.231 291.583 204.633 282.778 199.897 276.135C197.033 272.094 193.123 263.361 193.123 263.361L196.996 248.783L191.063 228.321C191.063 228.321 187.489 228.117 185.341 225.486C183.192 222.855 183.667 218.069 183.667 218.069L176.133 217.682Z" fill="black"/>
</g>
<path d="M176.134 217.682C176.134 217.682 175.776 221.752 174.103 224.5C172.429 227.247 168.987 228.322 168.987 228.322L162.177 249.251L165.735 263.398C165.735 263.398 159.392 273.044 156.901 278.905C154.409 284.765 157.405 291.393 160.036 294.141C162.666 296.889 166.159 300.616 175.075 300.265C187.497 299.775 196.267 300.908 200.249 296.246C204.232 291.583 204.634 282.778 199.898 276.135C197.034 272.094 193.124 263.362 193.124 263.362L196.997 248.783L191.064 228.322C191.064 228.322 187.49 228.117 185.342 225.486C183.193 222.856 183.668 218.069 183.668 218.069L176.134 217.682Z" stroke="#263238" stroke-miterlimit="10" stroke-linecap="round"/>
<path d="M196.998 248.783L191.065 228.322C190.47 228.28 189.88 228.182 189.303 228.029C189.99 232.787 189.172 235.169 189.172 235.169C189.054 236.213 188.688 237.213 188.105 238.087C187.521 238.96 186.737 239.681 185.818 240.189C182.595 242.104 176.493 242.462 172.664 239.356C169.741 237.01 170.289 230.587 170.72 227.569C170.156 227.871 169.567 228.123 168.959 228.322L162.148 249.251L165.736 263.398H193.111L196.998 248.783Z" fill="#263238" stroke="#263238" stroke-miterlimit="10" stroke-linecap="round"/>
<path d="M170.339 208.189C170.339 208.189 168.147 205.325 167.372 207.458C166.598 209.592 170.449 211.485 170.449 211.485L170.339 208.189Z" fill="white"/>
<mask id="mask9_14749_7564" style="mask-type:luminance" maskUnits="userSpaceOnUse" x="167" y="206" width="4" height="6">
<path d="M170.34 208.189C170.34 208.189 168.148 205.324 167.373 207.458C166.599 209.592 170.45 211.485 170.45 211.485L170.34 208.189Z" fill="white"/>
</mask>
<g mask="url(#mask9_14749_7564)">
<path opacity="0.1" d="M170.34 208.189C170.34 208.189 168.148 205.324 167.373 207.458C166.599 209.592 170.45 211.485 170.45 211.485L170.34 208.189Z" fill="black"/>
</g>
<path d="M170.339 208.189C170.339 208.189 168.147 205.325 167.372 207.458C166.598 209.592 170.449 211.485 170.449 211.485L170.339 208.189Z" stroke="#263238" stroke-miterlimit="10" stroke-linecap="round"/>
<path d="M189.726 208.189C189.726 208.189 191.955 205.325 192.693 207.458C193.431 209.592 189.624 211.485 189.624 211.485L189.726 208.189Z" fill="white"/>
<mask id="mask10_14749_7564" style="mask-type:luminance" maskUnits="userSpaceOnUse" x="189" y="206" width="4" height="6">
<path d="M189.726 208.189C189.726 208.189 191.955 205.324 192.693 207.458C193.431 209.592 189.624 211.485 189.624 211.485L189.726 208.189Z" fill="white"/>
</mask>
<g mask="url(#mask10_14749_7564)">
<path opacity="0.1" d="M189.726 208.189C189.726 208.189 191.955 205.324 192.693 207.458C193.431 209.592 189.624 211.485 189.624 211.485L189.726 208.189Z" fill="black"/>
</g>
<path d="M189.726 208.189C189.726 208.189 191.955 205.325 192.693 207.458C193.431 209.592 189.624 211.485 189.624 211.485L189.726 208.189Z" stroke="#263238" stroke-miterlimit="10" stroke-linecap="round"/>
<path d="M180.132 220.539C177.582 220.539 175.136 219.526 173.332 217.722C171.529 215.919 170.516 213.473 170.516 210.922V196.168C170.515 195.697 170.607 195.231 170.786 194.796C170.966 194.36 171.229 193.965 171.562 193.632C171.894 193.298 172.289 193.034 172.724 192.853C173.159 192.673 173.626 192.58 174.096 192.58H186.132C186.609 192.571 187.082 192.658 187.525 192.834C187.968 193.011 188.371 193.274 188.712 193.608C189.052 193.942 189.322 194.34 189.506 194.78C189.691 195.219 189.786 195.691 189.786 196.168V210.944C189.782 212.208 189.529 213.459 189.042 214.625C188.555 215.791 187.843 216.85 186.946 217.741C186.05 218.632 184.987 219.338 183.818 219.818C182.649 220.298 181.396 220.543 180.132 220.539Z" fill="white"/>
<mask id="mask11_14749_7564" style="mask-type:luminance" maskUnits="userSpaceOnUse" x="170" y="192" width="20" height="29">
<path d="M180.131 220.539C177.581 220.539 175.135 219.526 173.331 217.722C171.528 215.919 170.515 213.473 170.515 210.922V196.168C170.514 195.697 170.606 195.231 170.785 194.796C170.965 194.36 171.228 193.965 171.561 193.632C171.893 193.298 172.288 193.034 172.723 192.853C173.158 192.673 173.625 192.58 174.095 192.58H186.131C186.608 192.571 187.081 192.658 187.524 192.834C187.967 193.011 188.371 193.274 188.711 193.608C189.051 193.942 189.321 194.34 189.505 194.78C189.69 195.219 189.785 195.691 189.785 196.168V210.944C189.781 212.208 189.528 213.459 189.041 214.625C188.554 215.791 187.842 216.85 186.945 217.741C186.049 218.632 184.986 219.338 183.817 219.818C182.648 220.298 181.395 220.543 180.131 220.539Z" fill="white"/>
</mask>
<g mask="url(#mask11_14749_7564)">
<path opacity="0.1" d="M180.131 220.539C177.581 220.539 175.135 219.526 173.331 217.722C171.528 215.919 170.515 213.473 170.515 210.922V196.168C170.514 195.697 170.606 195.231 170.785 194.796C170.965 194.36 171.228 193.965 171.561 193.632C171.893 193.298 172.288 193.034 172.723 192.853C173.158 192.673 173.625 192.58 174.095 192.58H186.131C186.608 192.571 187.081 192.658 187.524 192.834C187.967 193.011 188.371 193.274 188.711 193.608C189.051 193.942 189.321 194.34 189.505 194.78C189.69 195.219 189.785 195.691 189.785 196.168V210.944C189.781 212.208 189.528 213.459 189.041 214.625C188.554 215.791 187.842 216.85 186.945 217.741C186.049 218.632 184.986 219.338 183.817 219.818C182.648 220.298 181.395 220.543 180.131 220.539Z" fill="black"/>
</g>
<path d="M180.132 220.539C177.582 220.539 175.136 219.526 173.332 217.722C171.529 215.919 170.516 213.473 170.516 210.922V196.168C170.515 195.697 170.607 195.231 170.786 194.796C170.966 194.36 171.229 193.965 171.562 193.632C171.894 193.298 172.289 193.034 172.724 192.853C173.159 192.673 173.626 192.58 174.096 192.58H186.132C186.609 192.571 187.082 192.658 187.525 192.834C187.968 193.011 188.371 193.274 188.712 193.608C189.052 193.942 189.322 194.34 189.506 194.78C189.691 195.219 189.786 195.691 189.786 196.168V210.944C189.782 212.208 189.529 213.459 189.042 214.625C188.555 215.791 187.843 216.85 186.946 217.741C186.05 218.632 184.987 219.338 183.818 219.818C182.649 220.298 181.396 220.543 180.132 220.539Z" stroke="#263238" stroke-miterlimit="10" stroke-linecap="round"/>
<path d="M172.978 204.375C173.637 204.812 174.411 205.045 175.203 205.045C175.994 205.045 176.768 204.812 177.428 204.375" stroke="#263238" stroke-miterlimit="10" stroke-linecap="round"/>
<path d="M182.945 204.375C183.604 204.812 184.376 205.046 185.167 205.046C185.957 205.046 186.73 204.812 187.388 204.375" stroke="#263238" stroke-miterlimit="10" stroke-linecap="round"/>
<path d="M181.037 202.789L181.673 208.927H179.13" stroke="#263238" stroke-miterlimit="10" stroke-linecap="round"/>
<path d="M179.233 212.42H181.776" stroke="#263238" stroke-miterlimit="10" stroke-linecap="round"/>
<path d="M180.227 192.558H174.096C173.626 192.558 173.159 192.651 172.724 192.832C172.289 193.012 171.894 193.276 171.562 193.61C171.229 193.943 170.966 194.339 170.786 194.774C170.607 195.209 170.515 195.676 170.516 196.146V203.454C174.44 200.041 179.007 194.173 180.227 192.558Z" fill="#263238" stroke="#263238" stroke-miterlimit="10"/>
<path d="M189.785 203.732V196.168C189.785 195.217 189.407 194.304 188.734 193.631C188.061 192.958 187.149 192.58 186.197 192.58H180.709C181.973 196.585 186.862 201.284 189.785 203.732Z" fill="#263238" stroke="#263238" stroke-miterlimit="10"/>
<path d="M172.562 201.517C172.562 201.517 173.709 199.501 177.363 199.822" stroke="#263238" stroke-width="2" stroke-miterlimit="10" stroke-linecap="round"/>
<path d="M182.2 199.822C183.172 199.417 184.255 199.365 185.261 199.674C186.268 199.984 187.134 200.636 187.71 201.518" stroke="#263238" stroke-width="2" stroke-miterlimit="10" stroke-linecap="round"/>
<path d="M156.901 278.905C154.387 284.751 157.405 291.393 160.036 294.141C162.667 296.889 166.16 300.615 175.075 300.265C187.498 299.775 196.267 300.908 200.25 296.246C204.232 291.583 204.634 282.778 199.899 276.135C198.828 274.563 197.852 272.928 196.976 271.239H160.884C159.412 273.717 158.083 276.276 156.901 278.905Z" fill="#263238" stroke="#263238" stroke-miterlimit="10" stroke-linecap="round"/>
<path d="M176.456 290.765C170.164 284.239 158.742 280.973 153.144 280.038C147.547 279.102 137.294 273.461 137.294 273.461C137.294 273.461 131.229 273.256 131.697 280.483C132.164 287.711 149.644 296.107 156.411 299.834C159.45 301.549 162.857 302.51 166.344 302.637C169.832 302.764 173.299 302.054 176.456 300.565" fill="#263238"/>
<path d="M176.456 290.765C170.164 284.239 158.742 280.973 153.144 280.038C147.547 279.102 137.294 273.461 137.294 273.461C137.294 273.461 131.229 273.256 131.697 280.483C132.164 287.711 149.644 296.107 156.411 299.834C159.45 301.549 162.857 302.51 166.344 302.637C169.832 302.764 173.299 302.054 176.456 300.565" stroke="#263238" stroke-miterlimit="10" stroke-linecap="round"/>
<path d="M180.395 290.999C186.686 284.473 198.108 281.207 203.706 280.271C209.303 279.336 218.007 274.571 218.007 274.571C218.007 274.571 225.621 273.512 225.153 280.739C224.686 287.966 207.206 296.355 200.439 300.089C197.399 301.802 193.993 302.763 190.506 302.89C187.018 303.017 183.551 302.307 180.395 300.82" fill="#263238"/>
<path d="M180.395 290.999C186.686 284.473 198.108 281.207 203.706 280.271C209.303 279.336 218.007 274.571 218.007 274.571C218.007 274.571 225.621 273.512 225.153 280.739C224.686 287.966 207.206 296.355 200.439 300.089C197.399 301.802 193.993 302.763 190.506 302.89C187.018 303.017 183.551 302.307 180.395 300.82" stroke="#263238" stroke-miterlimit="10" stroke-linecap="round"/>
<path d="M206.658 302.406C206.658 302.406 207.52 301.836 207.089 300.396C206.658 298.957 204.356 300.104 202.77 300.104C201.185 300.104 195.141 299.527 192.269 299.242C189.807 298.993 185.78 299.066 184.662 299.088C184.825 300.859 184.461 302.638 183.617 304.203L184.18 304.262C189.076 304.744 191.202 304.839 192.701 305.153C195.434 305.731 198.452 308.033 201.47 307.894C204.488 307.755 207.228 305.701 207.228 304.437C207.258 303.717 207.058 303.006 206.658 302.406Z" fill="white"/>
<mask id="mask12_14749_7564" style="mask-type:luminance" maskUnits="userSpaceOnUse" x="183" y="299" width="25" height="9">
<path d="M206.66 302.406C206.66 302.406 207.522 301.836 207.091 300.396C206.66 298.957 204.358 300.104 202.772 300.104C201.187 300.104 195.143 299.527 192.271 299.242C189.809 298.993 185.782 299.066 184.664 299.088C184.827 300.859 184.463 302.638 183.619 304.203L184.182 304.262C189.078 304.744 191.204 304.839 192.702 305.153C195.435 305.731 198.454 308.033 201.472 307.894C204.49 307.755 207.23 305.701 207.23 304.437C207.26 303.717 207.06 303.006 206.66 302.406Z" fill="white"/>
</mask>
<g mask="url(#mask12_14749_7564)">
<path opacity="0.1" d="M206.66 302.406C206.66 302.406 207.522 301.836 207.091 300.396C206.66 298.957 204.358 300.104 202.772 300.104C201.187 300.104 195.143 299.527 192.271 299.242C189.809 298.993 185.782 299.066 184.664 299.088C184.827 300.859 184.463 302.638 183.619 304.203L184.182 304.262C189.078 304.744 191.204 304.839 192.702 305.153C195.435 305.731 198.454 308.033 201.472 307.894C204.49 307.755 207.23 305.701 207.23 304.437C207.26 303.717 207.06 303.006 206.66 302.406Z" fill="black"/>
</g>
<path d="M206.658 302.406C206.658 302.406 207.52 301.836 207.089 300.396C206.658 298.957 204.356 300.104 202.77 300.104C201.185 300.104 195.141 299.527 192.269 299.242C189.807 298.993 185.78 299.066 184.662 299.088C184.825 300.859 184.461 302.638 183.617 304.203L184.18 304.262C189.076 304.744 191.202 304.839 192.701 305.153C195.434 305.731 198.452 308.033 201.47 307.894C204.488 307.755 207.228 305.701 207.228 304.437C207.258 303.717 207.058 303.006 206.658 302.406Z" stroke="#263238" stroke-miterlimit="10" stroke-linecap="round"/>
<path d="M206.658 302.406C205.819 302.548 204.961 302.548 204.122 302.406" stroke="#263238" stroke-miterlimit="10" stroke-linecap="round"/>
<path d="M207.235 304.423C206.119 304.509 204.997 304.509 203.881 304.423" stroke="#263238" stroke-miterlimit="10" stroke-linecap="round"/>
<path d="M203.319 305.709C204.106 306.148 205.021 306.298 205.906 306.133" stroke="#263238" stroke-miterlimit="10" stroke-linecap="round"/>
<path d="M202.207 306.652C202.952 307.01 203.786 307.139 204.604 307.024" stroke="#263238" stroke-miterlimit="10" stroke-linecap="round"/>
<path d="M183.617 304.189C184.461 302.624 184.824 300.844 184.662 299.073H184.348C184.348 299.073 173.27 296.793 164.062 291.167C154.854 285.54 143.192 276.924 137.294 273.468C131.397 270.011 125.778 275.192 126.333 280.666C126.888 286.139 131.368 289.011 139.428 292.358C147.488 295.705 162.169 300.849 169.937 302.428C173.964 303.224 179.152 303.772 183.617 304.189Z" fill="#263238" stroke="#263238" stroke-miterlimit="10" stroke-linecap="round"/>
<path d="M170.676 305.709C169.835 304.143 169.474 302.364 169.638 300.594H169.945C169.945 300.594 181.024 298.292 190.239 292.68C199.453 287.067 211.102 278.43 217.006 274.973C222.911 271.517 228.516 276.705 227.968 282.171C227.42 287.637 222.933 290.517 214.872 293.827C206.812 297.137 192.138 302.318 184.363 303.904C180.329 304.737 175.17 305.285 170.676 305.709Z" fill="#263238" stroke="#263238" stroke-miterlimit="10" stroke-linecap="round"/>
<path d="M169.638 300.608C169.638 300.608 158.976 301.025 155.592 300.791C152.209 300.557 149.644 298.92 148.716 299.739C147.788 300.557 148.95 301.836 148.95 301.836C148.95 301.836 148.599 303.816 149.534 304.869C150.47 305.921 151.727 306.849 155.709 308.018C159.692 309.188 163.748 307.536 165.94 306.951L170.653 305.709C170.653 305.709 169.572 304.036 169.638 300.608Z" fill="white"/>
<mask id="mask13_14749_7564" style="mask-type:luminance" maskUnits="userSpaceOnUse" x="148" y="299" width="23" height="10">
<path d="M169.639 300.608C169.639 300.608 158.978 301.025 155.594 300.791C152.211 300.557 149.646 298.92 148.718 299.739C147.79 300.557 148.952 301.836 148.952 301.836C148.952 301.836 148.601 303.816 149.536 304.869C150.472 305.921 151.729 306.849 155.711 308.018C159.694 309.188 163.75 307.536 165.942 306.951L170.655 305.709C170.655 305.709 169.574 304.036 169.639 300.608Z" fill="white"/>
</mask>
<g mask="url(#mask13_14749_7564)">
<path opacity="0.1" d="M169.639 300.608C169.639 300.608 158.978 301.025 155.594 300.791C152.211 300.557 149.646 298.92 148.718 299.739C147.79 300.557 148.952 301.836 148.952 301.836C148.952 301.836 148.601 303.816 149.536 304.869C150.472 305.921 151.729 306.849 155.711 308.018C159.694 309.188 163.75 307.536 165.942 306.951L170.655 305.709C170.655 305.709 169.574 304.036 169.639 300.608Z" fill="black"/>
</g>
<path d="M169.638 300.608C169.638 300.608 158.976 301.025 155.592 300.791C152.209 300.557 149.644 298.92 148.716 299.739C147.788 300.557 148.95 301.836 148.95 301.836C148.95 301.836 148.599 303.816 149.534 304.869C150.47 305.921 151.727 306.849 155.709 308.018C159.692 309.188 163.748 307.536 165.94 306.951L170.653 305.709C170.653 305.709 169.572 304.036 169.638 300.608Z" stroke="#263238" stroke-miterlimit="10" stroke-linecap="round"/>
<path d="M148.951 301.836C149.192 301.674 149.476 301.588 149.766 301.588C150.056 301.588 150.34 301.674 150.581 301.836C151.139 302.217 151.776 302.466 152.444 302.567" stroke="#263238" stroke-miterlimit="10" stroke-linecap="round"/>
<path d="M149.082 304.101C149.268 303.933 149.493 303.813 149.736 303.752C149.98 303.691 150.234 303.691 150.478 303.751C151.034 303.909 151.609 303.993 152.188 303.999" stroke="#263238" stroke-miterlimit="10" stroke-linecap="round"/>
<path d="M150.865 305.95C150.865 305.95 151.07 305.358 151.457 305.358C151.844 305.358 153.445 305.57 153.861 305.534" stroke="#263238" stroke-miterlimit="10" stroke-linecap="round"/>
<path d="M153.13 307.105C153.13 307.105 153.517 306.579 153.861 306.549C154.302 306.488 154.746 306.451 155.191 306.44" stroke="#263238" stroke-miterlimit="10" stroke-linecap="round"/>
<path d="M175.061 300.265C175.061 300.265 197.363 289.303 206.374 283.07" stroke="white" stroke-miterlimit="10" stroke-linecap="round"/>
<path d="M149.886 281.667C149.886 281.667 168.944 296.567 179.686 297.605" stroke="white" stroke-miterlimit="10" stroke-linecap="round"/>
<path d="M158.809 281.265C158.809 281.265 173.307 285.759 177.078 291.562" stroke="white" stroke-miterlimit="10" stroke-linecap="round"/>
<path d="M182.156 289.53C182.156 289.53 191.145 283.15 200.425 281.265" stroke="white" stroke-miterlimit="10" stroke-linecap="round"/>
</svg>
