<svg width="134" height="104" viewBox="0 0 134 104" fill="none" xmlns="http://www.w3.org/2000/svg">
<path d="M121.532 6.5543C121.532 6.5543 117.964 9.28317 117.471 11.3846C116.979 13.4859 117.613 15.7223 118.033 17.0539C118.452 18.3855 118.522 24.8246 114.604 27.6921C110.685 30.5596 108.934 33.4308 109.354 37.0024C109.773 40.574 115.092 44.4922 119.503 45.3933C123.914 46.2944 130.141 44.2733 132.589 39.0235C135.037 33.7737 131.75 27.984 129.93 24.7006C128.109 21.4172 128.252 18.3308 130.295 18.1921C132.338 18.0535 133.374 18.557 133.447 15.6712C133.52 12.7855 132.816 8.32369 129.105 6.08368C125.395 3.84367 121.532 6.5543 121.532 6.5543Z" fill="#2E353A" stroke="#2E353A" stroke-linecap="round" stroke-linejoin="round"/>
<path d="M112.746 41.7595C113.111 42.0039 116.394 43.3428 118.824 39.5706C121.254 35.7983 117.945 32.3216 118.583 28.9907" stroke="white" stroke-width="0.5" stroke-miterlimit="10"/>
<path d="M125.522 10.8957C125.522 10.8957 124.384 7.21825 126.85 8.41122C129.495 9.6881 131.593 15.7077 130.681 17.0758" stroke="white" stroke-width="0.5" stroke-miterlimit="10"/>
<path d="M124.844 10.4178C124.844 10.4178 123.476 7.77285 124.388 6.58717C125.3 5.4015 127.398 6.76959 128.492 7.59044" stroke="white" stroke-width="0.5" stroke-miterlimit="10"/>
<path d="M127.945 17.623C127.945 17.623 128.309 19.2647 127.215 22.5481C126.12 25.8316 124.114 29.571 126.12 33.0368C128.127 36.5026 129.678 38.874 127.397 42.3398" stroke="white" stroke-width="0.5" stroke-miterlimit="10"/>
<path d="M127.945 19.5386C128.024 21.6769 127.871 23.8176 127.489 25.923C126.85 29.5712 128.857 31.9425 130.954 34.2227C133.052 36.5028 132.505 38.4181 131.775 40.5159" stroke="white" stroke-width="0.5" stroke-miterlimit="10"/>
<path d="M124.753 10.9647C124.753 10.9647 120.466 11.3295 119.189 10.7823C117.912 10.2351 118.186 9.77905 118.186 9.77905" stroke="white" stroke-width="0.5" stroke-miterlimit="10"/>
<path d="M125.322 25.5361C125.322 25.5361 125.88 31.2055 126.596 34.4852C127.311 37.765 128.449 41.9057 128.164 43.0476C127.88 44.1895 121.597 53.8901 121.597 53.8901L119.744 52.606L123.597 41.0484L120.353 30.2132C120.353 30.2132 123.323 25.8608 125.322 25.5361Z" fill="white" stroke="#2E353A" stroke-linecap="round" stroke-linejoin="round"/>
<path d="M124.822 24.613C123.91 23.5624 121.951 20.8335 121.951 20.8335L118.872 17.1853L114.603 11.308C114.041 10.5382 112.152 10.8155 106.694 10.8884C101.236 10.9614 84.6695 7.80933 84.6695 7.80933L84.1113 11.4576C84.1113 11.4576 99.2733 14.741 103.122 15.1058C106.971 15.4706 110.543 15.9449 110.543 15.9449C110.017 16.9921 109.549 18.0676 109.142 19.1663C108.722 20.4249 103.823 27.1449 103.823 27.1449C103.823 27.1449 103.702 27.2179 103.494 27.3565C103.44 28.575 103.556 31.1616 105.377 32.526C106.785 33.5804 108.846 34.0255 110.335 34.2115C110.36 34.1276 110.382 34.0547 110.4 34.0036C110.612 33.4417 112.152 32.6027 112.991 32.5443C113.83 32.4859 116.42 32.6136 117.963 32.475C119.506 32.3363 120.342 30.235 120.342 30.235C120.342 30.235 123.742 26.9151 125.307 25.5579C125.21 25.2137 125.045 24.8925 124.822 24.613Z" fill="white" stroke="#2E353A" stroke-linecap="round" stroke-linejoin="round"/>
<path d="M112.48 16.7912L110.543 15.9338L111.951 18.1738" stroke="#2E353A" stroke-width="0.75" stroke-linecap="round" stroke-linejoin="round"/>
<path d="M107.595 29.5381C109.053 30.4426 110.778 30.8175 112.48 30.5997" stroke="#2E353A" stroke-width="0.75" stroke-linecap="round" stroke-linejoin="round"/>
<path d="M105.986 26.988C105.986 26.988 106.304 28.2649 108.325 29.115" stroke="#2E353A" stroke-width="0.75" stroke-linecap="round" stroke-linejoin="round"/>
<path d="M123.585 41.048C123.585 41.048 124.909 40.4789 125.971 41.9674" stroke="#2E353A" stroke-width="0.75" stroke-linecap="round" stroke-linejoin="round"/>
<path d="M123.954 31.1325L120.342 30.2131L123.527 32.7268" stroke="#2E353A" stroke-width="0.75" stroke-linecap="round" stroke-linejoin="round"/>
<path d="M114.074 12.6613C114.074 12.6613 112.268 15.8462 110.145 15.7404C107.259 15.5945 99.0947 13.1867 99.0947 12.3403C99.0947 11.4939 101.327 11.1729 101.327 11.1729" stroke="#2E353A" stroke-width="0.75" stroke-linecap="round" stroke-linejoin="round"/>
<path d="M120.342 15.3026C120.342 15.3026 118.883 14.9378 117.822 15.5835C116.76 16.2293 113.973 22.3036 113.973 22.3036C113.973 22.3036 114.181 22.5845 115.023 22.5845C115.866 22.5845 116.074 23.7045 116.074 24.7515C116.074 25.7986 116.001 26.2911 116.351 26.2108C116.702 26.1306 118.803 25.3717 119.222 25.6526C119.642 25.9336 118.661 27.3308 118.858 27.4767C119.055 27.6227 120.817 25.8642 121.379 23.9745C121.94 22.0847 122.499 19.2865 122.356 18.1665C122.214 17.0465 121.309 15.5799 120.342 15.3026Z" fill="#36689E" stroke="#2E353A" stroke-linecap="round" stroke-linejoin="round"/>
<path d="M121.531 21.1144C120.76 21.9744 119.943 22.7916 119.083 23.5624C117.47 25.0217 116.142 26.0833 116.212 25.3865C116.281 24.6897 117.89 20.9065 118.309 18.8197C118.729 16.7329 119.502 15.3174 120.341 15.3174C121.18 15.3174 123.001 19.5931 121.531 21.1144Z" fill="white" stroke="#2E353A" stroke-linecap="round" stroke-linejoin="round"/>
<path d="M120.692 12.0851C120.748 12.2555 120.839 12.4121 120.96 12.5448C121.081 12.6775 121.228 12.7831 121.393 12.8548C121.881 12.9935 125.522 10.8958 125.522 10.8958C125.522 10.8958 128.113 16.4228 127.689 17.2619C127.266 18.101 126.011 19.1553 124.61 20.1331C123.209 21.1108 120.623 21.8842 119.641 21.3224C118.66 20.7606 119.361 15.0255 119.361 15.0255C119.361 15.0255 118.591 14.1135 119.43 12.6432C120.269 11.173 120.692 12.0851 120.692 12.0851Z" fill="white" stroke="#2E353A" stroke-linecap="round" stroke-linejoin="round"/>
<path d="M126.555 17.7945C126.555 17.7945 126.617 17.3604 125.807 17.3604C124.997 17.3604 123.574 18.8488 123.574 18.8488" stroke="#2E353A" stroke-width="0.75" stroke-linecap="round" stroke-linejoin="round"/>
<path d="M123.016 18.973L122.582 18.5388" stroke="#2E353A" stroke-width="0.75" stroke-linecap="round" stroke-linejoin="round"/>
<path d="M122.403 19.7827C122.403 19.7827 121.287 19.5966 121.101 18.1665" stroke="#2E353A" stroke-width="0.75" stroke-linecap="round" stroke-linejoin="round"/>
<path d="M124.987 15.5397C124.987 15.5397 124.709 14.1789 123.527 13.9163" stroke="#2E353A" stroke-width="0.75" stroke-linecap="round" stroke-linejoin="round"/>
<path d="M123.582 16.2695C123.297 16.492 122.984 16.565 122.878 16.43C122.772 16.295 122.914 16.0068 123.195 15.7843C123.476 15.5618 123.793 15.4888 123.899 15.6238C124.005 15.7588 123.863 16.047 123.582 16.2695Z" fill="#2E353A"/>
<path d="M125.34 18.5678C125.106 18.7502 124.847 18.8122 124.76 18.6991C124.672 18.586 124.789 18.3343 125.022 18.1628C125.256 17.9913 125.515 17.922 125.602 18.0315C125.69 18.1409 125.573 18.3817 125.34 18.5678Z" fill="#2E353A"/>
<path d="M118.529 78.1362L122.108 83.1088C122.108 83.1088 122.108 84.0208 120.831 84.0208C119.554 84.0208 118.825 84.0208 118.095 83.1088C117.365 82.1967 117.365 81.6495 116.636 81.2846C115.906 80.9198 115.177 80.9198 115.541 78.9133C115.906 76.9068 118.529 78.1362 118.529 78.1362Z" fill="white" stroke="#2E353A" stroke-linecap="round" stroke-linejoin="round"/>
<path d="M122.093 83.2219C121.526 83.4941 120.89 83.5882 120.269 83.4919C118.978 83.2584 118.193 81.9669 117.715 81.4124C117.237 80.8579 116.654 80.8615 116.103 80.3982C115.841 80.1743 115.612 79.9138 115.424 79.6248C115.348 80.9235 115.979 80.9673 116.606 81.2847C117.336 81.6495 117.336 82.1968 118.066 83.1088C118.795 84.0209 119.525 84.0209 120.802 84.0209C121.827 84.0209 122.039 83.4663 122.093 83.2219Z" fill="white" stroke="#2E353A" stroke-linecap="round" stroke-linejoin="round"/>
<path d="M118.324 77.5049C117.594 75.316 116.555 62.2115 116.015 58.0635C114.92 49.6288 110.054 38.6805 110.054 38.6805L110.334 34.2005C108.846 34.0144 106.785 33.5693 105.376 32.515C103.552 31.1506 103.439 28.564 103.494 27.3455C102.571 27.9401 99.8458 29.7314 97.5219 31.6139C94.6544 33.9232 92.6916 42.1135 92.1334 44.7001C91.5753 47.2867 90.9441 54.9151 90.9441 54.9151C90.9441 54.9151 85.9023 56.8742 83.8739 59.6578C81.8454 62.4414 75.6836 68.7565 75.6836 68.7565L76.2454 70.8578C76.2454 70.8578 78.1352 69.5299 79.7441 68.2676C81.3529 67.0053 93.8846 60.008 94.7237 59.5119C95.5628 59.0157 96.5478 58.0526 97.6641 55.2434C98.0727 54.2183 98.6492 52.5401 99.2183 50.8218L101.163 44.7657L103.034 43.1715C104.88 48.1622 109.171 57.7826 109.78 59.158C110.51 60.807 111.064 68.1399 113.082 72.7257C115.099 77.3115 115.635 79.5114 115.635 79.5114C115.635 79.5114 119.057 79.7048 118.324 77.5049Z" fill="#2E353A" stroke="#2E353A" stroke-linecap="round" stroke-linejoin="round"/>
<path d="M110.214 35.0649L110.911 39.1327" stroke="white" stroke-width="0.5" stroke-miterlimit="10"/>
<path d="M11.5627 3.64648L1.02668 93.1374C1.0124 93.2663 1.03455 93.3966 1.09062 93.5135C1.14669 93.6304 1.23443 93.7293 1.34387 93.7988C1.45331 93.8683 1.58007 93.9058 1.70973 93.9069C1.83939 93.908 1.96676 93.8727 2.07737 93.8051L8.84847 89.6388C9.25036 89.3897 9.73327 89.3064 10.1954 89.4064C10.6575 89.5065 11.0627 89.7821 11.3256 90.1751L19.8333 102.823L23.383 49.6178L11.5627 3.64648Z" fill="#36689E" stroke="#2E353A" stroke-linecap="round" stroke-linejoin="round"/>
<path d="M11.4975 5.89769L1.97563 90.9013C1.95506 91.0848 1.98848 91.2703 2.07179 91.435C2.15511 91.5998 2.28469 91.7367 2.44466 91.8288C2.60463 91.921 2.78802 91.9645 2.97234 91.954C3.15667 91.9435 3.33392 91.8794 3.48235 91.7696L8.43299 88.1214C8.69045 87.9309 8.98408 87.7951 9.29588 87.7221C9.60768 87.6491 9.9311 87.6405 10.2463 87.6969C10.5616 87.7532 10.862 87.8733 11.1292 88.0498C11.3964 88.2263 11.6248 88.4555 11.8003 88.7233L17.5937 97.5666C17.6565 97.6649 17.7503 97.7393 17.8603 97.7779C17.9703 97.8166 18.0901 97.8173 18.2005 97.7799C18.311 97.7425 18.4057 97.6692 18.4696 97.5717C18.5336 97.4742 18.563 97.3581 18.5532 97.2419L11.7894 5.90134C11.7823 5.8681 11.7642 5.83825 11.7379 5.81669C11.7117 5.79513 11.6789 5.78315 11.6449 5.78273C11.6109 5.7823 11.5778 5.79346 11.551 5.81435C11.5242 5.83525 11.5054 5.86464 11.4975 5.89769Z" fill="#36689E" stroke="#2E353A" stroke-linecap="round" stroke-linejoin="round"/>
<path opacity="0.6" d="M11.6283 4.66474L1.96782 90.8942C1.94725 91.0776 1.98067 91.2631 2.06398 91.4279C2.1473 91.5926 2.27688 91.7295 2.43685 91.8217C2.59682 91.9139 2.78021 91.9574 2.96453 91.9469C3.14886 91.9363 3.32611 91.8722 3.47454 91.7624L8.42518 88.1142C8.68264 87.9238 8.97627 87.7879 9.28807 87.7149C9.59987 87.6419 9.92329 87.6333 10.2385 87.6897C10.5538 87.746 10.8542 87.8662 11.1214 88.0427C11.3886 88.2192 11.6169 88.4483 11.7925 88.7162L17.5859 97.5595C17.6486 97.6577 17.7425 97.7321 17.8525 97.7708C17.9625 97.8094 18.0823 97.8101 18.1927 97.7728C18.3032 97.7354 18.3979 97.6621 18.4618 97.5646C18.5257 97.4671 18.5551 97.351 18.5454 97.2348L11.6976 4.66474C11.6952 4.65744 11.6906 4.65108 11.6844 4.64658C11.6781 4.64207 11.6707 4.63965 11.663 4.63965C11.6553 4.63965 11.6478 4.64207 11.6416 4.64658C11.6354 4.65108 11.6307 4.65744 11.6283 4.66474Z" fill="black"/>
<path d="M9.86623 87.647C10.2495 87.6537 10.6253 87.7539 10.961 87.9389C11.2967 88.1239 11.5822 88.3882 11.7925 88.7086L17.5859 97.5519C17.6486 97.6502 17.7425 97.7246 17.8525 97.7632C17.9625 97.8019 18.0823 97.8026 18.1927 97.7652C18.3032 97.7278 18.3979 97.6545 18.4618 97.557C18.5257 97.4595 18.5551 97.3434 18.5454 97.2272L17.7172 86.0491L9.74219 87.6105C9.78458 87.6188 9.8261 87.631 9.86623 87.647Z" fill="#36689E" stroke="#2E353A" stroke-linecap="round" stroke-linejoin="round"/>
<path opacity="0.3" d="M9.86623 87.647C10.2495 87.6537 10.6253 87.7539 10.961 87.9389C11.2967 88.1239 11.5822 88.3882 11.7925 88.7086L17.5859 97.5519C17.6486 97.6502 17.7425 97.7246 17.8525 97.7632C17.9625 97.8019 18.0823 97.8026 18.1927 97.7652C18.3032 97.7278 18.3979 97.6545 18.4618 97.557C18.5257 97.4595 18.5551 97.3434 18.5454 97.2272L17.7172 86.0491L9.74219 87.6105C9.78458 87.6188 9.8261 87.631 9.86623 87.647Z" fill="black"/>
<path d="M11.7773 3.59204L19.829 102.824L113.716 84.9329L91.6516 7.54307L11.7773 3.59204Z" fill="#2E353A" stroke="#2E353A" stroke-linecap="round" stroke-linejoin="round"/>
<path d="M16.1309 5.7334L21.6616 97.5774L109.949 81.5253L91.339 10.1696L16.1309 5.7334Z" fill="#36689E" stroke="#2E353A" stroke-linecap="round" stroke-linejoin="round"/>
<path d="M21.5254 50.9314L25.7245 94.4657L105.942 79.8801L98.4883 47.1592L21.5254 50.9314Z" fill="white" stroke="#2E353A" stroke-linecap="round" stroke-linejoin="round"/>
<path d="M37.0093 92.2986L35.6777 78.3149" stroke="#2E353A" stroke-linecap="round" stroke-linejoin="round"/>
<path d="M49.2852 90.1353L48.001 78.4792" stroke="#2E353A" stroke-linecap="round" stroke-linejoin="round"/>
<path d="M61.3207 87.8041L59.8213 78.4792" stroke="#2E353A" stroke-linecap="round" stroke-linejoin="round"/>
<path d="M73.7215 85.6769L71.9375 74.5608" stroke="#2E353A" stroke-linecap="round" stroke-linejoin="round"/>
<path d="M84.6444 83.7067L83.123 72.8569" stroke="#2E353A" stroke-linecap="round" stroke-linejoin="round"/>
<path d="M95.1181 81.7697L92.8525 68.7236" stroke="#2E353A" stroke-linecap="round" stroke-linejoin="round"/>
<path d="M119.733 52.6057C119.733 52.6057 118.616 53.7294 118.543 54.3131C118.47 54.8968 119.054 56.6552 119.054 56.6552L120.813 56.9471L121.586 53.8899L119.733 52.6057Z" fill="white" stroke="#2E353A" stroke-linecap="round" stroke-linejoin="round"/>
<g style="mix-blend-mode:multiply" opacity="0.49">
<path d="M16.5762 31.1067C16.5762 31.1067 18.4295 57.7789 20.1332 67.505C21.8369 77.2312 24.9963 91.7876 24.9963 91.7876C24.9963 91.7876 79.7196 83.3164 106.716 71.8829L104.528 61.4271L16.5762 31.1067Z" fill="#36689E"/>
</g>
<path d="M14.1016 4.73364L90.9587 8.87437C90.9587 8.87437 98.4412 31.2927 105.887 43.952C113.333 56.6114 125.613 55.7869 125.613 55.7869C125.613 55.7869 97.4489 71.1861 75.5121 79.3836C52.6815 87.9095 32.8826 89.4418 32.8826 89.4418C32.8826 89.4418 14.8494 64.8089 14.1016 4.73364Z" fill="#36689E" stroke="#2E353A" stroke-linecap="round" stroke-linejoin="round"/>
<path d="M22.9018 0.742676C21.4753 0.742676 20.4429 2.00861 20.1182 3.99324L21.5775 4.07351C21.8036 2.92796 22.2524 2.20197 22.8981 2.20197C23.6496 2.20197 24.4851 3.40952 24.4851 5.14608C24.4851 6.88263 23.6496 8.09385 22.8981 8.09385C22.7046 8.09385 22.519 8.17072 22.3822 8.30755C22.2453 8.44439 22.1685 8.62998 22.1685 8.82349C22.1685 9.017 22.2453 9.20259 22.3822 9.33943C22.519 9.47626 22.7046 9.55313 22.8981 9.55313C24.6055 9.55313 25.9444 7.61593 25.9444 5.14608C25.9444 2.67623 24.6091 0.742676 22.9018 0.742676Z" fill="white" stroke="#2E353A" stroke-miterlimit="10"/>
<path d="M24.9956 6.32837C24.9257 6.58566 24.8354 6.83696 24.7256 7.0799" stroke="#2E353A" stroke-width="0.75" stroke-linecap="round" stroke-linejoin="round"/>
<path d="M20.8398 3.33663C20.8398 3.33663 21.3871 1.35929 23.0032 1.46874C24.2728 1.55629 25.3199 3.44242 25.1447 5.45989" stroke="#2E353A" stroke-width="0.75" stroke-linecap="round" stroke-linejoin="round"/>
<path d="M35.5756 1.3811C34.1491 1.3811 33.1167 2.64704 32.792 4.63167L34.2513 4.71193C34.4775 3.56639 34.9262 2.84039 35.5719 2.84039C36.3235 2.84039 37.1589 4.04795 37.1589 5.78451C37.1589 7.52106 36.3235 8.73227 35.5719 8.73227C35.3784 8.73227 35.1928 8.80915 35.056 8.94598C34.9192 9.08282 34.8423 9.2684 34.8423 9.46192C34.8423 9.65543 34.9192 9.84102 35.056 9.97785C35.1928 10.1147 35.3784 10.1916 35.5719 10.1916C37.2793 10.1916 38.6182 8.25435 38.6182 5.78451C38.6182 3.31466 37.2866 1.3811 35.5756 1.3811Z" fill="white" stroke="#2E353A" stroke-miterlimit="10"/>
<path d="M37.6733 6.96631C37.6034 7.2236 37.5131 7.4749 37.4033 7.71784" stroke="#2E353A" stroke-width="0.75" stroke-linecap="round" stroke-linejoin="round"/>
<path d="M33.5176 3.97505C33.5176 3.97505 34.0648 1.99772 35.681 2.10716C36.9506 2.19472 37.9976 4.08085 37.8225 6.09832" stroke="#2E353A" stroke-width="0.75" stroke-linecap="round" stroke-linejoin="round"/>
<path d="M48.2562 2.01978C46.8298 2.01978 45.7973 3.28571 45.4727 5.27034L46.9319 5.35061C47.1581 4.20506 47.6069 3.47907 48.2526 3.47907C49.0041 3.47907 49.8396 4.68662 49.8396 6.42318C49.8396 8.15973 49.0041 9.37094 48.2526 9.37094C48.0591 9.37094 47.8735 9.44782 47.7367 9.58465C47.5998 9.72149 47.523 9.90708 47.523 10.1006C47.523 10.2941 47.5998 10.4797 47.7367 10.6165C47.8735 10.7534 48.0591 10.8302 48.2526 10.8302C49.96 10.8302 51.2989 8.89303 51.2989 6.42318C51.2989 3.95333 49.9636 2.01978 48.2562 2.01978Z" fill="white" stroke="#2E353A" stroke-miterlimit="10"/>
<path d="M50.351 7.60498C50.2812 7.86227 50.1909 8.11357 50.0811 8.35651" stroke="#2E353A" stroke-width="0.75" stroke-linecap="round" stroke-linejoin="round"/>
<path d="M46.1953 4.61373C46.1953 4.61373 46.7425 2.63639 48.3587 2.74584C49.6283 2.83339 50.6753 4.71952 50.5002 6.73699" stroke="#2E353A" stroke-width="0.75" stroke-linecap="round" stroke-linejoin="round"/>
<path d="M60.934 2.6582C59.5075 2.6582 58.4751 3.92414 58.1504 5.90877L59.6097 5.98903C59.8359 4.84349 60.2846 4.11749 60.9303 4.11749C61.6819 4.11749 62.5173 5.32505 62.5173 7.06161C62.5173 8.79816 61.6819 10.0094 60.9303 10.0094C60.7368 10.0094 60.5512 10.0862 60.4144 10.2231C60.2776 10.3599 60.2007 10.5455 60.2007 10.739C60.2007 10.9325 60.2776 11.1181 60.4144 11.255C60.5512 11.3918 60.7368 11.4687 60.9303 11.4687C62.6377 11.4687 63.9766 9.53145 63.9766 7.06161C63.9766 4.59176 62.6414 2.6582 60.934 2.6582Z" fill="white" stroke="#2E353A" stroke-miterlimit="10"/>
<path d="M63.0288 8.24341C62.9589 8.5007 62.8686 8.752 62.7588 8.99494" stroke="#2E353A" stroke-width="0.75" stroke-linecap="round" stroke-linejoin="round"/>
<path d="M58.873 5.25167C58.873 5.25167 59.4203 3.27433 61.0364 3.38378C62.306 3.47133 63.3531 5.35746 63.178 7.37493" stroke="#2E353A" stroke-width="0.75" stroke-linecap="round" stroke-linejoin="round"/>
<path d="M73.8415 3.22363C72.415 3.22363 71.3826 4.48957 71.0615 6.47785L72.5208 6.55811C72.7507 5.41257 73.1994 4.68292 73.8415 4.68292C74.593 4.68292 75.4321 5.89413 75.4321 7.63069C75.4321 9.36724 74.593 10.5748 73.8415 10.5748C73.648 10.5748 73.4624 10.6517 73.3255 10.7885C73.1887 10.9253 73.1118 11.1109 73.1118 11.3044C73.1118 11.498 73.1887 11.6835 73.3255 11.8204C73.4624 11.9572 73.648 12.0341 73.8415 12.0341C75.5525 12.0341 76.8914 10.1005 76.8914 7.63069C76.8914 5.16084 75.5525 3.22363 73.8415 3.22363Z" fill="white" stroke="#2E353A" stroke-miterlimit="10"/>
<path d="M75.936 8.8125C75.8667 9.06879 75.7764 9.31893 75.666 9.56039" stroke="#2E353A" stroke-width="0.75" stroke-linecap="round" stroke-linejoin="round"/>
<path d="M71.7803 5.82123C71.7803 5.82123 72.3312 3.84024 73.9437 3.94969C75.2169 4.03724 76.2603 5.92703 76.0888 7.9445" stroke="#2E353A" stroke-width="0.75" stroke-linecap="round" stroke-linejoin="round"/>
<path d="M86.2419 3.90576C84.8154 3.90576 83.783 5.1717 83.4619 7.15633L84.9212 7.24024C85.151 6.0947 85.5998 5.36505 86.2419 5.36505C86.9934 5.36505 87.8325 6.57626 87.8325 8.30917C87.8325 10.0421 86.9934 11.2569 86.2419 11.2569C86.0483 11.2569 85.8628 11.3338 85.7259 11.4706C85.5891 11.6075 85.5122 11.7931 85.5122 11.9866C85.5122 12.1801 85.5891 12.3657 85.7259 12.5025C85.8628 12.6393 86.0483 12.7162 86.2419 12.7162C87.9529 12.7162 89.2918 10.779 89.2918 8.30917C89.2918 5.83932 87.9529 3.90576 86.2419 3.90576Z" fill="white" stroke="#2E353A" stroke-miterlimit="10"/>
<path d="M88.3354 9.4729C88.2667 9.73056 88.1764 9.98196 88.0654 10.2244" stroke="#2E353A" stroke-width="0.75" stroke-linecap="round" stroke-linejoin="round"/>
<path d="M84.1807 6.4848C84.1807 6.4848 84.7315 4.50381 86.3441 4.61326C87.6173 4.70082 88.6607 6.58695 88.4892 8.60442" stroke="#2E353A" stroke-width="0.75" stroke-linecap="round" stroke-linejoin="round"/>
<path d="M121.585 53.8865C121.585 53.8865 122.315 54.8861 122.315 55.3129C122.315 55.7398 121.315 56.4548 121.315 57.4508C121.315 58.4468 120.031 58.1804 119.889 57.4508C119.746 56.7211 120.173 55.7398 120.173 55.7398C120.173 55.7398 119.579 55.375 119.444 54.0908C119.309 52.8066 120.465 53.1714 120.465 53.1714L121.585 53.8865Z" fill="white" stroke="#2E353A" stroke-linecap="round" stroke-linejoin="round"/>
<path d="M103.344 44.0107C98.0582 35.0215 92.5056 20.8262 90.5319 15.602L21.8468 12.8184C21.803 63.5834 37.1693 84.557 37.1693 84.557C37.1693 84.557 54.6626 83.2036 74.8372 75.6663C94.2239 68.4246 117.346 56.2687 117.346 56.2687C117.346 56.2687 109.922 55.1998 103.344 44.0107Z" fill="white" stroke="#2E353A" stroke-linecap="round" stroke-linejoin="round"/>
<path d="M90.5318 15.602L21.8467 12.8184C21.8467 17.8128 21.989 22.5117 22.2516 26.937L94.7856 26.2584C92.9068 21.7821 91.3928 17.8602 90.5318 15.602Z" fill="#2E353A" stroke="#2E353A" stroke-linecap="round" stroke-linejoin="round"/>
<path d="M91.7471 30.7347L94.994 30.6216" stroke="#2E353A" stroke-width="3" stroke-linecap="round" stroke-linejoin="round"/>
<path d="M82.2031 31.0596L89.3135 30.8152" stroke="#2E353A" stroke-width="3" stroke-linecap="round" stroke-linejoin="round"/>
<path d="M70.6494 31.45L79.7882 31.1399" stroke="#2E353A" stroke-width="3" stroke-linecap="round" stroke-linejoin="round"/>
<path d="M58.8945 31.8476L68.6316 31.5193" stroke="#2E353A" stroke-width="3" stroke-linecap="round" stroke-linejoin="round"/>
<path d="M47.5303 32.2342L56.4575 31.9314" stroke="#2E353A" stroke-width="3" stroke-linecap="round" stroke-linejoin="round"/>
<path d="M35.5566 32.6426L44.4911 32.3362" stroke="#2E353A" stroke-width="3" stroke-linecap="round" stroke-linejoin="round"/>
<path d="M25.0176 33.0001L33.3319 32.7156" stroke="#2E353A" stroke-width="3" stroke-linecap="round" stroke-linejoin="round"/>
<path d="M23.6641 40.826L99.2297 36.2219" stroke="#2E353A" stroke-linecap="round" stroke-linejoin="round"/>
<path d="M35.6045 40.1763C35.6045 40.1763 36.8449 60.2707 50.0916 82.5759" stroke="#2E353A" stroke-linecap="round" stroke-linejoin="round"/>
<path d="M47.7969 39.3701C47.7969 39.3701 49.1941 62.3539 63.7177 79.1832" stroke="#2E353A" stroke-linecap="round" stroke-linejoin="round"/>
<path d="M58.8359 38.6914C58.8359 38.6914 59.5656 59.8511 75.8914 75.0569" stroke="#2E353A" stroke-linecap="round" stroke-linejoin="round"/>
<path d="M70.2812 38.199C70.2812 38.199 72.0835 61.7227 87.8839 70.0078" stroke="#2E353A" stroke-linecap="round" stroke-linejoin="round"/>
<path d="M82.2725 37.2539C82.2725 37.2539 83.542 55.0463 99.7037 64.7907" stroke="#2E353A" stroke-linecap="round" stroke-linejoin="round"/>
<path d="M91.7148 36.6775C91.7148 36.6775 96.0635 54.9186 108.23 60.8251" stroke="#2E353A" stroke-linecap="round" stroke-linejoin="round"/>
<path d="M25.3203 51.1903L102.502 42.7009" stroke="#2E353A" stroke-linecap="round" stroke-linejoin="round"/>
<path d="M27.334 60.271C27.334 60.271 43.813 59.6253 106.092 48.1479" stroke="#2E353A" stroke-linecap="round" stroke-linejoin="round"/>
<path d="M30.2412 69.8839C30.2412 69.8839 46.2934 71.708 109.181 51.6829" stroke="#2E353A" stroke-linecap="round" stroke-linejoin="round"/>
<path d="M33.7148 78.2711C33.7148 78.2711 47.0965 82.7037 112.83 54.5576" stroke="#2E353A" stroke-linecap="round" stroke-linejoin="round"/>
<path d="M51.5146 22.7489L26.7723 22.4169C26.5719 22.4139 26.3793 22.3383 26.2304 22.2041C26.0814 22.07 25.9862 21.8863 25.9624 21.6873L25.7508 19.688C25.7384 19.573 25.7506 19.4566 25.7865 19.3466C25.8224 19.2366 25.8813 19.1355 25.9593 19.05C26.0372 18.9644 26.1324 18.8964 26.2386 18.8505C26.3448 18.8045 26.4596 18.7816 26.5753 18.7833L51.0184 19.2065C51.199 19.2097 51.3736 19.2721 51.5153 19.3841C51.6571 19.4962 51.758 19.6517 51.8028 19.8267L52.2989 21.7274C52.33 21.8476 52.3332 21.9733 52.3084 22.0949C52.2836 22.2166 52.2315 22.331 52.1558 22.4294C52.0802 22.5279 51.9832 22.6078 51.8721 22.6632C51.761 22.7186 51.6387 22.7479 51.5146 22.7489Z" fill="white"/>
</svg>
