<svg width="40" height="40" viewBox="0 0 40 40" fill="none" xmlns="http://www.w3.org/2000/svg">
<path d="M28.3941 -0.000488281H11.6258C4.34216 -0.000488281 0 4.33951 0 11.6195V28.3595C0 35.6595 4.34216 39.9995 11.6258 39.9995H28.3741C35.6578 39.9995 39.9999 35.6595 39.9999 28.3795V11.6195C40.0199 4.33951 35.6778 -0.000488281 28.3941 -0.000488281ZM26.7333 24.5995C27.3136 25.1795 27.3136 26.1395 26.7333 26.7195C26.4332 27.0195 26.053 27.1595 25.6728 27.1595C25.2926 27.1595 24.9124 27.0195 24.6123 26.7195L20.01 22.1195L15.4077 26.7195C15.1075 27.0195 14.7273 27.1595 14.3471 27.1595C13.967 27.1595 13.5868 27.0195 13.2866 26.7195C12.7063 26.1395 12.7063 25.1795 13.2866 24.5995L17.8889 19.9995L13.2866 15.3995C12.7063 14.8195 12.7063 13.8595 13.2866 13.2795C13.8669 12.6995 14.8274 12.6995 15.4077 13.2795L20.01 17.8795L24.6123 13.2795C25.1926 12.6995 26.153 12.6995 26.7333 13.2795C27.3136 13.8595 27.3136 14.8195 26.7333 15.3995L22.131 19.9995L26.7333 24.5995Z" fill="#F30000"/>
</svg>
