<svg width="16" height="22" viewBox="0 0 16 22" fill="none" xmlns="http://www.w3.org/2000/svg">
<path d="M6.75 13.5L9.25 11L6.75 8.5" stroke="#36689E" stroke-width="1.5" stroke-linecap="round" stroke-linejoin="round"/>
<path d="M15 5L15 17C15 18.0609 14.5786 19.0783 13.8284 19.8284C13.0783 20.5786 12.0609 21 11 21L5 21C3.93913 21 2.92172 20.5786 2.17157 19.8284C1.42143 19.0783 0.999999 18.0609 0.999999 17L1 5C1 3.93913 1.42143 2.92172 2.17157 2.17157C2.92172 1.42143 3.93913 1 5 1L11 1C12.0609 1 13.0783 1.42143 13.8284 2.17157C14.5786 2.92172 15 3.93913 15 5Z" stroke="#36689E" stroke-width="1.5" stroke-linecap="round" stroke-linejoin="round"/>
</svg>
