<svg width="56" height="56" viewBox="0 0 56 56" fill="none" xmlns="http://www.w3.org/2000/svg">
<path d="M28.1167 44.3337L34.7667 37.742L28.1167 31.1503L25.6667 33.6003L28.175 36.1087C27.0861 36.1475 26.026 35.9725 24.9947 35.5837C23.9634 35.1948 23.0401 34.592 22.225 33.7753C21.4472 32.9975 20.8538 32.1031 20.4447 31.092C20.0356 30.0809 19.8318 29.0698 19.8334 28.0587C19.8334 27.3975 19.9212 26.7364 20.097 26.0753C20.2728 25.4142 20.5155 24.7725 20.825 24.1503L18.2584 21.5837C17.5972 22.5559 17.1111 23.5864 16.8 24.6753C16.4889 25.7642 16.3334 26.8725 16.3334 28.0003C16.3334 29.4781 16.625 30.9364 17.2084 32.3753C17.7917 33.8142 18.6472 35.0975 19.775 36.2253C20.9028 37.3531 22.1667 38.1993 23.5667 38.764C24.9667 39.3287 26.4056 39.6297 27.8834 39.667L25.6667 41.8837L28.1167 44.3337ZM37.7417 34.417C38.4028 33.4448 38.8889 32.4142 39.2 31.3253C39.5111 30.2364 39.6667 29.1281 39.6667 28.0003C39.6667 26.5225 39.3843 25.0541 38.8197 23.595C38.255 22.1359 37.4096 20.8432 36.2834 19.717C35.1556 18.5892 33.8816 17.7531 32.4614 17.2087C31.0411 16.6642 29.5929 16.392 28.1167 16.392L30.3334 14.117L27.8834 11.667L21.2334 18.2587L27.8834 24.8503L30.3334 22.4003L27.7667 19.8337C28.8167 19.8337 29.8861 20.0382 30.975 20.4473C32.0639 20.8564 32.9972 21.4491 33.775 22.2253C34.5528 23.0031 35.1462 23.8975 35.5554 24.9087C35.9645 25.9198 36.1682 26.9309 36.1667 27.942C36.1667 28.6031 36.0788 29.2642 35.903 29.9253C35.7272 30.5864 35.4846 31.2281 35.175 31.8503L37.7417 34.417ZM28 51.3337C24.7722 51.3337 21.7389 50.7208 18.9 49.495C16.0611 48.2692 13.5917 46.6071 11.4917 44.5087C9.39169 42.4087 7.72958 39.9392 6.50535 37.1003C5.28113 34.2614 4.66824 31.2281 4.66669 28.0003C4.66669 24.7725 5.27958 21.7392 6.50535 18.9003C7.73113 16.0614 9.39324 13.592 11.4917 11.492C13.5917 9.39199 16.0611 7.72988 18.9 6.50566C21.7389 5.28144 24.7722 4.66855 28 4.66699C31.2278 4.66699 34.2611 5.27988 37.1 6.50566C39.9389 7.73144 42.4084 9.39355 44.5084 11.492C46.6084 13.592 48.2712 16.0614 49.497 18.9003C50.7228 21.7392 51.3349 24.7725 51.3334 28.0003C51.3334 31.2281 50.7205 34.2614 49.4947 37.1003C48.2689 39.9392 46.6068 42.4087 44.5084 44.5087C42.4084 46.6087 39.9389 48.2715 37.1 49.4973C34.2611 50.7231 31.2278 51.3352 28 51.3337ZM28 46.667C33.2111 46.667 37.625 44.8587 41.2417 41.242C44.8583 37.6253 46.6667 33.2114 46.6667 28.0003C46.6667 22.7892 44.8583 18.3753 41.2417 14.7587C37.625 11.142 33.2111 9.33366 28 9.33366C22.7889 9.33366 18.375 11.142 14.7584 14.7587C11.1417 18.3753 9.33335 22.7892 9.33335 28.0003C9.33335 33.2114 11.1417 37.6253 14.7584 41.242C18.375 44.8587 22.7889 46.667 28 46.667Z" fill="#36689E"/>
</svg>
