<svg width="35" height="36" viewBox="0 0 35 36" fill="none" xmlns="http://www.w3.org/2000/svg">
<path d="M2.91699 18.0002C2.91699 12.5008 2.91699 9.75037 4.62616 8.04266C6.33387 6.3335 9.08428 6.3335 14.5837 6.3335H20.417C25.9164 6.3335 28.6668 6.3335 30.3745 8.04266C32.0837 9.75037 32.0837 12.5008 32.0837 18.0002V20.9168C32.0837 26.4162 32.0837 29.1666 30.3745 30.8743C28.6668 32.5835 25.9164 32.5835 20.417 32.5835H14.5837C9.08428 32.5835 6.33387 32.5835 4.62616 30.8743C2.91699 29.1666 2.91699 26.4162 2.91699 20.9168V18.0002Z" stroke="white" stroke-width="1.5"/>
<path opacity="0.5" d="M10.209 6.3335V4.146M24.7923 6.3335V4.146M3.64648 13.6252H31.3548" stroke="white" stroke-width="1.5" stroke-linecap="round"/>
<path d="M26.25 25.2917C26.25 25.6784 26.0964 26.0494 25.8229 26.3229C25.5494 26.5964 25.1784 26.75 24.7917 26.75C24.4049 26.75 24.034 26.5964 23.7605 26.3229C23.487 26.0494 23.3333 25.6784 23.3333 25.2917C23.3333 24.9049 23.487 24.534 23.7605 24.2605C24.034 23.987 24.4049 23.8333 24.7917 23.8333C25.1784 23.8333 25.5494 23.987 25.8229 24.2605C26.0964 24.534 26.25 24.9049 26.25 25.2917ZM26.25 19.4583C26.25 19.8451 26.0964 20.216 25.8229 20.4895C25.5494 20.763 25.1784 20.9167 24.7917 20.9167C24.4049 20.9167 24.034 20.763 23.7605 20.4895C23.487 20.216 23.3333 19.8451 23.3333 19.4583C23.3333 19.0716 23.487 18.7006 23.7605 18.4271C24.034 18.1536 24.4049 18 24.7917 18C25.1784 18 25.5494 18.1536 25.8229 18.4271C26.0964 18.7006 26.25 19.0716 26.25 19.4583ZM18.9583 25.2917C18.9583 25.6784 18.8047 26.0494 18.5312 26.3229C18.2577 26.5964 17.8868 26.75 17.5 26.75C17.1132 26.75 16.7423 26.5964 16.4688 26.3229C16.1953 26.0494 16.0417 25.6784 16.0417 25.2917C16.0417 24.9049 16.1953 24.534 16.4688 24.2605C16.7423 23.987 17.1132 23.8333 17.5 23.8333C17.8868 23.8333 18.2577 23.987 18.5312 24.2605C18.8047 24.534 18.9583 24.9049 18.9583 25.2917ZM18.9583 19.4583C18.9583 19.8451 18.8047 20.216 18.5312 20.4895C18.2577 20.763 17.8868 20.9167 17.5 20.9167C17.1132 20.9167 16.7423 20.763 16.4688 20.4895C16.1953 20.216 16.0417 19.8451 16.0417 19.4583C16.0417 19.0716 16.1953 18.7006 16.4688 18.4271C16.7423 18.1536 17.1132 18 17.5 18C17.8868 18 18.2577 18.1536 18.5312 18.4271C18.8047 18.7006 18.9583 19.0716 18.9583 19.4583ZM11.6667 25.2917C11.6667 25.6784 11.513 26.0494 11.2395 26.3229C10.966 26.5964 10.5951 26.75 10.2083 26.75C9.82156 26.75 9.45063 26.5964 9.17714 26.3229C8.90365 26.0494 8.75 25.6784 8.75 25.2917C8.75 24.9049 8.90365 24.534 9.17714 24.2605C9.45063 23.987 9.82156 23.8333 10.2083 23.8333C10.5951 23.8333 10.966 23.987 11.2395 24.2605C11.513 24.534 11.6667 24.9049 11.6667 25.2917ZM11.6667 19.4583C11.6667 19.8451 11.513 20.216 11.2395 20.4895C10.966 20.763 10.5951 20.9167 10.2083 20.9167C9.82156 20.9167 9.45063 20.763 9.17714 20.4895C8.90365 20.216 8.75 19.8451 8.75 19.4583C8.75 19.0716 8.90365 18.7006 9.17714 18.4271C9.45063 18.1536 9.82156 18 10.2083 18C10.5951 18 10.966 18.1536 11.2395 18.4271C11.513 18.7006 11.6667 19.0716 11.6667 19.4583Z" fill="white"/>
</svg>
