<svg width="46" height="36" viewBox="0 0 46 36" fill="none" xmlns="http://www.w3.org/2000/svg">
<path d="M21.875 25.2996L15.275 18.6996C15.175 18.5996 15.104 18.4913 15.062 18.3746C15.0207 18.2579 15 18.1329 15 17.9996C15 17.8663 15.0207 17.7413 15.062 17.6246C15.104 17.5079 15.175 17.3996 15.275 17.2996L21.875 10.6996C22.0583 10.5163 22.2873 10.4203 22.562 10.4116C22.8373 10.4036 23.075 10.4996 23.275 10.6996C23.475 10.8829 23.5793 11.1119 23.588 11.3866C23.596 11.6619 23.5 11.8996 23.3 12.0996L18.4 16.9996H29.575C29.8583 16.9996 30.096 17.0953 30.288 17.2866C30.4793 17.4786 30.575 17.7163 30.575 17.9996C30.575 18.2829 30.4793 18.5203 30.288 18.7116C30.096 18.9036 29.8583 18.9996 29.575 18.9996H18.4L23.3 23.8996C23.4833 24.0829 23.5793 24.3163 23.588 24.5996C23.596 24.8829 23.5 25.1163 23.3 25.2996C23.1167 25.4996 22.8833 25.5996 22.6 25.5996C22.3167 25.5996 22.075 25.4996 21.875 25.2996Z" fill="#486EAF"/>
<rect x="0.928611" y="0.928611" width="44.1428" height="34.1428" rx="3.71444" stroke="#36689E" stroke-width="1.85722"/>
</svg>
