<svg width="25" height="25" viewBox="0 0 25 25" fill="none" xmlns="http://www.w3.org/2000/svg">
<path d="M18.5086 0H15.2564C11.2536 0 8.75195 2.49998 8.75195 6.49996V11.5624H16.5697C17.0826 11.5624 17.5079 11.9874 17.5079 12.4999C17.5079 13.0124 17.0826 13.4374 16.5697 13.4374H8.75195V18.4999C8.75195 22.4999 11.2536 24.9998 15.2564 24.9998H18.4961C22.4988 24.9998 25.0005 22.4999 25.0005 18.4999V6.49996C25.013 2.49998 22.5113 0 18.5086 0Z" fill="#C84A14"/>
<path d="M3.19904 11.5613L5.7883 8.97382C5.97592 8.78632 6.06348 8.54882 6.06348 8.31132C6.06348 8.07382 5.97592 7.82383 5.7883 7.64883C5.42555 7.28633 4.82514 7.28633 4.4624 7.64883L0.272059 11.8362C-0.0906864 12.1987 -0.0906864 12.7987 0.272059 13.1612L4.4624 17.3487C4.82514 17.7112 5.42555 17.7112 5.7883 17.3487C6.15104 16.9862 6.15104 16.3862 5.7883 16.0237L3.19904 13.4362H8.7528V11.5613H3.19904Z" fill="#C84A14"/>
</svg>
