<svg width="40" height="40" viewBox="0 0 40 40" fill="none" xmlns="http://www.w3.org/2000/svg">
<path d="M28.3941 -0.000488281H11.6258C4.34216 -0.000488281 0 4.33951 0 11.6195V28.3595C0 35.6595 4.34216 39.9995 11.6258 39.9995H28.3741C35.6578 39.9995 39.9999 35.6595 39.9999 28.3795V11.6195C40.0199 4.33951 35.6778 -0.000488281 28.3941 -0.000488281ZM29.5747 15.3995L18.2291 26.7395C17.9489 27.0195 17.5688 27.1795 17.1686 27.1795C16.7684 27.1795 16.3882 27.0195 16.108 26.7395L10.4452 21.0795C9.86491 20.4995 9.86491 19.5395 10.4452 18.9595C11.0255 18.3795 11.986 18.3795 12.5663 18.9595L17.1686 23.5595L27.4537 13.2795C28.034 12.6995 28.9944 12.6995 29.5747 13.2795C30.155 13.8595 30.155 14.7995 29.5747 15.3995Z" fill="#4CAC56"/>
</svg>
