<svg width="40" height="40" viewBox="0 0 40 40" fill="none" xmlns="http://www.w3.org/2000/svg">
<path d="M29.6126 -0.000488281H24.4091C18.0047 -0.000488281 14.002 3.99951 14.002 10.3995V18.4995H26.5105C27.3311 18.4995 28.0115 19.1795 28.0115 19.9995C28.0115 20.8195 27.3311 21.4995 26.5105 21.4995H14.002V29.5995C14.002 35.9995 18.0047 39.9995 24.4091 39.9995H29.5926C35.997 39.9995 39.9997 35.9995 39.9997 29.5995V10.3995C40.0197 3.99951 36.017 -0.000488281 29.6126 -0.000488281Z" fill="#C84A14"/>
<path d="M5.1185 18.4992L9.26133 14.3593C9.56154 14.0593 9.70163 13.6793 9.70163 13.2993C9.70163 12.9193 9.56154 12.5193 9.26133 12.2393C8.68093 11.6593 7.72028 11.6593 7.13988 12.2393L0.435298 18.9392C-0.145099 19.5192 -0.145099 20.4792 0.435298 21.0592L7.13988 27.7592C7.72028 28.3392 8.68093 28.3392 9.26133 27.7592C9.84173 27.1792 9.84173 26.2192 9.26133 25.6392L5.1185 21.4992H14.0046V18.4992H5.1185Z" fill="#C84A14"/>
</svg>
