<svg width="40" height="40" viewBox="0 0 40 40" fill="none" xmlns="http://www.w3.org/2000/svg">
<path d="M25 21.6667H27.5V26.3667L31.5667 28.7167L30.3167 30.8834L25 27.8167V21.6667ZM31.6667 13.3334H8.33333V31.6667H16.1167C15.4 30.1501 15 28.4501 15 26.6667C15 23.5726 16.2292 20.6051 18.4171 18.4172C20.605 16.2292 23.5725 15.0001 26.6667 15.0001C28.45 15.0001 30.15 15.4001 31.6667 16.1167V13.3334ZM8.33333 35.0001C7.44928 35.0001 6.60143 34.6489 5.97631 34.0238C5.35119 33.3987 5 32.5508 5 31.6667V8.33342C5 6.48342 6.48333 5.00008 8.33333 5.00008H10V1.66675H13.3333V5.00008H26.6667V1.66675H30V5.00008H31.6667C32.5507 5.00008 33.3986 5.35127 34.0237 5.97639C34.6488 6.60151 35 7.44936 35 8.33342V18.5001C37.0667 20.6001 38.3333 23.4834 38.3333 26.6667C38.3333 29.7609 37.1042 32.7284 34.9162 34.9163C32.7283 37.1043 29.7609 38.3334 26.6667 38.3334C23.4833 38.3334 20.6 37.0667 18.5 35.0001H8.33333ZM26.6667 18.5834C24.5228 18.5834 22.4668 19.435 20.9509 20.951C19.435 22.4669 18.5833 24.5229 18.5833 26.6667C18.5833 31.1334 22.2 34.7501 26.6667 34.7501C27.7282 34.7501 28.7793 34.541 29.76 34.1348C30.7407 33.7285 31.6318 33.1331 32.3824 32.3825C33.1331 31.6319 33.7285 30.7408 34.1347 29.7601C34.5409 28.7794 34.75 27.7283 34.75 26.6667C34.75 22.2001 31.1333 18.5834 26.6667 18.5834Z" fill="#36689E"/>
</svg>
