<svg width="35" height="36" viewBox="0 0 35 36" fill="none" xmlns="http://www.w3.org/2000/svg">
<path d="M2.91699 7.79167C2.91699 7.01812 3.22428 6.27625 3.77126 5.72927C4.31824 5.18229 5.06011 4.875 5.83366 4.875H14.5837V31.125H5.83366C5.06011 31.125 4.31824 30.8177 3.77126 30.2707C3.22428 29.7237 2.91699 28.9819 2.91699 28.2083V7.79167ZM20.417 4.875H29.167C29.9405 4.875 30.6824 5.18229 31.2294 5.72927C31.7764 6.27625 32.0837 7.01812 32.0837 7.79167V15.0833H20.417V4.875ZM20.417 20.9167H32.0837V28.2083C32.0837 28.9819 31.7764 29.7237 31.2294 30.2707C30.6824 30.8177 29.9405 31.125 29.167 31.125H20.417V20.9167Z" stroke="white" stroke-width="2" stroke-linecap="round" stroke-linejoin="round"/>
</svg>
