<svg width="34" height="34" viewBox="0 0 34 34" fill="none" xmlns="http://www.w3.org/2000/svg">
<path d="M12.7542 8.49966C12.7542 7.37361 13.2016 6.29369 13.9978 5.49746C14.794 4.70122 15.874 4.25391 17 4.25391C18.126 4.25391 19.206 4.70122 20.0022 5.49746C20.7984 6.29369 21.2458 7.37361 21.2458 8.49966C21.2458 9.6257 20.7984 10.7056 20.0022 11.5019C19.206 12.2981 18.126 12.7454 17 12.7454C15.874 12.7454 14.794 12.2981 13.9978 11.5019C13.2016 10.7056 12.7542 9.6257 12.7542 8.49966ZM17 6.37891C16.7215 6.37891 16.4457 6.43376 16.1884 6.54034C15.9311 6.64692 15.6973 6.80313 15.5004 7.00006C15.3035 7.19699 15.1473 7.43078 15.0407 7.68808C14.9341 7.94538 14.8792 8.22116 14.8792 8.49966C14.8792 8.77816 14.9341 9.05393 15.0407 9.31123C15.1473 9.56853 15.3035 9.80232 15.5004 9.99925C15.6973 10.1962 15.9311 10.3524 16.1884 10.459C16.4457 10.5656 16.7215 10.6204 17 10.6204C17.5625 10.6204 18.1019 10.397 18.4996 9.99925C18.8973 9.60154 19.1208 9.06211 19.1208 8.49966C19.1208 7.9372 18.8973 7.39778 18.4996 7.00006C18.1019 6.60234 17.5625 6.37891 17 6.37891ZM23.375 9.56216C23.375 9.14357 23.4574 8.72908 23.6176 8.34235C23.7778 7.95563 24.0126 7.60424 24.3086 7.30825C24.6046 7.01227 24.956 6.77748 25.3427 6.61729C25.7294 6.4571 26.1439 6.37466 26.5625 6.37466C26.9811 6.37466 27.3956 6.4571 27.7823 6.61729C28.169 6.77748 28.5204 7.01227 28.8164 7.30825C29.1124 7.60424 29.3472 7.95563 29.5074 8.34235C29.6676 8.72908 29.75 9.14357 29.75 9.56216C29.75 10.4075 29.4142 11.2183 28.8164 11.8161C28.2186 12.4138 27.4079 12.7497 26.5625 12.7497C25.7171 12.7497 24.9064 12.4138 24.3086 11.8161C23.7108 11.2183 23.375 10.4075 23.375 9.56216ZM26.5625 8.49966C26.2807 8.49966 26.0105 8.6116 25.8112 8.81086C25.6119 9.01011 25.5 9.28036 25.5 9.56216C25.5 9.84395 25.6119 10.1142 25.8112 10.3135C26.0105 10.5127 26.2807 10.6247 26.5625 10.6247C26.8443 10.6247 27.1145 10.5127 27.3138 10.3135C27.5131 10.1142 27.625 9.84395 27.625 9.56216C27.625 9.28036 27.5131 9.01011 27.3138 8.81086C27.1145 8.6116 26.8443 8.49966 26.5625 8.49966ZM7.4375 6.37466C6.59212 6.37466 5.78137 6.71048 5.1836 7.30825C4.58583 7.90603 4.25 8.71678 4.25 9.56216C4.25 10.4075 4.58583 11.2183 5.1836 11.8161C5.78137 12.4138 6.59212 12.7497 7.4375 12.7497C8.28288 12.7497 9.09363 12.4138 9.6914 11.8161C10.2892 11.2183 10.625 10.4075 10.625 9.56216C10.625 8.71678 10.2892 7.90603 9.6914 7.30825C9.09363 6.71048 8.28288 6.37466 7.4375 6.37466ZM6.375 9.56216C6.375 9.28036 6.48694 9.01011 6.6862 8.81086C6.88546 8.6116 7.15571 8.49966 7.4375 8.49966C7.71929 8.49966 7.98954 8.6116 8.1888 8.81086C8.38806 9.01011 8.5 9.28036 8.5 9.56216C8.5 9.84395 8.38806 10.1142 8.1888 10.3135C7.98954 10.5127 7.71929 10.6247 7.4375 10.6247C7.15571 10.6247 6.88546 10.5127 6.6862 10.3135C6.48694 10.1142 6.375 9.84395 6.375 9.56216ZM9.0695 14.8747C8.69551 15.5203 8.49903 16.2535 8.5 16.9997H4.25V22.3122C4.24983 22.8407 4.3811 23.361 4.63201 23.8263C4.88291 24.2915 5.24556 24.687 5.68733 24.9772C6.12909 25.2674 6.63609 25.4433 7.16269 25.4888C7.68928 25.5344 8.21895 25.4483 8.704 25.2383C8.86125 25.9417 9.10775 26.6132 9.4265 27.24C8.61999 27.5657 7.74586 27.6883 6.88087 27.5972C6.01588 27.5061 5.1865 27.2039 4.46556 26.7174C3.74462 26.2308 3.15418 25.5746 2.74608 24.8066C2.33798 24.0385 2.12471 23.1819 2.125 22.3122V16.9997C2.125 16.4361 2.34888 15.8956 2.7474 15.4971C3.14591 15.0985 3.68642 14.8747 4.25 14.8747H9.0695ZM24.5735 27.24C25.38 27.5657 26.2541 27.6883 27.1191 27.5972C27.9841 27.5061 28.8135 27.2039 29.5344 26.7174C30.2554 26.2308 30.8458 25.5746 31.2539 24.8066C31.662 24.0385 31.8753 23.1819 31.875 22.3122V16.9997C31.875 16.4361 31.6511 15.8956 31.2526 15.4971C30.8541 15.0985 30.3136 14.8747 29.75 14.8747H24.9305C25.2917 15.4994 25.5 16.224 25.5 16.9997H29.75V22.3122C29.7502 22.8407 29.6189 23.361 29.368 23.8263C29.1171 24.2915 28.7544 24.687 28.3127 24.9772C27.8709 25.2674 27.3639 25.4433 26.8373 25.4888C26.3107 25.5344 25.7811 25.4483 25.296 25.2383C25.1366 25.9417 24.8923 26.6132 24.5735 27.24ZM12.75 14.8725C12.1864 14.8725 11.6459 15.0964 11.2474 15.4949C10.8489 15.8934 10.625 16.4339 10.625 16.9975V23.3747C10.625 25.0654 11.2966 26.6869 12.4922 27.8825C13.6877 29.078 15.3092 29.7497 17 29.7497C18.6908 29.7497 20.3123 29.078 21.5078 27.8825C22.7034 26.6869 23.375 25.0654 23.375 23.3747V16.9997C23.375 16.4361 23.1511 15.8956 22.7526 15.4971C22.3541 15.0985 21.8136 14.8747 21.25 14.8747H12.75V14.8725ZM12.75 16.9975H21.25V23.3747C21.25 24.5018 20.8022 25.5828 20.0052 26.3799C19.2082 27.1769 18.1272 27.6247 17 27.6247C15.8728 27.6247 14.7918 27.1769 13.9948 26.3799C13.1978 25.5828 12.75 24.5018 12.75 23.3747V16.9997V16.9975Z" fill="#36689E"/>
</svg>
