<svg width="28" height="28" viewBox="0 0 28 28" fill="none" xmlns="http://www.w3.org/2000/svg">
<path opacity="0.2" d="M23.2812 4.71875V18.2188H18.2188V9.78125H9.78125V4.71875H23.2812Z" fill="#36689E"/>
<path d="M23.2812 3.875H9.78125C9.55747 3.875 9.34286 3.9639 9.18463 4.12213C9.02639 4.28036 8.9375 4.49497 8.9375 4.71875V8.9375H4.71875C4.49497 8.9375 4.28036 9.02639 4.12213 9.18463C3.9639 9.34286 3.875 9.55747 3.875 9.78125V23.2812C3.875 23.505 3.9639 23.7196 4.12213 23.8779C4.28036 24.0361 4.49497 24.125 4.71875 24.125H18.2188C18.4425 24.125 18.6571 24.0361 18.8154 23.8779C18.9736 23.7196 19.0625 23.505 19.0625 23.2812V19.0625H23.2812C23.505 19.0625 23.7196 18.9736 23.8779 18.8154C24.0361 18.6571 24.125 18.4425 24.125 18.2188V4.71875C24.125 4.49497 24.0361 4.28036 23.8779 4.12213C23.7196 3.9639 23.505 3.875 23.2812 3.875ZM17.375 22.4375H5.5625V10.625H17.375V22.4375ZM22.4375 17.375H19.0625V9.78125C19.0625 9.55747 18.9736 9.34286 18.8154 9.18463C18.6571 9.02639 18.4425 8.9375 18.2188 8.9375H10.625V5.5625H22.4375V17.375Z" fill="#36689E"/>
</svg>
