<svg width="24" height="24" viewBox="0 0 24 24" fill="none" xmlns="http://www.w3.org/2000/svg">
<path d="M0.857422 23.1433H19.7146M11.1431 17.1433L6.00028 18.069L6.85742 12.8576L18.3946 1.35474C18.5539 1.19406 18.7435 1.06653 18.9524 0.979497C19.1613 0.892465 19.3854 0.847656 19.6117 0.847656C19.838 0.847656 20.0621 0.892465 20.271 0.979497C20.4799 1.06653 20.6695 1.19406 20.8288 1.35474L22.646 3.17188C22.8067 3.33125 22.9342 3.52085 23.0212 3.72975C23.1083 3.93865 23.1531 4.16272 23.1531 4.38902C23.1531 4.61533 23.1083 4.8394 23.0212 5.0483C22.9342 5.2572 22.8067 5.4468 22.646 5.60617L11.1431 17.1433Z" stroke="white" stroke-width="2" stroke-linecap="round" stroke-linejoin="round"/>
</svg>
