<svg width="34" height="34" viewBox="0 0 34 34" fill="none" xmlns="http://www.w3.org/2000/svg">
<path d="M28.9531 13.082C29.0992 13.082 29.2188 12.9625 29.2188 12.8164V10.8242C29.2188 10.6781 29.0992 10.5586 28.9531 10.5586H23.5078V5.04688C23.5078 4.90078 23.3883 4.78125 23.2422 4.78125H21.1172C20.9711 4.78125 20.8516 4.90078 20.8516 5.04688V10.5586H13.2812V5.04688C13.2812 4.90078 13.1617 4.78125 13.0156 4.78125H10.8906C10.7445 4.78125 10.625 4.90078 10.625 5.04688V10.5586H5.04688C4.90078 10.5586 4.78125 10.6781 4.78125 10.8242V12.8164C4.78125 12.9625 4.90078 13.082 5.04688 13.082H10.625V20.918H5.04688C4.90078 20.918 4.78125 21.0375 4.78125 21.1836V23.1758C4.78125 23.3219 4.90078 23.4414 5.04688 23.4414H10.625V28.9531C10.625 29.0992 10.7445 29.2188 10.8906 29.2188H13.0156C13.1617 29.2188 13.2812 29.0992 13.2812 28.9531V23.4414H20.8516V28.9531C20.8516 29.0992 20.9711 29.2188 21.1172 29.2188H23.2422C23.3883 29.2188 23.5078 29.0992 23.5078 28.9531V23.4414H28.9531C29.0992 23.4414 29.2188 23.3219 29.2188 23.1758V21.1836C29.2188 21.0375 29.0992 20.918 28.9531 20.918H23.5078V13.082H28.9531ZM20.8516 20.918H13.2812V13.082H20.8516V20.918Z" fill="#36689E"/>
</svg>
