<svg width="35" height="36" viewBox="0 0 35 36" fill="none" xmlns="http://www.w3.org/2000/svg">
<path d="M10.9368 5.60425C10.3567 5.60425 9.80029 5.83472 9.39005 6.24495C8.97982 6.65519 8.74935 7.21159 8.74935 7.79175C8.74935 8.37191 8.97982 8.92831 9.39005 9.33854C9.80029 9.74878 10.3567 9.97925 10.9368 9.97925C11.517 9.97925 12.0734 9.74878 12.4836 9.33854C12.8939 8.92831 13.1243 8.37191 13.1243 7.79175C13.1243 7.21159 12.8939 6.65519 12.4836 6.24495C12.0734 5.83472 11.517 5.60425 10.9368 5.60425ZM6.56185 7.79175C6.56185 6.63143 7.02279 5.51863 7.84326 4.69816C8.66373 3.87768 9.77653 3.41675 10.9368 3.41675C12.0972 3.41675 13.21 3.87768 14.0304 4.69816C14.8509 5.51863 15.3118 6.63143 15.3118 7.79175C15.3118 8.95207 14.8509 10.0649 14.0304 10.8853C13.21 11.7058 12.0972 12.1667 10.9368 12.1667C9.77653 12.1667 8.66373 11.7058 7.84326 10.8853C7.02279 10.0649 6.56185 8.95207 6.56185 7.79175ZM5.49435 13.6251C4.0681 13.6251 2.91602 14.7786 2.91602 16.2034V16.7284C2.91602 17.0303 2.91602 18.7817 3.93685 20.4836C4.73602 21.8107 6.09081 23.0022 8.27539 23.5359C8.57459 22.7405 9.11641 22.0594 9.82414 21.589C7.48643 21.3397 6.38102 20.3013 5.81372 19.3578C5.10789 18.1824 5.10352 16.9311 5.10352 16.724V16.2034C5.10352 15.9876 5.27852 15.8126 5.49435 15.8126H11.7098C11.8061 15.0414 12.0565 14.2975 12.4462 13.6251H5.49435ZM22.5525 13.6251C22.9331 14.2842 23.1898 15.0236 23.2875 15.8126H29.5043C29.7202 15.8126 29.8952 15.9876 29.8952 16.2034V16.724C29.8952 16.9311 29.8908 18.1824 29.185 19.3563C28.6177 20.3013 27.5123 21.3397 25.1746 21.589C25.8746 22.0557 26.4229 22.7353 26.7233 23.5359C28.9079 23.0022 30.2627 21.8107 31.0604 20.4836C32.0827 18.7817 32.0827 17.0317 32.0827 16.727V16.202C32.0827 14.7801 30.9291 13.6251 29.5043 13.6251H22.5525ZM21.8743 7.79175C21.8743 7.21159 22.1048 6.65519 22.5151 6.24495C22.9253 5.83472 23.4817 5.60425 24.0618 5.60425C24.642 5.60425 25.1984 5.83472 25.6086 6.24495C26.0189 6.65519 26.2493 7.21159 26.2493 7.79175C26.2493 8.37191 26.0189 8.92831 25.6086 9.33854C25.1984 9.74878 24.642 9.97925 24.0618 9.97925C23.4817 9.97925 22.9253 9.74878 22.5151 9.33854C22.1048 8.92831 21.8743 8.37191 21.8743 7.79175ZM24.0618 3.41675C22.9015 3.41675 21.7887 3.87768 20.9683 4.69816C20.1478 5.51863 19.6868 6.63143 19.6868 7.79175C19.6868 8.95207 20.1478 10.0649 20.9683 10.8853C21.7887 11.7058 22.9015 12.1667 24.0618 12.1667C25.2222 12.1667 26.335 11.7058 27.1554 10.8853C27.9759 10.0649 28.4368 8.95207 28.4368 7.79175C28.4368 6.63143 27.9759 5.51863 27.1554 4.69816C26.335 3.87768 25.2222 3.41675 24.0618 3.41675ZM17.4993 14.3542C17.2121 14.3542 16.9276 14.4108 16.6622 14.5208C16.3968 14.6307 16.1557 14.7918 15.9526 14.995C15.7494 15.1981 15.5883 15.4392 15.4784 15.7046C15.3684 15.97 15.3118 16.2545 15.3118 16.5417C15.3118 16.829 15.3684 17.1135 15.4784 17.3789C15.5883 17.6443 15.7494 17.8854 15.9526 18.0885C16.1557 18.2917 16.3968 18.4528 16.6622 18.5627C16.9276 18.6727 17.2121 18.7292 17.4993 18.7292C18.0795 18.7292 18.6359 18.4988 19.0461 18.0885C19.4564 17.6783 19.6868 17.1219 19.6868 16.5417C19.6868 15.9616 19.4564 15.4052 19.0461 14.995C18.6359 14.5847 18.0795 14.3542 17.4993 14.3542ZM13.1243 16.5417C13.1243 15.3814 13.5853 14.2686 14.4058 13.4482C15.2262 12.6277 16.339 12.1667 17.4993 12.1667C18.6597 12.1667 19.7725 12.6277 20.5929 13.4482C21.4134 14.2686 21.8743 15.3814 21.8743 16.5417C21.8743 17.7021 21.4134 18.8149 20.5929 19.6353C19.7725 20.4558 18.6597 20.9167 17.4993 20.9167C16.339 20.9167 15.2262 20.4558 14.4058 19.6353C13.5853 18.8149 13.1243 17.7021 13.1243 16.5417ZM9.47852 24.9534C9.47852 23.5272 10.6321 22.3751 12.0568 22.3751H22.9418C24.3666 22.3751 25.5202 23.5286 25.5202 24.9534V25.4784C25.5202 25.7803 25.5202 27.5317 24.4993 29.2336C23.4158 31.0332 21.31 32.5834 17.4993 32.5834C13.6887 32.5834 11.5814 31.0332 10.4993 29.2336C9.47852 27.5317 9.47852 25.7817 9.47852 25.477V24.9534ZM12.0568 24.5626C12.0055 24.5626 11.9547 24.5727 11.9073 24.5923C11.8599 24.612 11.8168 24.6408 11.7805 24.6771C11.7442 24.7133 11.7154 24.7564 11.6958 24.8038C11.6761 24.8513 11.666 24.9021 11.666 24.9534V25.474C11.666 25.6811 11.6704 26.9324 12.3762 28.1063C13.0266 29.1899 14.3843 30.3959 17.4993 30.3959C20.6143 30.3959 21.9721 29.1899 22.6225 28.1063C23.3283 26.9324 23.3327 25.6811 23.3327 25.474V24.9534C23.3327 24.8498 23.2915 24.7503 23.2182 24.6771C23.1449 24.6038 23.0455 24.5626 22.9418 24.5626H12.0568Z" fill="white"/>
</svg>
