<svg width="19" height="18" viewBox="0 0 19 18" fill="none" xmlns="http://www.w3.org/2000/svg">
<path fill-rule="evenodd" clip-rule="evenodd" d="M4.43359 2.25H14.9336L7.29559 9.888C7.17225 9.57199 6.97163 9.29195 6.71209 9.0735C6.54109 8.925 6.30184 8.79075 5.82484 8.5215L3.64009 7.2915C2.92834 6.89175 2.57284 6.6915 2.37859 6.369C2.18359 6.04575 2.18359 5.65575 2.18359 4.87725V4.35975C2.18359 3.36525 2.18359 2.86725 2.51359 2.55825C2.84209 2.25 3.37234 2.25 4.43359 2.25Z" fill="white"/>
<path opacity="0.5" d="M17.1837 4.878V4.3605C17.1837 3.366 17.1837 2.868 16.8537 2.559C16.5252 2.25 15.9949 2.25 14.9337 2.25L7.29492 9.888C7.33242 9.98475 7.36242 10.0852 7.38567 10.1902C7.43367 10.404 7.43367 10.6545 7.43367 11.1547V13.1572C7.43367 13.839 7.43367 14.1803 7.62267 14.4457C7.81167 14.712 8.14767 14.8433 8.81817 15.1058C10.2274 15.6563 10.9317 15.9315 11.4327 15.618C11.9337 15.3052 11.9337 14.589 11.9337 13.1565V11.154C11.9337 10.6545 11.9337 10.404 11.9809 10.1902C12.0753 9.75302 12.3128 9.35977 12.6559 9.07275C12.8262 8.925 13.0647 8.79075 13.5424 8.5215L15.7272 7.2915C16.4382 6.89175 16.7944 6.6915 16.9887 6.369C17.1837 6.0465 17.1837 5.6565 17.1837 4.878Z" fill="white"/>
</svg>
