<svg width="34" height="34" viewBox="0 0 34 34" fill="none" xmlns="http://www.w3.org/2000/svg">
<path d="M23.3751 3.1875V5.3125H27.1608L23.5749 8.93138C22.2931 7.96355 20.7312 7.43918 19.1251 7.4375C17.1382 7.4375 15.2831 8.22375 13.8785 9.62944C13.1842 10.3154 12.633 11.1323 12.2568 12.0329C11.8806 12.9335 11.6869 13.8998 11.687 14.8758C11.6871 15.8517 11.881 16.818 12.2573 17.7185C12.6337 18.619 13.1851 19.4358 13.8795 20.1216C14.8039 21.046 15.9047 21.7101 17.1329 22.0469C17.254 21.9544 17.39 21.8577 17.4984 21.7494C17.9438 21.2964 18.2638 20.7355 18.427 20.1216C17.2703 19.9788 16.1948 19.4525 15.3724 18.6267C14.3694 17.6248 13.8126 16.2945 13.8126 14.875C13.8126 13.4555 14.3704 12.1274 15.3745 11.1244C16.3754 10.1182 17.7056 9.5625 19.1251 9.5625C20.5446 9.5625 21.8738 10.1203 22.8757 11.1244C23.3715 11.615 23.7648 12.1991 24.033 12.843C24.3011 13.4868 24.4386 14.1775 24.4376 14.875C24.4376 15.7941 24.1773 16.6494 23.7406 17.4314C23.8426 17.9796 23.9064 18.5555 23.9064 19.125C23.9064 19.6541 23.8617 20.1769 23.7735 20.6869C23.986 20.5137 24.1752 20.3171 24.3717 20.1216C25.7764 18.7149 26.5626 16.8619 26.5626 14.875C26.5626 13.2494 26.0271 11.7045 25.0687 10.4253L28.6876 6.84038V10.625H30.8126V3.1875H23.3751ZM16.8673 11.9531C16.7462 12.0456 16.6102 12.1423 16.5018 12.2506C16.0428 12.7118 15.7432 13.2706 15.5732 13.8794C16.7313 14.0282 17.7885 14.5339 18.6279 15.3733C19.6319 16.3752 20.1897 17.7055 20.1897 19.1239C20.1897 20.5424 19.6319 21.8716 18.6279 22.8746C17.6249 23.8818 16.2946 24.4375 14.8751 24.4375C13.4556 24.4375 12.1264 23.8797 11.1245 22.8756C10.6283 22.3853 10.2347 21.8012 9.96659 21.1573C9.69844 20.5134 9.56112 19.8225 9.56261 19.125C9.56261 18.2059 9.82292 17.3506 10.2596 16.5686C10.1529 16.0103 10.0974 15.4434 10.0939 14.875C10.0939 14.3459 10.1385 13.8231 10.2267 13.3131C10.0142 13.4863 9.82611 13.6829 9.62848 13.8794C8.22598 15.283 7.43761 17.1381 7.43761 19.125C7.43761 20.7506 7.97311 22.2955 8.93148 23.5747L7.14011 25.3672L5.01511 23.2422L3.48511 24.7361L5.61011 26.8611L3.48511 28.9861L5.01511 30.5161L7.14011 28.3911L9.26511 30.5161L10.7579 28.9861L8.63292 26.8611L10.4264 25.0697C11.7069 26.039 13.2691 26.5632 14.8751 26.5625C16.862 26.5625 18.7171 25.7763 20.1217 24.3706C21.5264 22.967 22.3126 21.1119 22.3126 19.125C22.3126 17.1381 21.5264 15.2851 20.1207 13.8784C19.1963 12.954 18.0955 12.2899 16.8673 11.9531Z" fill="#36689E"/>
</svg>
