<?xml version="1.0" encoding="UTF-8"?>
<svg id="Layer_2" data-name="Layer 2" xmlns="http://www.w3.org/2000/svg" xmlns:xlink="http://www.w3.org/1999/xlink" viewBox="0 0 321.02 154.06">
  <defs>
    <style>
      .cls-1 {
        clip-path: url(#clippath);
      }

      .cls-2 {
        clip-rule: evenodd;
        fill: none;
      }

      .cls-2, .cls-3, .cls-4, .cls-5, .cls-6, .cls-7, .cls-8 {
        stroke-width: 0px;
      }

      .cls-3 {
        fill: #9563c4;
      }

      .cls-3, .cls-4, .cls-5, .cls-6, .cls-7 {
        fill-rule: evenodd;
      }

      .cls-4 {
        fill: #ce2e2e;
      }

      .cls-5 {
        fill: #64b9ff;
      }

      .cls-6 {
        fill: #f96d00;
      }

      .cls-7 {
        fill: #f9a501;
      }

      .cls-8 {
        fill: #f2f2f2;
      }
    </style>
    <clipPath id="clippath">
      <path class="cls-2" d="m1.26,41.67h83.28c2.51,0,4.14,2.71,3.01,4.99l-4.84,9.77-47.99,96.93c-.61,1.23-2.44.7-2.33-.67l6.8-83.16c.04-.54-.21-1.05-.66-1.34L.59,44.04c-1.07-.68-.6-2.37.66-2.37Z"/>
    </clipPath>
  </defs>
  <g id="Layer_1-2" data-name="Layer 1">
    <g>
      <g>
        <path class="cls-8" d="m238.3,46.83c-4.83-2.82-10.49-4.44-16.56-4.44-17.07,0-30.99,12.84-31.78,28.95h-.04v1.44h0v46.35l1.22,1.22h11.86l1.23-1.22v-47.45c.04-.55.11-1.1.22-1.63,1.41-7.6,8.63-13.4,17.29-13.4,5.02,0,9.54,1.94,12.74,5.05l1.59-.11,2.87-13.18-.63-1.59Z"/>
        <path class="cls-8" d="m308.23,51.92l-.08-.07c-7.48-6.45-15.53-9.72-23.94-9.72h-2.03c-8.74,0-17.04,3.51-24.67,10.45l-.08.08c-7.94,8.21-11.97,17.77-11.97,28.39v.94c0,10.68,4.05,20.28,12.05,28.54l.07.07c7.58,6.93,16.2,10.45,25.61,10.45,8.76,0,16.94-3.1,24.31-9.23l.08-.07c8.91-8.43,13.43-18.57,13.43-30.16s-4.3-21.41-12.79-29.67Zm-25.03,54.83c-5.68,0-10.94-2.18-15.65-6.49-5.16-5.32-7.78-11.5-7.78-18.35v-.39c0-6.52,2.22-12.43,6.59-17.55,5.01-4.99,10.44-7.52,16.13-7.52h1.17c5.23,0,10.16,1.98,14.67,5.9,5.63,5.45,8.37,11.72,8.37,19.18,0,5.25-1.58,10.35-4.7,15.14-5.29,6.79-11.44,10.09-18.81,10.09Z"/>
        <path class="cls-8" d="m159.31,50.34c-.24-.19-.49-.39-.73-.58-.14-.11-.29-.22-.44-.34-.21-.16-.43-.32-.65-.47-.14-.11-.29-.21-.44-.31-.24-.18-.49-.34-.75-.51-.25-.17-.51-.34-.77-.5-.08-.05-.17-.1-.25-.16-5.64-3.49-12.21-5.52-19.24-5.56-.08,0-.18,0-.26,0h-.15c-.18,0-.36,0-.54,0-.45,0-.9.03-1.34.05-4.43.23-8.66,1.27-12.56,2.95-3.33,1.43-6.42,3.34-9.19,5.65h0c-8.72,7.26-14.31,18.4-14.31,30.92v71.37l1.22,1.22h11.88l1.22-1.22v-40.45h0c3.07,2.55,6.53,4.62,10.28,6.1.03,0,.07.03.1.04,4.11,1.6,8.56,2.49,13.21,2.52h.19c.13,0,.26,0,.39,0,5.17-.05,10.08-1.17,14.55-3.16.56-.25,1.12-.51,1.68-.79,1.07-.54,2.12-1.13,3.14-1.77,4.18-2.63,7.83-6.08,10.75-10.13.55-.77,1.09-1.57,1.59-2.38,3.8-6.16,6-13.47,6-21.33,0-12.64-5.7-23.89-14.57-31.14Zm-4.27,44.52c-.3.48-.64,1-1,1.5-1.8,2.5-4.01,4.59-6.53,6.17-.63.4-1.26.75-1.86,1.05-.29.14-.63.31-1.08.51-2.69,1.2-5.56,1.82-8.54,1.85h-.43s-.04,0-.04,0c-2.57-.03-5.07-.5-7.46-1.4-.15-.06-.3-.12-.46-.18-2.15-.87-4.16-2.08-5.98-3.59-5.63-4.69-8.87-11.72-8.87-19.31s3.23-14.62,8.86-19.31c1.68-1.4,3.54-2.54,5.54-3.4,2.35-1.02,4.83-1.6,7.37-1.73h.03s.03,0,.03,0c.25-.01.51-.02.77-.03h.05s.53,0,.53,0c3.94.02,7.81,1.13,11.22,3.2.13.08.25.16.35.22.14.09.28.18.41.27.1.06.2.13.26.18l.07.05.07.05.14.1.11.09.3.21s0,0,.01,0c.14.11.28.22.42.32l.49.39c5.69,4.68,8.95,11.74,8.95,19.38,0,4.79-1.3,9.43-3.74,13.39Z"/>
      </g>
      <g>
        <path class="cls-4" d="m56.57,15.28c0,8.44,7.02,15.28,15.67,15.28,8.66,0,15.67-6.84,15.67-15.28,0-8.44-7.02-15.28-15.67-15.28-8.66,0-15.67,6.84-15.67,15.28h0Z"/>
        <g class="cls-1">
          <polygon class="cls-6" points="-9.39 39.13 98.12 41.67 87.3 43.15 33.51 71.75 -9.39 39.13"/>
          <path class="cls-7" d="m-12.58,40.75l100.81.92,7.67.07-59.2,9.78c-4.96.82-10.03.45-14.82-1.07l-34.46-9.69Z"/>
          <polygon class="cls-5" points="98.12 46.01 87.3 43.15 33.51 71.75 24.8 159.72 52.2 159.72 98.12 46.01"/>
          <path class="cls-3" d="m103.77,45.59l-16.47-2.44-34.09,36.89s-.05.06-.08.09c-3.71,4.27-6.23,9.47-7.51,15.03l-13.23,57.53-10.73,33.34L103.77,45.59Z"/>
        </g>
      </g>
    </g>
  </g>
</svg>