<svg xmlns="http://www.w3.org/2000/svg" viewBox="0 0 321.02 154.06" xmlns:v="https://vecta.io/nano"><defs><clipPath id="A"><path d="m1.26,41.67h83.28c2.51,0,4.14,2.71,3.01,4.99l-4.84,9.77-47.99,96.93c-.61,1.23-2.44.7-2.33-.67l6.8-83.16c.04-.54-.21-1.05-.66-1.34L.59,44.04c-1.07-.68-.6-2.37.66-2.37Z" clip-rule="evenodd" fill="none" stroke-width="0"/></clipPath></defs><path d="M238.3 46.83c-4.83-2.82-10.49-4.44-16.56-4.44-17.07 0-30.99 12.84-31.78 28.95h-.04v1.44h0v46.35l1.22 1.22H203l1.23-1.22V71.68a12.53 12.53 0 0 1 .22-1.63c1.41-7.6 8.63-13.4 17.29-13.4 5.02 0 9.54 1.94 12.74 5.05l1.59-.11 2.87-13.18-.63-1.59zm69.93 5.09l-.08-.07c-7.48-6.45-15.53-9.72-23.94-9.72h-2.03c-8.74 0-17.04 3.51-24.67 10.45l-.08.08c-7.94 8.21-11.97 17.77-11.97 28.39v.94c0 10.68 4.05 20.28 12.05 28.54l.07.07c7.58 6.93 16.2 10.45 25.61 10.45 8.76 0 16.94-3.1 24.31-9.23l.08-.07c8.91-8.43 13.43-18.57 13.43-30.16s-4.3-21.41-12.79-29.67zm-25.03 54.83c-5.68 0-10.94-2.18-15.65-6.49-5.16-5.32-7.78-11.5-7.78-18.35v-.39c0-6.52 2.22-12.43 6.59-17.55 5.01-4.99 10.44-7.52 16.13-7.52h1.17c5.23 0 10.16 1.98 14.67 5.9 5.63 5.45 8.37 11.72 8.37 19.18 0 5.25-1.58 10.35-4.7 15.14-5.29 6.79-11.44 10.09-18.81 10.09zM159.31 50.34l-.73-.58-.44-.34-.65-.47c-.14-.11-.29-.21-.44-.31l-.75-.51-.77-.5-.25-.16c-5.64-3.49-12.21-5.52-19.24-5.56h-.26-.15-.54c-.45 0-.9.03-1.34.05-4.43.23-8.66 1.27-12.56 2.95a37.39 37.39 0 0 0-9.19 5.65h0c-8.72 7.26-14.31 18.4-14.31 30.92v71.37l1.22 1.22h11.88l1.22-1.22V112.4h0c3.07 2.55 6.53 4.62 10.28 6.1.03 0 .07.03.1.04 4.11 1.6 8.56 2.49 13.21 2.52h.19.39c5.17-.05 10.08-1.17 14.55-3.16a42.32 42.32 0 0 0 1.68-.79c1.07-.54 2.12-1.13 3.14-1.77 4.18-2.63 7.83-6.08 10.75-10.13.55-.77 1.09-1.57 1.59-2.38 3.8-6.16 6-13.47 6-21.33 0-12.64-5.7-23.89-14.57-31.14zm-4.27 44.52c-.3.48-.64 1-1 1.5-1.8 2.5-4.01 4.59-6.53 6.17a21.02 21.02 0 0 1-1.86 1.05c-.29.14-.63.31-1.08.51a21.35 21.35 0 0 1-8.54 1.85h-.43-.04c-2.57-.03-5.07-.5-7.46-1.4l-.46-.18c-2.15-.87-4.16-2.08-5.98-3.59-5.63-4.69-8.87-11.72-8.87-19.31s3.23-14.62 8.86-19.31a22.56 22.56 0 0 1 5.54-3.4c2.35-1.02 4.83-1.6 7.37-1.73h.03.03l.77-.03h.05.53c3.94.02 7.81 1.13 11.22 3.2l.35.22.41.27c.1.06.2.13.26.18l.07.05.07.05.14.1.11.09.3.21.43.32.49.39c5.69 4.68 8.95 11.74 8.95 19.38 0 4.79-1.3 9.43-3.74 13.39z" fill="#f2f2f2"/><path d="M56.57 15.28c0 8.44 7.02 15.28 15.67 15.28 8.66 0 15.67-6.84 15.67-15.28S80.89 0 72.24 0c-8.66 0-15.67 6.84-15.67 15.28h0z" fill-rule="evenodd" fill="#ce2e2e"/><g clip-path="url(#A)" fill-rule="evenodd"><path d="M-9.39 39.13l107.51 2.54-10.82 1.48-53.79 28.6-42.9-32.62z" fill="#f96d00"/><path d="m-12.58,40.75l100.81.92,7.67.07-59.2,9.78c-4.96.82-10.03.45-14.82-1.07l-34.46-9.69Z" fill="#f9a501"/><path d="M98.12 46.01L87.3 43.15l-53.79 28.6-8.71 87.97h27.4L98.12 46.01z" fill="#64b9ff"/><path d="M103.77 45.59L87.3 43.15 53.21 80.04l-.08.09c-3.71 4.27-6.23 9.47-7.51 15.03l-13.23 57.53-10.73 33.34 82.11-140.44z" fill="#9563c4"/></g></svg>