<svg width="34" height="34" viewBox="0 0 34 34" fill="none" xmlns="http://www.w3.org/2000/svg">
<path d="M17.0007 31.1667L22.6673 25.5L19.1257 9.91667L20.5324 6.16392C20.6127 5.94963 20.6399 5.71907 20.6117 5.49198C20.5835 5.26488 20.5007 5.04799 20.3704 4.85988C20.24 4.67177 20.0661 4.51803 19.8634 4.41182C19.6607 4.30561 19.4352 4.25009 19.2064 4.25H14.7949C14.5661 4.25009 14.3406 4.30561 14.1379 4.41182C13.9352 4.51803 13.7613 4.67177 13.6309 4.85988C13.5006 5.04799 13.4178 5.26488 13.3896 5.49198C13.3614 5.71907 13.3886 5.94963 13.4689 6.16392L14.8757 9.91667L11.334 25.5L17.0007 31.1667Z" stroke="#36689E" stroke-width="2" stroke-linecap="round" stroke-linejoin="round"/>
<path d="M14.875 9.91602H19.125L26.2083 17.7077" stroke="#36689E" stroke-width="2" stroke-linecap="round" stroke-linejoin="round"/>
</svg>
