<svg width="20" height="20" viewBox="0 0 20 20" fill="none" xmlns="http://www.w3.org/2000/svg">
<path d="M15.3219 2.09067L15.3211 2.0921L15.2911 2.14145L14.925 2.74362L15.5032 3.14642C17.1749 4.31095 18.3752 5.96689 18.9213 7.84202C19.467 9.71599 19.3305 11.7086 18.5317 13.5026C18.2137 14.2134 17.2692 14.4646 16.539 14.0661L16.5389 14.0661L10.7768 10.9224L10.1426 10.5765L9.77314 11.1972L6.25542 17.1065L5.58059 18.2401H6.89988H18.8886C18.9976 18.2401 19.0942 18.2814 19.1591 18.3427C19.2225 18.4027 19.2496 18.4747 19.2496 18.5401C19.2496 18.6055 19.2225 18.6775 19.1591 18.7374C19.0942 18.7987 18.9976 18.8401 18.8886 18.8401H1.11109C1.00206 18.8401 0.905443 18.7987 0.840558 18.7374C0.777114 18.6775 0.75 18.6055 0.75 18.5401C0.75 18.4747 0.777114 18.4027 0.840558 18.3427C0.905442 18.2814 1.00206 18.2401 1.11109 18.2401H4.34992H4.77626L4.99436 17.8738L9.13762 10.9145L9.53595 10.2454L8.85242 9.87246L3.06808 6.71622L3.06781 6.71607C2.35837 6.32934 2.13978 5.49456 2.61509 4.90066C3.86504 3.34313 5.63929 2.22098 7.65732 1.72387C9.67571 1.22668 11.8124 1.38594 13.7213 2.17425L14.3148 2.41938L14.6484 1.87062L14.6775 1.82273C14.6776 1.82256 14.6777 1.82238 14.6778 1.82221C14.7187 1.75566 14.7937 1.69553 14.8963 1.66956C14.9997 1.64339 15.1087 1.6581 15.196 1.70577C15.2823 1.75283 15.3325 1.82279 15.3514 1.88953C15.3699 1.95483 15.3616 2.02578 15.3219 2.09067Z" stroke="white" stroke-width="1.5"/>
</svg>
