<svg width="28" height="28" viewBox="0 0 28 28" fill="none" xmlns="http://www.w3.org/2000/svg">
<path d="M20.125 21.8745L20.125 6.12402C20.1245 5.96456 20.0804 5.80825 19.9976 5.67192C19.9147 5.53559 19.7961 5.42441 19.6547 5.35033C19.5132 5.27626 19.3542 5.2421 19.1947 5.25153C19.0352 5.26097 18.8814 5.31364 18.7497 5.40388L7.35435 13.2791C6.88188 13.6055 6.88188 14.3913 7.35435 14.7185L18.7497 22.5937C18.8811 22.6849 19.0351 22.7384 19.1948 22.7483C19.3545 22.7583 19.5139 22.7243 19.6557 22.6502C19.7975 22.576 19.9162 22.4645 19.9989 22.3278C20.0816 22.191 20.1252 22.0342 20.125 21.8745Z" fill="#36689E"/>
<rect x="1" y="27" width="26" height="26" rx="4" transform="rotate(-90 1 27)" stroke="#36689E" stroke-width="2"/>
</svg>
