<svg width="34" height="34" viewBox="0 0 34 34" fill="none" xmlns="http://www.w3.org/2000/svg">
<path d="M17 18.418C19.3472 18.418 21.25 16.5152 21.25 14.168C21.25 11.8208 19.3472 9.91797 17 9.91797C14.6528 9.91797 12.75 11.8208 12.75 14.168C12.75 16.5152 14.6528 18.418 17 18.418Z" stroke="#36689E" stroke-width="2" stroke-linecap="round" stroke-linejoin="round"/>
<path d="M16.9993 2.83398C13.9936 2.83398 11.1109 4.02803 8.98547 6.15344C6.86006 8.27885 5.66602 11.1615 5.66602 14.1673C5.66602 16.8477 6.23552 18.6015 7.79102 20.5423L16.9993 31.1673L26.2077 20.5423C27.7632 18.6015 28.3327 16.8477 28.3327 14.1673C28.3327 11.1615 27.1386 8.27885 25.0132 6.15344C22.8878 4.02803 20.0051 2.83398 16.9993 2.83398Z" stroke="#36689E" stroke-width="2" stroke-linecap="round" stroke-linejoin="round"/>
</svg>
