<svg width="132" height="79" viewBox="0 0 132 79" fill="none" xmlns="http://www.w3.org/2000/svg">
<path d="M119.592 41.4605C119.553 37.2312 118.482 33.0754 116.472 29.3542C114.461 25.633 111.573 22.459 108.057 20.108C104.541 17.7571 100.504 16.3003 96.2973 15.8643C92.0903 15.4284 87.8405 16.0264 83.9173 17.6064C81.0636 11.7618 76.4639 6.94878 70.7546 3.83327C65.0454 0.717759 58.5089 -0.546173 52.0498 0.216394C45.5906 0.978961 39.5282 3.73032 34.7015 8.08972C29.8747 12.4491 26.5223 18.201 25.1081 24.5494C18.1399 25.0386 11.6325 28.2096 6.95311 33.3961C2.27374 38.5825 -0.213355 45.3807 0.0143647 52.3624C0.242084 59.3441 3.16688 65.9658 8.17427 70.8363C13.1817 75.7068 19.8819 78.4469 26.8672 78.4811H112.769C117.245 78.4842 121.58 76.9182 125.021 74.0556C128.462 71.193 130.79 67.2148 131.602 62.813C132.413 58.4112 131.656 53.8643 129.461 49.9631C127.267 46.0619 123.775 43.0533 119.592 41.4605Z" fill="#EBEBEB"/>
</svg>
