<svg width="380" height="397" viewBox="0 0 380 397" fill="none" xmlns="http://www.w3.org/2000/svg">
<path d="M87.3392 247.126C87.3463 247.112 87.3504 247.097 87.3511 247.082C87.3518 247.066 87.3491 247.051 87.3433 247.037C87.3374 247.022 87.3285 247.009 87.3171 246.999C87.3058 246.989 87.2923 246.981 87.2776 246.976C87.2637 246.97 87.2488 246.967 87.2338 246.967C87.2188 246.967 87.2039 246.97 87.19 246.976C87.1761 246.982 87.1635 246.99 87.1529 247.001C87.1422 247.011 87.1338 247.024 87.128 247.038C83.7808 255.043 81.1309 263.323 79.2077 271.784C77.2783 280.247 75.8269 288.811 74.8604 297.437L74.2356 303.923C74.1476 304.996 74.0244 306.079 73.9452 307.161L73.7692 310.417C73.6812 312.591 73.5492 314.756 73.4875 316.93L73.5404 323.442L73.6108 326.698C73.6636 327.789 73.7428 328.871 73.8132 329.954C73.9804 332.119 74.1124 334.284 74.306 336.449C74.7284 340.769 75.3708 345.064 76.066 349.341C76.0718 349.367 76.0861 349.391 76.1068 349.409C76.1275 349.426 76.1534 349.436 76.1804 349.438C76.2108 349.438 76.2399 349.426 76.2613 349.404C76.2828 349.383 76.2948 349.354 76.2948 349.323C76.2948 347.15 76.1892 344.994 76.1452 342.829C76.1012 340.664 75.89 338.525 75.9252 336.361C75.9604 334.196 75.9252 332.048 75.8548 329.892L75.7932 326.663L75.8548 323.433V316.974L76.0308 310.523L76.0924 307.293C76.0924 306.22 76.2156 305.146 76.2772 304.072L76.6733 297.622C77.4111 289.03 78.6304 280.486 80.3254 272.03C81.9419 263.542 84.2886 255.21 87.3392 247.126Z" fill="#ABABAB"/>
<path d="M88.2634 280.892C88.2719 280.864 88.2693 280.834 88.2562 280.808C88.2431 280.782 88.2205 280.761 88.193 280.751C88.1792 280.746 88.1644 280.743 88.1495 280.744C88.1347 280.745 88.1201 280.749 88.1068 280.755C88.0935 280.762 88.0818 280.771 88.0724 280.783C88.063 280.794 88.0561 280.808 88.0522 280.822C86.2183 286.204 84.6818 291.683 83.4496 297.234C82.2333 302.8 81.3284 308.429 80.7391 314.096C80.1671 319.746 79.5335 325.395 79.4543 331.08C79.3137 336.766 79.5165 342.456 80.0615 348.118C80.0646 348.143 80.0756 348.167 80.093 348.186C80.1103 348.205 80.1332 348.218 80.1583 348.223C80.1896 348.226 80.2208 348.216 80.2453 348.197C80.2698 348.177 80.2859 348.149 80.2903 348.118C80.9415 342.459 81.3464 336.818 81.7336 331.177C82.1208 325.536 82.1912 319.886 82.5608 314.245C82.9166 308.615 83.5894 303.009 84.5761 297.454C85.4971 291.87 86.7281 286.34 88.2634 280.892Z" fill="#ABABAB"/>
<path d="M106.982 292.773C106.96 292.752 106.932 292.741 106.902 292.741C106.873 292.741 106.845 292.752 106.823 292.773C102.142 295.781 97.9264 299.457 94.3093 303.685C92.4914 305.812 90.8547 308.088 89.4163 310.488L88.4131 312.388L87.6211 314.36C87.3569 315.013 87.1277 315.68 86.9346 316.357C86.7322 317.026 86.5122 317.695 86.3274 318.373C84.8904 323.773 84.0232 329.309 83.7402 334.891C83.4609 340.439 83.6671 346.002 84.3562 351.514C84.3601 351.54 84.3727 351.564 84.3919 351.581C84.4111 351.599 84.4358 351.61 84.4618 351.611C84.477 351.614 84.4927 351.613 84.5076 351.609C84.5225 351.605 84.5364 351.597 84.5481 351.587C84.5599 351.577 84.5693 351.565 84.5756 351.551C84.582 351.536 84.5852 351.521 84.585 351.506L86.0106 335.049C86.5826 329.602 86.9347 324.128 88.0963 318.813C88.2459 318.153 88.4395 317.51 88.6067 316.85C88.7613 316.195 88.9522 315.548 89.1787 314.914L89.8475 313.004L90.7276 311.244C92.0294 308.854 93.5307 306.579 95.2157 304.442C98.5527 300.076 102.511 296.221 106.964 293.001C106.979 293.003 106.994 293.001 107.009 292.996C107.023 292.991 107.036 292.984 107.048 292.974C107.059 292.964 107.068 292.952 107.075 292.939C107.082 292.925 107.086 292.911 107.087 292.896C107.088 292.881 107.087 292.866 107.082 292.851C107.077 292.837 107.07 292.824 107.06 292.812C107.05 292.801 107.038 292.791 107.025 292.785C107.011 292.778 106.997 292.774 106.982 292.773Z" fill="#ABABAB"/>
<path d="M97.9255 313.955C95.3735 315.601 93.6662 318.188 92.2318 320.793C90.8624 323.462 89.794 326.274 89.0461 329.179C88.8173 329.892 88.6412 330.623 88.4828 331.353L87.9724 333.544C87.6976 334.998 87.5124 336.468 87.418 337.944C87.418 339.441 87.3564 340.928 87.418 342.415C87.5327 343.892 87.7296 345.361 88.0076 346.815C88.0117 346.838 88.0221 346.859 88.0377 346.876C88.0533 346.893 88.0734 346.906 88.0956 346.912C88.1113 346.916 88.1276 346.916 88.1435 346.913C88.1594 346.91 88.1744 346.904 88.1877 346.895C88.201 346.886 88.2123 346.874 88.2206 346.86C88.229 346.847 88.2344 346.831 88.2364 346.815C88.5813 345.364 88.8457 343.895 89.0285 342.415C89.2573 340.963 89.4773 339.529 89.6533 338.085C89.8293 336.642 90.0581 335.216 90.1637 333.773C90.2693 332.33 90.4717 330.887 90.7885 329.479C91.29 326.628 92.1076 323.841 93.2262 321.171C94.2364 318.45 95.8735 316.005 98.0047 314.034C98.0212 314.013 98.0301 313.986 98.0301 313.959C98.0301 313.932 98.0212 313.906 98.0047 313.885C97.9868 313.889 97.9703 313.898 97.9565 313.91C97.9427 313.922 97.9321 313.938 97.9255 313.955Z" fill="#ABABAB"/>
<path d="M71.6741 330.411C71.0581 323.098 69.8524 315.865 68.7084 308.639C67.5644 301.414 66.3059 294.189 64.9859 287C63.6659 279.81 62.2138 272.594 60.6386 265.483C60.6304 265.455 60.6128 265.431 60.5886 265.415C60.5645 265.399 60.5354 265.392 60.5066 265.395C60.4915 265.397 60.4769 265.402 60.4638 265.41C60.4508 265.418 60.4394 265.428 60.4304 265.441C60.4213 265.453 60.4149 265.467 60.4113 265.482C60.4078 265.496 60.4072 265.512 60.4097 265.527C61.6594 272.734 62.7946 279.959 63.8595 287.184C64.9243 294.409 65.9891 301.643 66.9044 308.895C67.8196 316.146 68.4972 323.415 69.4036 330.649L72.0437 352.403C72.0459 352.43 72.058 352.454 72.0776 352.472C72.0972 352.49 72.1228 352.5 72.1493 352.5C72.1644 352.501 72.1795 352.5 72.1938 352.495C72.2082 352.49 72.2214 352.483 72.2329 352.473C72.2443 352.463 72.2537 352.451 72.2605 352.438C72.2673 352.424 72.2714 352.41 72.2725 352.394C72.3517 350.564 72.3517 348.725 72.3957 346.894C72.4397 345.064 72.3253 343.225 72.2901 341.394C72.2637 337.716 71.9469 334.064 71.6741 330.411Z" fill="#ABABAB"/>
<path d="M67.292 330.306C66.896 327.41 66.412 324.533 65.8136 321.664L64.7928 317.396C64.4495 315.97 64.1327 314.544 63.7191 313.145C62.2598 307.479 60.3922 301.927 58.1309 296.53L57.2509 294.515L56.2741 292.553C55.6581 291.224 54.91 289.965 54.1972 288.68C52.759 286.125 50.9829 283.774 48.9171 281.693C48.9072 281.683 48.8956 281.675 48.8827 281.67C48.8699 281.665 48.8561 281.662 48.8422 281.662C48.8284 281.662 48.8146 281.665 48.8017 281.67C48.7889 281.675 48.7773 281.683 48.7674 281.693C48.747 281.714 48.7356 281.743 48.7356 281.772C48.7356 281.802 48.747 281.83 48.7674 281.851C50.6884 284.006 52.3105 286.41 53.59 288.997C54.2236 290.3 54.8924 291.576 55.4381 292.922L56.3181 294.911L57.0749 296.935C59.0998 302.35 60.7263 307.906 61.9415 313.559C62.6103 316.375 63.0503 319.235 63.5959 322.069L64.2823 326.354C64.5287 327.78 64.8368 329.197 65.0304 330.631C65.488 333.483 66.016 336.334 66.5176 339.194C67.0192 342.054 67.4856 344.923 68.0841 347.783C68.0898 347.81 68.1042 347.833 68.1249 347.851C68.1455 347.868 68.1714 347.879 68.1985 347.88C68.2288 347.88 68.2579 347.868 68.2794 347.846C68.3008 347.825 68.3129 347.796 68.3129 347.766C68.3129 344.844 68.2601 341.922 68.1105 339.009C67.9609 336.096 67.5912 333.21 67.292 330.306Z" fill="#ABABAB"/>
<path d="M61.2465 330.675C59.8912 326.839 58.3248 323.09 56.6175 319.411C54.8878 315.738 52.9364 312.173 50.7741 308.736C50.7527 308.72 50.7264 308.711 50.6993 308.711C50.6723 308.711 50.646 308.72 50.6245 308.736C50.6059 308.759 50.5957 308.787 50.5957 308.816C50.5957 308.845 50.6059 308.873 50.6245 308.895C52.5011 312.459 54.1615 316.132 55.5967 319.895C57.0751 323.635 58.4128 327.428 59.5392 331.283C60.6657 335.137 61.4929 339.053 62.5225 342.917C63.5521 346.78 64.4674 350.687 65.6554 354.595C65.6628 354.619 65.6778 354.641 65.6984 354.657C65.7189 354.673 65.7439 354.682 65.7698 354.683C65.8002 354.683 65.8293 354.671 65.8507 354.649C65.8722 354.628 65.8842 354.599 65.8842 354.568C65.9297 350.489 65.5492 346.416 64.749 342.415C63.8977 338.414 62.7264 334.489 61.2465 330.675Z" fill="#ABABAB"/>
<path d="M60.9908 343.445C60.2547 341.059 59.1852 338.79 57.8139 336.704C56.5185 334.566 54.944 332.609 53.1322 330.887C52.2047 330.054 51.2065 329.303 50.1489 328.643C49.0943 327.974 47.9425 327.472 46.7344 327.155C46.7087 327.147 46.6806 327.148 46.656 327.16C46.6315 327.171 46.6123 327.192 46.6024 327.217C46.5952 327.231 46.5911 327.246 46.5904 327.261C46.5897 327.277 46.5924 327.292 46.5983 327.306C46.6042 327.32 46.6131 327.333 46.6244 327.344C46.6358 327.354 46.6493 327.362 46.664 327.367C48.8208 328.404 50.7319 329.889 52.2697 331.723C53.829 333.509 55.143 335.494 56.1771 337.628C57.2859 339.731 57.8579 342.028 58.8172 344.21C59.2484 345.319 59.6972 346.437 60.1636 347.546C60.5773 348.701 61.0683 349.827 61.6332 350.916C61.6417 350.935 61.6554 350.95 61.6726 350.961C61.6897 350.972 61.7097 350.978 61.73 350.978C61.7453 350.98 61.761 350.98 61.7759 350.975C61.7908 350.971 61.8046 350.964 61.8164 350.954C61.8281 350.944 61.8375 350.931 61.8439 350.917C61.8503 350.903 61.8535 350.888 61.8533 350.872C61.8946 349.624 61.8475 348.374 61.7124 347.132C61.5452 345.882 61.2812 344.659 60.9908 343.445Z" fill="#ABABAB"/>
<path d="M61.4405 275.947C61.4405 275.947 49.4721 273.183 46.7088 260.282C43.9455 247.381 52.869 252.916 44.8607 232.649C36.8525 212.382 38.7005 207.78 41.4902 201.945C44.2799 196.11 45.7848 197.958 48.24 205.632C50.6953 213.306 59.6012 225.283 62.9805 247.698C66.3598 270.112 61.4405 275.947 61.4405 275.947Z" fill="white"/>
<path d="M85.095 254.113C85.095 254.113 77.1131 251.35 76.8051 236.301C76.4971 221.253 82.6397 224.324 83.5637 205.597C84.4878 186.87 85.711 173.661 89.0903 173.353C92.4696 173.045 101.367 182.567 104.438 203.45C107.509 224.333 100.451 238.141 94.3089 244.283C88.1663 250.426 85.095 254.113 85.095 254.113Z" fill="white"/>
<path d="M57.146 294.058C57.146 294.058 55.3067 283.004 51.6546 277.786C48.0025 272.567 39.9503 267.965 34.7317 257.827C29.5131 247.689 23.6785 242.787 23.9865 257.211C24.2946 271.635 30.7364 279.018 38.727 283.929C46.7177 288.839 57.146 294.058 57.146 294.058Z" fill="white"/>
<path d="M53.7658 313.075C53.7658 313.075 46.3735 298.994 35.6548 288.531C24.9361 278.067 16.2942 272.875 19.3831 278.094C22.472 283.312 26.1329 283.004 31.3515 292.218C36.57 301.432 35.0388 308.182 42.4046 313.4C49.7705 318.619 53.7658 313.075 53.7658 313.075Z" fill="white"/>
<path d="M52.8507 331.212C52.5426 330.288 52.2346 323.538 41.7975 318.012C31.3604 312.485 21.5569 314.632 22.7537 317.396C23.9505 320.159 30.4363 324.762 36.8341 327.525C43.232 330.288 52.8507 331.212 52.8507 331.212Z" fill="white"/>
<path d="M84.4704 294.674C84.4704 294.674 79.8678 288.839 82.3231 276.563C84.7784 264.286 90.305 267.349 96.4476 260.898C102.59 254.447 101.358 253.532 107.501 246.818C113.643 240.103 119.17 236.381 121.581 239.144C123.992 241.907 120.349 250.505 116.671 255.416C112.992 260.326 107.149 262.79 104.35 268.924C101.552 275.058 102.819 284.896 95.7523 289.499C88.6857 294.102 84.4704 294.674 84.4704 294.674Z" fill="white"/>
<path d="M99.8271 298.053C99.8271 298.053 110.88 285.46 118.862 276.254C126.844 267.049 129.915 259.983 130.223 266.117C130.531 272.25 132.987 277.17 126.536 285.16C120.085 293.151 99.8271 298.053 99.8271 298.053Z" fill="white"/>
<path d="M93.9916 318.355C93.9916 318.355 93.6836 313.436 111.187 302.074C128.691 290.713 136.057 288.566 134.209 293.177C132.361 297.789 124.696 302.347 116.406 310.637C108.116 318.927 93.9916 318.355 93.9916 318.355Z" fill="white"/>
<path d="M62.2145 274.635C62.2145 274.635 58.1136 252.635 53.8102 236.952C49.5069 221.27 46.77 211.775 46.77 211.775" stroke="#ABABAB" stroke-linecap="round" stroke-linejoin="round"/>
<path d="M84.3826 254.377C84.3826 254.377 91.8452 230.502 94.3005 216.069C96.7558 201.637 93.9925 190.892 92.7604 184.45" stroke="#ABABAB" stroke-linecap="round" stroke-linejoin="round"/>
<path d="M56.1774 293.6C52.8711 287.913 49.0849 282.52 44.8602 277.478C38.1104 269.496 32.8919 265.201 29.8206 257.519" stroke="#ABABAB" stroke-linecap="round" stroke-linejoin="round"/>
<path d="M84.4702 294.674C84.4702 294.674 86.9255 279.933 92.7601 272.259C98.5947 264.585 110.264 252.608 114.866 244.934" stroke="#ABABAB" stroke-linecap="round" stroke-linejoin="round"/>
<path d="M52.129 330.878C52.129 330.878 41.7975 324.154 34.4229 320.467" stroke="#ABABAB" stroke-linecap="round" stroke-linejoin="round"/>
<path d="M82.1737 396H68.6565C67.4865 396 66.3425 395.655 65.3686 395.006C64.3946 394.358 63.6341 393.436 63.1827 392.357C58.7826 381.796 46.9726 351.233 54.0744 342.573C60.8419 334.319 89.9884 334.319 96.7558 342.573C103.858 351.233 92.0652 381.779 87.6475 392.357C87.1962 393.436 86.4357 394.358 85.4617 395.006C84.4877 395.655 83.3437 396 82.1737 396Z" fill="#ABABAB"/>
<path d="M258.101 24.4257V298.537C258.105 300.329 257.755 302.105 257.071 303.762C256.388 305.419 255.384 306.924 254.118 308.193C252.852 309.462 251.348 310.468 249.692 311.155C248.037 311.841 246.262 312.195 244.469 312.195H126.026C124.232 312.198 122.455 311.847 120.797 311.162C119.139 310.477 117.632 309.471 116.364 308.202C115.096 306.933 114.091 305.426 113.407 303.767C112.722 302.108 112.373 300.331 112.377 298.537V24.4257C112.375 22.6342 112.726 20.8598 113.411 19.2044C114.096 17.5489 115.101 16.0448 116.368 14.7784C117.635 13.512 119.14 12.5082 120.796 11.8245C122.452 11.1408 124.226 10.7906 126.018 10.7941H176.857V10.9437C178.124 15.511 181.046 18.4767 184.276 18.4767H186.132C189.371 18.4767 192.293 15.511 193.551 10.9437L193.604 10.7941H244.469C246.26 10.7941 248.032 11.1467 249.686 11.8317C251.34 12.5168 252.843 13.5209 254.108 14.7867C255.374 16.0525 256.378 17.5553 257.063 19.2091C257.749 20.863 258.101 22.6356 258.101 24.4257Z" fill="white" stroke="#263238" stroke-linecap="round" stroke-linejoin="round"/>
<path d="M258.092 37.1685V24.4257C258.093 22.636 257.742 20.8636 257.058 19.2098C256.374 17.556 255.37 16.0532 254.105 14.7872C252.84 13.5213 251.338 12.5171 249.685 11.8319C248.031 11.1468 246.259 10.7941 244.469 10.7941H193.648L193.595 10.9437C192.328 15.511 189.415 18.4767 186.176 18.4767H184.32C181.09 18.4767 178.159 15.511 176.901 10.9437V10.7941H126.018C124.226 10.7906 122.452 11.1408 120.796 11.8245C119.14 12.5082 117.635 13.512 116.368 14.7784C115.101 16.0448 114.096 17.5489 113.411 19.2044C112.726 20.8598 112.375 22.6342 112.377 24.4257V37.1861L258.092 37.1685Z" fill="#DBDBDB" stroke="#263238" stroke-linecap="round" stroke-linejoin="round"/>
<path d="M112.377 296.399V298.537C112.373 300.331 112.722 302.109 113.407 303.767C114.091 305.426 115.096 306.933 116.364 308.202C117.632 309.471 119.139 310.477 120.797 311.162C122.455 311.848 124.232 312.199 126.026 312.195H244.469C248.082 312.195 251.547 310.76 254.102 308.205C256.657 305.65 258.092 302.185 258.092 298.572V296.434L112.377 296.399Z" fill="#DBDBDB" stroke="#263238" stroke-linecap="round" stroke-linejoin="round"/>
<path d="M267.359 89.891V62.5045H264.886V27.453C264.886 21.7231 262.609 16.2279 258.558 12.1762C254.506 8.12453 249.011 5.84833 243.281 5.84833H127.223C121.493 5.84833 115.998 8.12453 111.946 12.1762C107.894 16.2279 105.618 21.7231 105.618 27.453V306.035C105.618 308.872 106.177 311.681 107.263 314.302C108.348 316.924 109.94 319.305 111.946 321.312C113.952 323.318 116.334 324.909 118.955 325.995C121.576 327.081 124.386 327.639 127.223 327.639H243.281C246.118 327.639 248.927 327.081 251.549 325.995C254.17 324.909 256.552 323.318 258.558 321.312C260.564 319.305 262.155 316.924 263.241 314.302C264.327 311.681 264.886 308.872 264.886 306.035V113.309H267.359V97.0457H264.886V89.891H267.359ZM258.101 290.537C258.106 293.382 257.551 296.199 256.466 298.828C255.38 301.457 253.787 303.846 251.776 305.858C249.766 307.87 247.378 309.466 244.75 310.553C242.122 311.64 239.305 312.198 236.461 312.195H134.008C131.166 312.198 128.35 311.641 125.724 310.555C123.097 309.468 120.711 307.874 118.702 305.864C116.692 303.854 115.099 301.467 114.014 298.84C112.928 296.213 112.372 293.397 112.377 290.555V32.39C112.379 26.6616 114.656 21.1686 118.708 17.1188C122.759 13.0691 128.253 10.7941 133.981 10.7941H176.83V10.9437C178.097 15.511 181.019 18.4767 184.249 18.4767H186.106C189.344 18.4767 192.266 15.511 193.524 10.9437L193.577 10.7941H236.461C239.298 10.7929 242.107 11.3506 244.729 12.4353C247.351 13.5199 249.733 15.1104 251.74 17.1157C253.747 19.1211 255.339 21.5021 256.426 24.1229C257.513 26.7437 258.073 29.5528 258.074 32.39L258.101 290.537Z" fill="white" stroke="#263238" stroke-linecap="round" stroke-linejoin="round"/>
<path d="M241.547 8.82281H128.956C126.216 8.82281 123.502 9.36328 120.971 10.4133C118.44 11.4633 116.141 13.0022 114.205 14.942C112.269 16.8817 110.735 19.1842 109.691 21.7176C108.646 24.251 108.111 26.9656 108.117 29.7059V303.782C108.117 309.309 110.313 314.609 114.221 318.517C118.129 322.425 123.429 324.621 128.956 324.621H241.547C247.073 324.619 252.372 322.422 256.28 318.515C260.187 314.607 262.384 309.308 262.386 303.782V29.7059C262.391 26.9659 261.855 24.2518 260.81 21.719C259.765 19.1861 258.231 16.8841 256.295 14.9446C254.36 13.005 252.061 11.4661 249.53 10.4157C247 9.36523 244.287 8.82397 241.547 8.82281ZM258.1 291.312C258.105 294.053 257.569 296.767 256.523 299.301C255.478 301.834 253.943 304.137 252.006 306.076C250.07 308.016 247.77 309.555 245.239 310.605C242.707 311.655 239.993 312.195 237.252 312.195H133.242C130.5 312.198 127.784 311.661 125.251 310.613C122.717 309.565 120.415 308.027 118.477 306.088C116.538 304.149 115.002 301.846 113.955 299.312C112.908 296.778 112.372 294.062 112.376 291.321V31.6243C112.376 28.8867 112.916 26.1758 113.964 23.6468C115.013 21.1179 116.55 18.8204 118.487 16.8858C120.424 14.9512 122.723 13.4174 125.253 12.3721C127.784 11.3268 130.495 10.7906 133.233 10.7941H176.856V10.9437C178.123 15.511 181.045 18.4767 184.275 18.4767H186.131C189.37 18.4767 192.292 15.511 193.55 10.9437L193.603 10.7941H237.252C242.78 10.7941 248.081 12.9893 251.991 16.8972C255.9 20.805 258.098 26.1055 258.1 31.6331V291.312Z" fill="#263238" stroke="#263238" stroke-linecap="round" stroke-linejoin="round"/>
<path d="M186.836 11.8237C186.835 11.4221 186.714 11.0299 186.49 10.6968C186.265 10.3636 185.947 10.1044 185.575 9.95191C185.204 9.7994 184.795 9.76039 184.402 9.83982C184.008 9.91925 183.646 10.1136 183.363 10.3982C183.08 10.6829 182.887 11.0451 182.809 11.4392C182.731 11.8333 182.772 12.2416 182.926 12.6125C183.08 12.9835 183.341 13.3004 183.675 13.5234C184.009 13.7464 184.402 13.8654 184.804 13.8654C185.072 13.8666 185.337 13.8145 185.585 13.7122C185.833 13.6099 186.058 13.4594 186.247 13.2695C186.436 13.0796 186.585 12.854 186.687 12.6058C186.788 12.3576 186.839 12.0918 186.836 11.8237Z" fill="white"/>
<path d="M125.357 19.5943C125.357 21.6536 123.051 22.3928 123.043 23.9945V24.1089H125.278V24.7953H122.295V24.2145C122.295 22.0144 124.592 21.5744 124.592 19.6735C124.592 18.9695 124.363 18.5999 123.8 18.5999C123.236 18.5999 122.999 18.9959 122.999 19.6031V20.2016H122.295V19.6471C122.295 18.6087 122.77 17.8871 123.817 17.8871C124.864 17.8871 125.357 18.5559 125.357 19.5943Z" fill="#263238"/>
<path d="M129.098 19.5856V19.7616C129.131 20.0531 129.069 20.3476 128.919 20.6002C128.77 20.8527 128.542 21.0496 128.271 21.1609C128.544 21.2753 128.772 21.4754 128.921 21.731C129.07 21.9866 129.132 22.2838 129.098 22.5777V23.0969C129.098 24.1354 128.614 24.857 127.558 24.857C126.502 24.857 126.035 24.1706 126.035 23.0969V22.6657H126.748V23.1849C126.748 23.7921 126.995 24.1618 127.54 24.1618C128.086 24.1618 128.341 23.8009 128.341 23.1145V22.5865C128.341 21.9177 128.059 21.6009 127.461 21.5745H127.056V20.9057H127.505C127.623 20.9068 127.74 20.8825 127.847 20.8344C127.955 20.7863 128.051 20.7156 128.128 20.627C128.206 20.5385 128.264 20.4342 128.297 20.3212C128.331 20.2083 128.34 20.0895 128.323 19.9728V19.6648C128.323 18.9608 128.077 18.6 127.523 18.6C126.968 18.6 126.731 18.9784 126.731 19.5944V19.9464H126.018V19.5856C126.018 18.5472 126.502 17.8784 127.54 17.8784C128.579 17.8784 129.098 18.5472 129.098 19.5856Z" fill="#263238"/>
<path d="M130.55 20.1048V21.0464H129.819V20.1048H130.55ZM130.55 23.8097V24.7513H129.819V23.8097H130.55Z" fill="#263238"/>
<path d="M132.089 20.712C132.188 20.5326 132.335 20.3846 132.514 20.285C132.693 20.1854 132.897 20.1382 133.101 20.1487C133.981 20.1487 134.36 20.7912 134.36 21.768V23.0968C134.36 24.1353 133.867 24.8569 132.828 24.8569C131.79 24.8569 131.297 24.1705 131.297 23.0968V22.6656H132.01V23.176C132.01 23.7833 132.265 24.1529 132.802 24.1529C133.339 24.1529 133.603 23.7833 133.603 23.176V21.7856C133.603 21.1784 133.348 20.8088 132.802 20.8088C132.703 20.804 132.604 20.8194 132.512 20.8539C132.419 20.8885 132.334 20.9415 132.263 21.0098C132.191 21.0781 132.134 21.1603 132.095 21.2513C132.056 21.3423 132.036 21.4402 132.036 21.5392V21.6888H131.324L131.508 17.9047H134.148V18.5911H132.151L132.089 20.712Z" fill="#263238"/>
<path d="M138.144 19.5768V19.7H137.44V19.5328C137.44 18.9167 137.185 18.5559 136.63 18.5559C136.076 18.5559 135.803 18.9255 135.803 19.656V21.1784C135.883 20.9548 136.034 20.7634 136.232 20.6332C136.431 20.503 136.666 20.441 136.903 20.4568C137.783 20.4568 138.162 21.0816 138.162 22.0672V23.0969C138.162 24.1353 137.651 24.8569 136.613 24.8569C135.574 24.8569 135.046 24.1705 135.046 23.0969V19.6296C135.046 18.5471 135.53 17.8695 136.613 17.8695C137.695 17.8695 138.144 18.5383 138.144 19.5768ZM135.803 22.1288V23.1497C135.803 23.7569 136.058 24.1265 136.613 24.1265C137.167 24.1265 137.414 23.7569 137.414 23.1497V22.1288C137.414 21.5128 137.15 21.1432 136.613 21.1432C136.076 21.1432 135.803 21.5128 135.803 22.1288Z" fill="#263238"/>
<path d="M212.463 19.876H210.545V24.6809H212.463V19.876Z" fill="#263238"/>
<path d="M215.023 18.9168H213.105V24.681H215.023V18.9168Z" fill="#263238"/>
<path d="M217.593 18.2303H215.674V24.681H217.593V18.2303Z" fill="#263238"/>
<path d="M220.154 17.0424H218.236V24.681H220.154V17.0424Z" fill="#263238"/>
<path d="M243.941 24.549H232.413V17.5087H243.941V24.549ZM233.055 23.9065H243.299V18.1423H233.055V23.9065Z" fill="#263238"/>
<path d="M240.104 18.8375H234.014V23.2113H240.104V18.8375Z" fill="#263238"/>
<path d="M244.997 20.1928H243.545V21.8561H244.997V20.1928Z" fill="#263238"/>
<path d="M228.18 23.0177C228.102 23.0182 228.026 22.9968 227.96 22.9561C225.61 21.5656 224.061 22.8593 223.999 22.9561C223.957 22.9936 223.907 23.0224 223.853 23.0407C223.799 23.0591 223.742 23.0666 223.685 23.0629C223.629 23.0593 223.573 23.0444 223.522 23.0193C223.471 22.9942 223.425 22.9592 223.388 22.9165C223.35 22.8737 223.321 22.824 223.303 22.7701C223.285 22.7162 223.277 22.6592 223.281 22.6025C223.285 22.5457 223.299 22.4901 223.325 22.4391C223.35 22.388 223.385 22.3424 223.427 22.3048C223.515 22.2344 225.495 20.5448 228.4 22.3048C228.48 22.3533 228.543 22.4268 228.578 22.5142C228.613 22.6016 228.618 22.698 228.593 22.7887C228.568 22.8794 228.514 22.9595 228.44 23.0168C228.365 23.074 228.274 23.1052 228.18 23.1057V23.0177Z" fill="#263238"/>
<path d="M229.05 21.5656C228.974 21.566 228.898 21.5479 228.83 21.5128C225.433 19.4888 223.154 21.4424 223.128 21.46C223.047 21.5401 222.938 21.585 222.824 21.585C222.71 21.585 222.601 21.5401 222.521 21.46C222.48 21.4206 222.447 21.3735 222.425 21.3213C222.403 21.2691 222.392 21.2131 222.392 21.1564C222.392 21.0998 222.403 21.0437 222.425 20.9915C222.447 20.9394 222.48 20.8922 222.521 20.8528C222.521 20.8528 225.293 18.4679 229.226 20.8C229.325 20.8602 229.396 20.9567 229.424 21.0686C229.452 21.1805 229.434 21.299 229.376 21.3984C229.337 21.4485 229.288 21.4894 229.232 21.5183C229.176 21.5472 229.114 21.5633 229.05 21.5656Z" fill="#263238"/>
<path d="M229.834 19.8936C229.757 19.8941 229.68 19.8727 229.614 19.832C225.32 17.2799 222.46 19.6824 222.345 19.788C222.302 19.8255 222.253 19.8543 222.199 19.8726C222.145 19.891 222.088 19.8985 222.031 19.8948C221.974 19.8912 221.919 19.8763 221.868 19.8512C221.817 19.8261 221.771 19.7911 221.734 19.7484C221.696 19.7056 221.667 19.6559 221.649 19.602C221.631 19.5481 221.623 19.4911 221.627 19.4344C221.63 19.3776 221.645 19.322 221.67 19.271C221.695 19.2199 221.73 19.1743 221.773 19.1367C221.773 19.1367 225.205 16.2063 230.054 19.0927C230.104 19.1209 230.147 19.1587 230.181 19.2039C230.215 19.2491 230.24 19.3007 230.254 19.3558C230.268 19.4108 230.271 19.4681 230.262 19.5242C230.254 19.5803 230.234 19.6341 230.204 19.6824C230.166 19.7465 230.112 19.7997 230.047 19.8368C229.982 19.8738 229.909 19.8934 229.834 19.8936Z" fill="#263238"/>
<path d="M226.886 23.7393C226.887 23.9537 226.825 24.1639 226.707 24.343C226.59 24.5222 226.421 24.6623 226.223 24.7456C226.026 24.8289 225.808 24.8515 225.597 24.8108C225.387 24.77 225.193 24.6676 225.041 24.5166C224.889 24.3656 224.785 24.1727 224.742 23.9625C224.7 23.7523 224.721 23.5342 224.802 23.3359C224.884 23.1376 225.023 22.968 225.201 22.8487C225.379 22.7294 225.589 22.6657 225.803 22.6656C226.089 22.6656 226.363 22.7785 226.565 22.9796C226.768 23.1807 226.883 23.4537 226.886 23.7393Z" fill="#263238"/>
<path d="M233.372 188.472H137.845C135.254 188.472 133.154 190.572 133.154 193.162V226.383C133.154 228.974 135.254 231.074 137.845 231.074H233.372C235.962 231.074 238.062 228.974 238.062 226.383V193.162C238.062 190.572 235.962 188.472 233.372 188.472Z" fill="white" stroke="#263238" stroke-linecap="round" stroke-linejoin="round"/>
<path d="M131.509 79.313H239.708V164.729C239.708 166.796 238.887 168.78 237.424 170.242C235.962 171.704 233.979 172.526 231.911 172.526H139.306C137.238 172.526 135.254 171.704 133.792 170.242C132.33 168.78 131.509 166.796 131.509 164.729V79.313Z" fill="white" stroke="#263238" stroke-linecap="round" stroke-linejoin="round"/>
<path d="M239.708 79.313H131.509V87.3389H239.708V79.313Z" fill="white" stroke="#263238" stroke-linecap="round" stroke-linejoin="round"/>
<path d="M149.752 93.684H137.59V105.846H149.752V93.684Z" fill="white" stroke="#263238" stroke-linecap="round" stroke-linejoin="round"/>
<path d="M170.723 93.684H158.561V105.846H170.723V93.684Z" fill="white" stroke="#263238" stroke-linecap="round" stroke-linejoin="round"/>
<path d="M191.694 93.684H179.532V105.846H191.694V93.684Z" fill="white" stroke="#263238" stroke-linecap="round" stroke-linejoin="round"/>
<path d="M212.656 93.684H200.494V105.846H212.656V93.684Z" fill="white" stroke="#263238" stroke-linecap="round" stroke-linejoin="round"/>
<path d="M233.627 93.684H221.465V105.846H233.627V93.684Z" fill="white" stroke="#263238" stroke-linecap="round" stroke-linejoin="round"/>
<path d="M149.752 112.138H137.59V124.3H149.752V112.138Z" fill="white" stroke="#263238" stroke-linecap="round" stroke-linejoin="round"/>
<path d="M170.723 112.138H158.561V124.3H170.723V112.138Z" fill="white" stroke="#263238" stroke-linecap="round" stroke-linejoin="round"/>
<path d="M191.694 112.138H179.532V124.3H191.694V112.138Z" fill="white" stroke="#263238" stroke-linecap="round" stroke-linejoin="round"/>
<path d="M212.656 112.138H200.494V124.3H212.656V112.138Z" fill="white" stroke="#263238" stroke-linecap="round" stroke-linejoin="round"/>
<path d="M233.627 112.138H221.465V124.3H233.627V112.138Z" fill="white" stroke="#263238" stroke-linecap="round" stroke-linejoin="round"/>
<path d="M149.752 130.592H137.59V142.754H149.752V130.592Z" fill="white" stroke="#263238" stroke-linecap="round" stroke-linejoin="round"/>
<path d="M170.723 130.592H158.561V142.754H170.723V130.592Z" fill="white" stroke="#263238" stroke-linecap="round" stroke-linejoin="round"/>
<path d="M191.694 130.592H179.532V142.754H191.694V130.592Z" fill="white" stroke="#263238" stroke-linecap="round" stroke-linejoin="round"/>
<path d="M212.656 130.592H200.494V142.754H212.656V130.592Z" fill="white" stroke="#263238" stroke-linecap="round" stroke-linejoin="round"/>
<path d="M233.627 130.592H221.465V142.754H233.627V130.592Z" fill="white" stroke="#263238" stroke-linecap="round" stroke-linejoin="round"/>
<path d="M149.752 149.038H137.59V161.2H149.752V149.038Z" fill="white" stroke="#263238" stroke-linecap="round" stroke-linejoin="round"/>
<path d="M170.723 149.038H158.561V161.2H170.723V149.038Z" fill="white" stroke="#263238" stroke-linecap="round" stroke-linejoin="round"/>
<path d="M191.694 149.038H179.532V161.2H191.694V149.038Z" fill="white" stroke="#263238" stroke-linecap="round" stroke-linejoin="round"/>
<path d="M212.656 149.038H200.494V161.2H212.656V149.038Z" fill="white" stroke="#263238" stroke-linecap="round" stroke-linejoin="round"/>
<path d="M233.627 149.038H221.465V161.2H233.627V149.038Z" fill="white" stroke="#263238" stroke-linecap="round" stroke-linejoin="round"/>
<path d="M129.749 258.988H243.228" stroke="#263238" stroke-linecap="round" stroke-linejoin="round"/>
<path d="M131.235 266.152H155.727" stroke="#263238" stroke-linecap="round" stroke-linejoin="round"/>
<path d="M131.235 269.742H155.727" stroke="#263238" stroke-linecap="round" stroke-linejoin="round"/>
<path d="M131.235 273.324H155.727" stroke="#263238" stroke-linecap="round" stroke-linejoin="round"/>
<path d="M131.235 276.906H155.727" stroke="#263238" stroke-linecap="round" stroke-linejoin="round"/>
<path d="M159.907 266.152H184.398" stroke="#263238" stroke-linecap="round" stroke-linejoin="round"/>
<path d="M159.907 269.742H184.398" stroke="#263238" stroke-linecap="round" stroke-linejoin="round"/>
<path d="M159.907 273.324H184.398" stroke="#263238" stroke-linecap="round" stroke-linejoin="round"/>
<path d="M159.907 276.906H184.398" stroke="#263238" stroke-linecap="round" stroke-linejoin="round"/>
<path d="M188.578 266.152H213.069" stroke="#263238" stroke-linecap="round" stroke-linejoin="round"/>
<path d="M188.578 269.742H213.069" stroke="#263238" stroke-linecap="round" stroke-linejoin="round"/>
<path d="M188.578 273.324H213.069" stroke="#263238" stroke-linecap="round" stroke-linejoin="round"/>
<path d="M188.578 276.906H213.069" stroke="#263238" stroke-linecap="round" stroke-linejoin="round"/>
<path d="M217.25 266.152H241.741" stroke="#263238" stroke-linecap="round" stroke-linejoin="round"/>
<path d="M217.25 269.742H241.741" stroke="#263238" stroke-linecap="round" stroke-linejoin="round"/>
<path d="M217.25 273.324H241.741" stroke="#263238" stroke-linecap="round" stroke-linejoin="round"/>
<path d="M217.25 276.906H241.741" stroke="#263238" stroke-linecap="round" stroke-linejoin="round"/>
<path d="M139.315 64.599V48.6529H140.829L145.361 59.2132V48.6529H147.209V64.599H145.818L141.233 53.7131V64.599H139.315Z" fill="#263238"/>
<path d="M149.707 64.599V48.6529H155.867V50.3074H151.978V55.5875H155.181V57.1628H151.978V63.0061H155.973V64.599H149.707Z" fill="#263238"/>
<path d="M156.73 64.599L160.056 56.2563L156.792 48.6529H158.86L161.28 54.2851L163.489 48.6529H165.548L162.204 56.4323L165.724 64.599H163.656L161.06 58.5972L158.816 64.599H156.73Z" fill="#263238"/>
<path d="M168.954 64.599V50.3074H166.261V48.6529H173.803V50.3074H171.163V64.599H168.954Z" fill="#263238"/>
<path d="M179.84 64.599V48.6529H186V50.3074H182.049V55.5875H185.252V57.1628H182.049V63.0061H186.044V64.599H179.84Z" fill="#263238"/>
<path d="M190.629 64.599L187.109 48.6529H189.195L191.712 60.4101L194.114 48.6529H196.147L192.627 64.599H190.629Z" fill="#263238"/>
<path d="M197.792 64.599V48.6529H203.952V50.3074H200.001V55.5875H203.204V57.1628H200.001V63.0061H203.996V64.599H197.792Z" fill="#263238"/>
<path d="M205.801 64.599V48.6529H207.323L211.847 59.2132V48.6529H213.695V64.599H212.278L207.693 53.7131V64.599H205.801Z" fill="#263238"/>
<path d="M217.98 64.599V50.3074H215.252V48.6529H222.794V50.3074H220.154V64.599H217.98Z" fill="#263238"/>
<path d="M228.083 64.775C227.279 64.8067 226.483 64.6016 225.794 64.1854C225.18 63.7882 224.697 63.2189 224.404 62.5485C224.07 61.7834 223.882 60.9626 223.85 60.1284L225.821 59.6004C225.859 60.153 225.947 60.7009 226.085 61.2373C226.204 61.7139 226.436 62.1548 226.763 62.5221C226.936 62.6923 227.143 62.8248 227.37 62.9111C227.597 62.9974 227.84 63.0358 228.083 63.0237C228.323 63.0418 228.565 63.008 228.791 62.9245C229.017 62.841 229.223 62.7097 229.394 62.5397C229.709 62.1509 229.866 61.6576 229.834 61.1581C229.87 60.5328 229.697 59.9133 229.341 59.398C228.976 58.9123 228.56 58.4669 228.1 58.0692L225.46 55.7019C224.973 55.286 224.577 54.7736 224.298 54.197C224.034 53.5591 223.908 52.8721 223.929 52.1818C223.898 51.6837 223.971 51.1846 224.144 50.7164C224.317 50.2482 224.585 49.8211 224.932 49.4625C225.681 48.7997 226.662 48.4611 227.66 48.5209C228.224 48.5102 228.786 48.5934 229.323 48.7673C229.78 48.9135 230.192 49.174 230.52 49.5241C230.865 49.8926 231.126 50.3308 231.286 50.8089C231.496 51.3962 231.626 52.0088 231.673 52.6306L229.781 53.141C229.751 52.6531 229.672 52.1695 229.543 51.6978C229.448 51.2896 229.234 50.9189 228.927 50.6329C228.569 50.3461 228.118 50.2019 227.66 50.2281C227.425 50.2127 227.19 50.2445 226.968 50.3216C226.746 50.3987 226.541 50.5195 226.366 50.6769C226.206 50.852 226.083 51.0576 226.005 51.2814C225.926 51.5052 225.893 51.7426 225.909 51.9794C225.893 52.3953 225.977 52.8089 226.155 53.185C226.356 53.5523 226.625 53.8779 226.947 54.1442L229.649 56.5115C230.246 57.0601 230.762 57.6913 231.18 58.386C231.651 59.1652 231.889 60.063 231.867 60.9733C231.884 61.6853 231.714 62.3894 231.374 63.0149C231.06 63.5723 230.593 64.0276 230.027 64.3262C229.425 64.6296 228.757 64.7836 228.083 64.775Z" fill="#263238"/>
<path d="M164.157 206.917C163.456 206.962 162.76 206.773 162.177 206.38C161.707 206.019 161.364 205.516 161.201 204.946C161.01 204.291 160.918 203.612 160.928 202.931V198.671C160.913 197.955 161.005 197.24 161.201 196.55C161.355 195.985 161.7 195.491 162.177 195.151C162.769 194.783 163.461 194.607 164.157 194.65C164.772 194.623 165.382 194.769 165.917 195.072C166.358 195.347 166.693 195.762 166.868 196.251C167.075 196.848 167.173 197.477 167.158 198.108V199.059H165.565V198.179C165.57 197.785 165.549 197.391 165.504 196.999C165.478 196.697 165.347 196.414 165.134 196.198C164.851 195.988 164.5 195.891 164.149 195.926C163.777 195.891 163.406 195.998 163.11 196.225C162.873 196.461 162.723 196.772 162.688 197.105C162.616 197.532 162.583 197.965 162.591 198.399V203.159C162.574 203.639 162.624 204.119 162.741 204.585C162.8 204.887 162.974 205.155 163.225 205.333C163.504 205.497 163.825 205.577 164.149 205.562C164.324 205.577 164.5 205.558 164.668 205.505C164.835 205.452 164.991 205.367 165.125 205.254C165.332 205.02 165.462 204.728 165.495 204.418C165.544 204.006 165.568 203.592 165.565 203.177V202.297H167.158V203.177C167.167 203.83 167.075 204.48 166.885 205.104C166.742 205.625 166.433 206.085 166.005 206.416C165.456 206.77 164.81 206.945 164.157 206.917Z" fill="#263238"/>
<path d="M171.849 206.917C171.169 206.95 170.493 206.785 169.904 206.442C169.418 206.119 169.055 205.642 168.875 205.087C168.652 204.42 168.545 203.721 168.558 203.019V198.469C168.542 197.775 168.65 197.084 168.875 196.427C169.067 195.89 169.432 195.432 169.913 195.125C170.513 194.824 171.174 194.667 171.845 194.667C172.516 194.667 173.177 194.824 173.776 195.125C174.252 195.439 174.614 195.899 174.806 196.436C175.032 197.089 175.139 197.778 175.123 198.469V203.071C175.137 203.768 175.03 204.462 174.806 205.122C174.622 205.675 174.26 206.151 173.776 206.477C173.191 206.81 172.521 206.963 171.849 206.917ZM171.849 205.597C172.207 205.62 172.563 205.524 172.861 205.324C173.097 205.126 173.259 204.853 173.319 204.55C173.401 204.168 173.44 203.779 173.433 203.388V198.108C173.441 197.721 173.402 197.334 173.319 196.955C173.257 196.663 173.095 196.402 172.861 196.216C172.561 196.023 172.205 195.933 171.849 195.961C171.493 195.934 171.138 196.024 170.837 196.216C170.598 196.399 170.433 196.661 170.371 196.955C170.284 197.333 170.243 197.72 170.248 198.108V203.388C170.244 203.779 170.285 204.169 170.371 204.55C170.43 204.855 170.595 205.129 170.837 205.324C171.136 205.523 171.491 205.618 171.849 205.597Z" fill="#263238"/>
<path d="M176.768 206.785V194.773H177.912L181.327 202.746V194.773H182.717V206.785H181.652L178.194 198.583V206.785H176.768Z" fill="#263238"/>
<path d="M184.601 206.785V194.773H189.238V195.978H186.299V199.974H188.596V201.162H186.299V206.785H184.601Z" fill="#263238"/>
<path d="M190.489 206.785V194.773H192.134V206.785H190.489Z" fill="#263238"/>
<path d="M194.07 206.785V194.773H196.49C197.167 194.752 197.841 194.86 198.479 195.09C198.977 195.282 199.389 195.648 199.64 196.119C199.913 196.693 200.042 197.324 200.019 197.958C200.022 198.385 199.972 198.811 199.869 199.226C199.785 199.58 199.622 199.911 199.394 200.194C199.161 200.465 198.856 200.663 198.514 200.766L200.221 206.785H198.619L197.044 201.144H195.742V206.785H194.07ZM195.75 199.947H196.384C196.779 199.959 197.172 199.899 197.546 199.771C197.83 199.656 198.062 199.44 198.197 199.164C198.348 198.781 198.417 198.37 198.399 197.958C198.448 197.424 198.311 196.89 198.012 196.445C197.807 196.262 197.565 196.126 197.302 196.045C197.039 195.965 196.762 195.942 196.49 195.978H195.75V199.947Z" fill="#263238"/>
<path d="M201.735 206.785L201.963 194.773H203.609L205.721 204.515L207.86 194.773H209.488L209.716 206.785H208.361L208.229 198.064L206.196 206.785H205.255L203.231 198.064L203.099 206.785H201.735Z" fill="#263238"/>
<path d="M150.931 224.571L153.483 212.567H155.102L157.663 224.571H156.079L155.498 221.552H153.052L152.48 224.579L150.931 224.571ZM153.307 220.346H155.304L154.301 214.934L153.307 220.346Z" fill="#263238"/>
<path d="M159.722 224.571V213.808H157.689V212.567H163.418V213.808H161.394V224.571H159.722Z" fill="#263238"/>
<path d="M165.847 224.571V213.808H163.814V212.567H169.49V213.808H167.519V224.571H165.847Z" fill="#263238"/>
<path d="M170.653 224.571V212.567H175.308V213.808H172.325V217.786H174.745V218.965H172.325V223.365H175.335V224.562L170.653 224.571Z" fill="#263238"/>
<path d="M176.68 224.571V212.567H177.824L181.23 220.54V212.567H182.629V224.571H181.565L178.106 216.369V224.571H176.68Z" fill="#263238"/>
<path d="M184.539 224.57V212.567H187.179C187.905 212.532 188.629 212.671 189.291 212.972C189.799 213.231 190.196 213.666 190.409 214.195C190.639 214.862 190.737 215.567 190.699 216.272V220.672C190.716 221.402 190.602 222.129 190.365 222.819C190.162 223.37 189.781 223.838 189.282 224.148C188.663 224.476 187.967 224.631 187.267 224.597L184.539 224.57ZM186.211 223.374H187.179C187.643 223.418 188.106 223.289 188.481 223.013C188.758 222.735 188.924 222.366 188.948 221.974C189.005 221.428 189.032 220.878 189.027 220.329V216.43C189.037 215.923 188.999 215.416 188.913 214.917C188.889 214.743 188.831 214.575 188.742 214.424C188.653 214.273 188.534 214.141 188.393 214.037C188.007 213.832 187.571 213.741 187.135 213.773H186.255L186.211 223.374Z" fill="#263238"/>
<path d="M191.668 224.571L194.22 212.567H195.839L198.4 224.571H196.86L196.314 221.543H193.868L193.287 224.571H191.668ZM194.044 220.346H196.041L195.038 214.934L194.044 220.346Z" fill="#263238"/>
<path d="M199.614 224.571V212.567H200.758L204.172 220.54V212.567H205.563V224.571H204.498L201.039 216.369V224.571H199.614Z" fill="#263238"/>
<path d="M210.456 224.702C209.756 224.746 209.061 224.561 208.476 224.174C208.005 223.81 207.663 223.304 207.499 222.731C207.308 222.077 207.217 221.398 207.226 220.716V216.474C207.213 215.758 207.305 215.043 207.499 214.353C207.661 213.792 208.005 213.3 208.476 212.954C209.071 212.592 209.761 212.42 210.456 212.461C211.069 212.437 211.678 212.58 212.216 212.875C212.659 213.151 212.995 213.57 213.167 214.063C213.366 214.658 213.462 215.283 213.448 215.911V216.861H211.864V215.981C211.868 215.587 211.848 215.194 211.803 214.802C211.78 214.502 211.648 214.221 211.433 214.01C211.148 213.795 210.794 213.695 210.439 213.728C210.069 213.697 209.701 213.808 209.409 214.037C209.17 214.271 209.02 214.583 208.986 214.917C208.915 215.347 208.882 215.783 208.89 216.219V220.971C208.873 221.454 208.923 221.937 209.039 222.406C209.102 222.707 209.274 222.973 209.523 223.154C209.79 223.308 210.095 223.384 210.403 223.374C210.759 223.408 211.113 223.301 211.389 223.074C211.596 222.841 211.725 222.549 211.759 222.238C211.807 221.824 211.831 221.406 211.829 220.989V220.109H213.413V220.989C213.424 221.644 213.335 222.297 213.149 222.925C213.005 223.443 212.696 223.9 212.269 224.227C211.728 224.57 211.095 224.736 210.456 224.702Z" fill="#263238"/>
<path d="M215.076 224.571V212.567H219.741V213.808H216.766V217.786H219.177V218.965H216.766V223.365H219.741V224.562L215.076 224.571Z" fill="#263238"/>
<path d="M298.063 382.808C298.063 382.808 294.155 388.185 292.448 388.916C290.741 389.646 287.555 390.139 286.578 392.339C286.04 393.405 285.708 394.564 285.601 395.754H309.793C309.793 395.754 310.77 392.577 309.793 390.623C309.186 389.392 308.774 388.073 308.57 386.716L298.063 382.808Z" fill="white" stroke="#263238" stroke-linecap="round" stroke-linejoin="round"/>
<path d="M310.242 393.316H286.226C285.904 394.093 285.705 394.915 285.636 395.754H309.828C310.049 394.957 310.188 394.141 310.242 393.316Z" fill="white" stroke="#263238" stroke-linecap="round" stroke-linejoin="round"/>
<path d="M323.996 388.185L324.48 396H336.211C336.483 394.535 336.399 393.025 335.965 391.6C335.234 389.4 334.495 387.446 334.495 387.446L323.996 388.185Z" fill="white" stroke="#263238" stroke-linecap="round" stroke-linejoin="round"/>
<path d="M324.463 396H336.194C336.373 395.033 336.4 394.044 336.273 393.069H324.296L324.463 396Z" fill="white" stroke="#263238" stroke-linecap="round" stroke-linejoin="round"/>
<path d="M288.566 268.959C288.566 268.959 290.529 294.365 291.022 303.394C291.515 312.424 298.062 382.808 298.062 382.808C298.062 382.808 307.593 388.669 308.807 388.669C310.021 388.669 311.5 303.887 311.5 303.887L323.961 388.185C325.303 388.617 326.698 388.862 328.106 388.916C330.069 388.916 334.46 387.446 334.46 387.446L330.341 285.794V268.959C330.341 268.959 305.701 272.374 299.074 271.397C295.502 270.919 291.984 270.103 288.566 268.959Z" fill="#263238" stroke="#263238" stroke-linecap="round" stroke-linejoin="round"/>
<path d="M318.373 284.351L312.996 288.496L311.535 303.887" stroke="#808080" stroke-linecap="round" stroke-linejoin="round"/>
<path d="M320.591 165.732C320.591 165.732 310.62 164.482 307.742 167.87C304.865 171.258 304.222 177.885 302.181 179.46C300.139 181.036 299.021 179.082 298.115 181.141C297.208 183.2 298.687 185.744 298.687 185.744C298.687 185.744 298.44 195.653 299.567 196.137C300.693 196.621 305.727 196.621 305.727 196.621L304.909 200.687L317.511 201.215L318.611 196.955C318.611 196.955 328.194 191.402 330.781 187.187C333.369 182.972 332.753 173.626 330.165 170.37C327.578 167.113 320.591 165.732 320.591 165.732Z" fill="#B2B2B2" stroke="#263238" stroke-linecap="round" stroke-linejoin="round"/>
<path d="M305.156 178.994C304.848 179.733 304.346 180.244 304.047 180.12C303.748 179.997 303.765 179.284 304.047 178.536C304.328 177.788 304.848 177.287 305.147 177.41C305.446 177.533 305.464 178.246 305.156 178.994Z" fill="#263238"/>
<path d="M299.646 187.345C300.17 187.613 300.777 187.672 301.342 187.508C301.908 187.345 302.39 186.972 302.691 186.465" stroke="#263238" stroke-linecap="round" stroke-linejoin="round"/>
<path d="M305.261 175.518C305.261 175.518 306.537 174.822 306.686 176.943" stroke="#263238" stroke-linecap="round" stroke-linejoin="round"/>
<path d="M330.121 170.378C327.534 167.122 320.591 165.732 320.591 165.732C320.591 165.732 310.62 164.482 307.742 167.87C307.742 167.87 313.251 166.48 312.538 168.83C311.826 171.179 306.114 174.77 308.077 176.16C310.039 177.551 312.248 176.495 311.333 178.554C310.418 180.613 309.274 182.628 310.233 182.822C311.192 183.016 313.876 180.807 315.02 181.291C316.164 181.775 317.467 185.268 316.367 187.037C315.627 188.126 314.489 188.882 313.199 189.141C313.199 189.141 315.161 194.271 316.886 195.618C317.634 196.206 318.577 196.492 319.526 196.418C321.964 194.931 328.705 190.619 330.808 187.187C333.325 182.98 332.709 173.635 330.121 170.378Z" fill="#263238" stroke="#263238" stroke-linecap="round" stroke-linejoin="round"/>
<path d="M287.422 269.469L288.126 275.075C288.126 275.075 291.646 278.815 301.679 279.053C311.711 279.291 324.119 278.12 327.155 277.187C330.191 276.254 330.896 275.313 330.896 275.313L330.341 268.959C330.341 268.959 311.966 275.313 287.422 269.469Z" fill="white" stroke="#263238" stroke-linecap="round" stroke-linejoin="round"/>
<path d="M332.462 283.304C332.462 283.304 331.706 286.164 331.53 287.017C331.354 287.871 331.873 294.058 331.873 294.938C331.873 295.818 332.753 296.698 333.422 295.967C333.422 295.967 334.302 299.074 335.322 298.898C336.343 298.722 339.626 295.114 340.312 292.007C340.999 288.901 340.145 283.911 340.145 283.911L332.462 283.304Z" fill="#B2B2B2" stroke="#263238" stroke-linecap="round" stroke-linejoin="round"/>
<path d="M333.765 287.713C333.955 288.556 334.375 289.33 334.98 289.948L335.86 290.643L336.379 293.741C336.379 293.741 336.036 295.633 335.86 296.671" fill="#B2B2B2"/>
<path d="M333.765 287.713C333.955 288.556 334.375 289.33 334.98 289.948L335.86 290.643L336.379 293.741C336.379 293.741 336.036 295.633 335.86 296.671" stroke="#263238" stroke-linecap="round" stroke-linejoin="round"/>
<path d="M333.421 295.976L333.597 291.497" stroke="#263238" stroke-linecap="round" stroke-linejoin="round"/>
<path d="M332.453 279.467C332.453 279.467 332.497 282.01 332.453 283.303C332.409 284.597 334.997 286.718 338.27 285.891C341.544 285.063 341.606 278.639 341.606 278.639C341.606 278.639 337.091 281.975 332.453 279.467Z" fill="white" stroke="#263238" stroke-linecap="round" stroke-linejoin="round"/>
<path d="M330.746 207.894C330.746 207.894 337.848 212.532 339.758 216.078C341.667 219.625 346.314 252.943 346.86 256.489C347.405 260.036 342.459 278.604 341.667 281.06C340.875 283.515 336.449 283.075 334.847 282.424C333.929 282.024 333.137 281.381 332.558 280.563C331.98 279.745 331.636 278.785 331.565 277.786L330.746 261.408V207.894Z" fill="white" stroke="#263238" stroke-linecap="round" stroke-linejoin="round"/>
<path d="M333.941 247.742C334.275 235.659 334.918 224.342 335.12 222.362C335.349 220.03 335.12 213.852 333.554 210.112C331.336 207.917 328.792 206.08 326.012 204.664C325.107 204.385 324.187 204.156 323.257 203.978L324.032 203.731C322.672 203.143 321.272 202.652 319.843 202.262C316.173 201.285 306.405 200.801 303.474 203.485C303.474 203.485 295.009 206.125 290.846 209.161C288.748 211.778 287.436 214.936 287.062 218.269C286.516 224.271 284.906 259.675 284.906 259.675C284.906 259.675 282.952 265.536 285.399 268.475C287.845 271.414 292.967 275.806 307.866 275.313C322.765 274.82 329.866 272.858 331.873 271.01C332.445 270.284 332.854 269.444 333.07 268.545C333.786 266.233 334.122 263.82 334.064 261.4C333.985 256.753 333.853 247.794 333.941 247.742Z" fill="white" stroke="#263238" stroke-linecap="round" stroke-linejoin="round"/>
<path d="M300.781 204.462C301.823 202.998 302.967 201.61 304.204 200.308C304.935 199.824 315.442 197.378 318.619 198.354C321.796 199.331 323.257 203.978 323.257 203.978C315.778 203.114 308.216 203.277 300.781 204.462Z" fill="white" stroke="#263238" stroke-linecap="round" stroke-linejoin="round"/>
<path d="M242.224 215.612C242.224 215.612 240.728 212.268 239.84 210.49C238.951 208.712 232.289 203.679 230.951 202.051C229.614 200.423 227.986 201.171 227.845 202.64C227.704 204.11 229.174 205.756 229.605 206.345C230.036 206.935 231.083 208.422 231.083 208.422C231.083 208.422 227.229 210.939 226.938 211.678C226.648 212.417 227.528 215.383 227.818 216.421C228.109 217.46 228.558 218.49 229.297 218.49H230.036C230.036 218.49 231.374 219.528 232.263 220.126C233.151 220.725 236.196 220.681 236.196 220.681L238.335 221.904C238.335 221.904 239.417 217.618 242.224 215.612Z" fill="#B2B2B2" stroke="#263238" stroke-linecap="round" stroke-linejoin="round"/>
<path d="M230.062 218.489C229.68 217.602 229.48 216.648 229.472 215.682L230.062 218.489Z" fill="white"/>
<path d="M230.062 218.489C229.68 217.602 229.48 216.648 229.472 215.682" stroke="#263238" stroke-linecap="round" stroke-linejoin="round"/>
<path d="M246.484 217.662C246.484 217.662 243.641 216.342 242.224 215.612C240.807 214.881 237.067 216.597 236.222 220.681C235.378 224.764 242.471 228.284 242.471 228.284C242.471 228.284 241.203 221.464 246.484 217.662Z" fill="white" stroke="#263238" stroke-linecap="round" stroke-linejoin="round"/>
<path d="M300.782 204.462C300.782 204.462 287.582 209.258 285.971 210.349C284.361 211.44 268.775 229.71 268.775 229.71C268.775 229.71 250.295 219.237 247.84 217.873C245.384 216.509 241.195 216.87 240.104 220.971C239.013 225.072 239.831 228.346 243.105 230.801C246.379 233.256 267.13 247.451 270.139 248.542C273.149 249.634 280.788 244.142 280.788 244.142L294.983 231.584" fill="white"/>
<path d="M300.782 204.462C300.782 204.462 287.582 209.258 285.971 210.349C284.361 211.44 268.775 229.71 268.775 229.71C268.775 229.71 250.295 219.237 247.84 217.873C245.384 216.509 241.195 216.87 240.104 220.971C239.013 225.072 239.831 228.346 243.105 230.801C246.379 233.256 267.13 247.451 270.139 248.542C273.149 249.634 280.788 244.142 280.788 244.142L294.983 231.584" stroke="#263238" stroke-linecap="round" stroke-linejoin="round"/>
<path d="M241.837 396H379.086" stroke="#263238" stroke-linecap="round" stroke-linejoin="round"/>
<path d="M1 396H235.422" stroke="#263238" stroke-linecap="round" stroke-linejoin="round"/>
<path d="M339.503 53.2291L292.351 65.083L309.327 74.2353L339.503 53.2291Z" fill="white" stroke="#263238" stroke-linecap="round" stroke-linejoin="round"/>
<path d="M309.328 74.2353L310.771 87.3741L339.504 53.2291L309.328 74.2353Z" fill="#B2B2B2" stroke="#263238" stroke-linecap="round" stroke-linejoin="round"/>
<path d="M314.493 76.805L310.77 87.3741L339.503 53.2291L314.493 76.805Z" fill="white" stroke="#263238" stroke-linecap="round" stroke-linejoin="round"/>
<path d="M339.504 53.2291L314.493 76.805L328.802 86.4325L339.504 53.2291Z" fill="white" stroke="#263238" stroke-linecap="round" stroke-linejoin="round"/>
<path d="M104.061 124.036L102.521 124.916" stroke="#263238" stroke-linecap="round" stroke-linejoin="round"/>
<path d="M99.4406 126.632C83.5121 135.749 63.3595 148.686 44.4565 164.834C-5.09791 207.216 46.0141 237.63 119.848 206.433C192.46 175.791 255.98 142.578 303.07 92.5487" stroke="#263238" stroke-linecap="round" stroke-linejoin="round" stroke-dasharray="4.03 4.03"/>
<path d="M304.285 91.2463L305.473 89.9614" stroke="#263238" stroke-linecap="round" stroke-linejoin="round"/>
<path d="M239.26 78.2042C268.011 66.6671 313.024 33.2788 320.064 23.0705C353.505 -25.6039 268.222 21.416 268.222 21.416" stroke="#263238" stroke-linecap="round" stroke-linejoin="round" stroke-dasharray="4 4"/>
</svg>
