<svg width="36" height="36" viewBox="0 0 36 36" fill="none" xmlns="http://www.w3.org/2000/svg">
<path d="M6.33301 17.9998C6.33301 18.3866 6.48665 18.7575 6.76014 19.031C7.03363 19.3045 7.40457 19.4582 7.79134 19.4582H18.8601L15.5059 22.7978C15.3692 22.9333 15.2607 23.0946 15.1867 23.2723C15.1127 23.45 15.0746 23.6407 15.0746 23.8332C15.0746 24.0257 15.1127 24.2163 15.1867 24.394C15.2607 24.5717 15.3692 24.733 15.5059 24.8686C15.6415 25.0053 15.8028 25.1138 15.9805 25.1878C16.1582 25.2618 16.3488 25.3 16.5413 25.3C16.7339 25.3 16.9245 25.2618 17.1022 25.1878C17.2799 25.1138 17.4412 25.0053 17.5768 24.8686L23.4101 19.0353C23.5429 18.8966 23.6469 18.733 23.7163 18.554C23.8622 18.199 23.8622 17.8007 23.7163 17.4457C23.6469 17.2667 23.5429 17.1031 23.4101 16.9644L17.5768 11.1311C17.4408 10.9951 17.2794 10.8873 17.1017 10.8137C16.924 10.7401 16.7336 10.7022 16.5413 10.7022C16.349 10.7022 16.1586 10.7401 15.981 10.8137C15.8033 10.8873 15.6419 10.9951 15.5059 11.1311C15.37 11.2671 15.2621 11.4285 15.1885 11.6061C15.1149 11.7838 15.077 11.9742 15.077 12.1665C15.077 12.3588 15.1149 12.5492 15.1885 12.7269C15.2621 12.9045 15.37 13.0659 15.5059 13.2019L18.8601 16.5415H7.79134C7.40457 16.5415 7.03363 16.6951 6.76014 16.9686C6.48665 17.2421 6.33301 17.6131 6.33301 17.9998ZM25.2913 3.4165H10.708C9.54769 3.4165 8.43489 3.87744 7.61442 4.69791C6.79394 5.51838 6.33301 6.63118 6.33301 7.7915V12.1665C6.33301 12.5533 6.48665 12.9242 6.76014 13.1977C7.03363 13.4712 7.40457 13.6248 7.79134 13.6248C8.17812 13.6248 8.54905 13.4712 8.82254 13.1977C9.09603 12.9242 9.24967 12.5533 9.24967 12.1665V7.7915C9.24967 7.40473 9.40332 7.0338 9.67681 6.76031C9.9503 6.48682 10.3212 6.33317 10.708 6.33317H25.2913C25.6781 6.33317 26.049 6.48682 26.3225 6.76031C26.596 7.0338 26.7497 7.40473 26.7497 7.7915V28.2082C26.7497 28.5949 26.596 28.9659 26.3225 29.2394C26.049 29.5129 25.6781 29.6665 25.2913 29.6665H10.708C10.3212 29.6665 9.9503 29.5129 9.67681 29.2394C9.40332 28.9659 9.24967 28.5949 9.24967 28.2082V23.8332C9.24967 23.4464 9.09603 23.0755 8.82254 22.802C8.54905 22.5285 8.17812 22.3748 7.79134 22.3748C7.40457 22.3748 7.03363 22.5285 6.76014 22.802C6.48665 23.0755 6.33301 23.4464 6.33301 23.8332V28.2082C6.33301 29.3685 6.79394 30.4813 7.61442 31.3018C8.43489 32.1222 9.54769 32.5832 10.708 32.5832H25.2913C26.4517 32.5832 27.5645 32.1222 28.3849 31.3018C29.2054 30.4813 29.6663 29.3685 29.6663 28.2082V7.7915C29.6663 6.63118 29.2054 5.51838 28.3849 4.69791C27.5645 3.87744 26.4517 3.4165 25.2913 3.4165Z" fill="#FF5858"/>
</svg>
