<svg width="34" height="34" viewBox="0 0 34 34" fill="none" xmlns="http://www.w3.org/2000/svg">
<path d="M16.9993 14.1673L11.3327 6.23398L13.5993 2.83398H20.3993L22.666 6.23398L16.9993 14.1673ZM21.9577 9.63399L20.2577 12.0423C23.3743 13.3173 25.4993 16.2923 25.4993 19.834C25.4993 22.0883 24.6038 24.2503 23.0098 25.8444C21.4157 27.4385 19.2537 28.334 16.9993 28.334C14.745 28.334 12.583 27.4385 10.9889 25.8444C9.39488 24.2503 8.49935 22.0883 8.49935 19.834C8.49935 16.2923 10.6243 13.3173 13.741 12.0423L12.041 9.63399C8.21602 11.4757 5.66602 15.3007 5.66602 19.834C5.66602 22.8398 6.86006 25.7225 8.98547 27.8479C11.1109 29.9733 13.9936 31.1673 16.9993 31.1673C20.0051 31.1673 22.8878 29.9733 25.0132 27.8479C27.1386 25.7225 28.3327 22.8398 28.3327 19.834C28.3327 15.3007 25.7827 11.4757 21.9577 9.63399Z" fill="#36689E"/>
</svg>
