<svg width="34" height="34" viewBox="0 0 34 34" fill="none" xmlns="http://www.w3.org/2000/svg">
<path d="M16.9993 5.66602C18.5022 5.66602 19.9436 6.26304 21.0063 7.32574C22.069 8.38845 22.666 9.82979 22.666 11.3327C22.666 12.8356 22.069 14.2769 21.0063 15.3396C19.9436 16.4023 18.5022 16.9993 16.9993 16.9993C15.4965 16.9993 14.0551 16.4023 12.9924 15.3396C11.9297 14.2769 11.3327 12.8356 11.3327 11.3327C11.3327 9.82979 11.9297 8.38845 12.9924 7.32574C14.0551 6.26304 15.4965 5.66602 16.9993 5.66602ZM16.9993 8.49935C16.2479 8.49935 15.5272 8.79786 14.9959 9.32921C14.4645 9.86057 14.166 10.5812 14.166 11.3327C14.166 12.0841 14.4645 12.8048 14.9959 13.3362C15.5272 13.8675 16.2479 14.166 16.9993 14.166C17.7508 14.166 18.4715 13.8675 19.0028 13.3362C19.5342 12.8048 19.8327 12.0841 19.8327 11.3327C19.8327 10.5812 19.5342 9.86057 19.0028 9.32921C18.4715 8.79786 17.7508 8.49935 16.9993 8.49935ZM16.9993 18.416C20.7818 18.416 28.3327 20.3002 28.3327 24.0827V28.3327H5.66602V24.0827C5.66602 20.3002 13.2168 18.416 16.9993 18.416ZM16.9993 21.1077C12.7918 21.1077 8.35768 23.176 8.35768 24.0827V25.641H25.641V24.0827C25.641 23.176 21.2068 21.1077 16.9993 21.1077Z" fill="#36689E"/>
</svg>
