<svg width="40" height="40" viewBox="0 0 40 40" fill="none" xmlns="http://www.w3.org/2000/svg">
<path d="M27.5001 4.24773V1.3788C27.5001 0.624791 26.8201 -0.000488281 26.0001 -0.000488281C25.1802 -0.000488281 24.5002 0.624791 24.5002 1.3788V4.13739H11.5003V1.3788C11.5003 0.624791 10.8204 -0.000488281 10.0004 -0.000488281C9.18037 -0.000488281 8.50038 0.624791 8.50038 1.3788V4.24773C3.10043 4.70749 0.480454 7.66837 0.0804583 12.0637C0.0404587 12.597 0.520454 13.0384 1.08045 13.0384H34.9201C35.5001 13.0384 35.98 12.5787 35.92 12.0637C35.5201 7.66837 32.9001 4.70749 27.5001 4.24773Z" fill="#FC8686"/>
<path d="M33.9997 15.7966H1.99998C0.899991 15.7966 0 16.6241 0 17.6356V28.9642C0 34.4814 2.99997 38.1595 9.9999 38.1595H19.8598C21.2398 38.1595 22.1998 36.9273 21.7598 35.7319C21.3598 34.6653 21.0198 33.4883 21.0198 32.6423C21.0198 27.07 25.9597 22.5275 32.0197 22.5275C32.5997 22.5275 33.1797 22.5643 33.7397 22.6562C34.9397 22.8218 36.0196 21.9574 36.0196 20.854V17.654C35.9996 16.6241 35.0997 15.7966 33.9997 15.7966ZM12.4199 30.2699C12.0399 30.601 11.5199 30.8033 10.9999 30.8033C10.7399 30.8033 10.4799 30.7481 10.2399 30.6561C9.9999 30.5642 9.77991 30.4354 9.57991 30.2699C9.21991 29.9205 8.99991 29.4607 8.99991 28.9642C8.99991 28.7251 9.05991 28.486 9.15991 28.2654C9.25991 28.0263 9.39991 27.8424 9.57991 27.6585C9.77991 27.493 9.9999 27.3642 10.2399 27.2723C10.9599 26.978 11.8599 27.1435 12.4199 27.6585C12.5999 27.8424 12.7399 28.0263 12.8399 28.2654C12.9399 28.486 12.9999 28.7251 12.9999 28.9642C12.9999 29.4607 12.7799 29.9205 12.4199 30.2699ZM12.4199 23.8332C12.0399 24.1643 11.5199 24.3666 10.9999 24.3666C10.7399 24.3666 10.4799 24.3298 10.2399 24.2194C9.9999 24.1275 9.77991 23.9987 9.57991 23.8332C9.21991 23.4838 8.99991 23.0057 8.99991 22.5275C8.99991 22.2884 9.05991 22.0493 9.15991 21.8287C9.25991 21.608 9.39991 21.4057 9.57991 21.2218C9.77991 21.0563 9.9999 20.9275 10.2399 20.8356C10.9599 20.5597 11.8599 20.7068 12.4199 21.2218C12.5999 21.4057 12.7399 21.608 12.8399 21.8287C12.9399 22.0493 12.9999 22.2884 12.9999 22.5275C12.9999 23.0057 12.7799 23.4838 12.4199 23.8332ZM19.8398 23.2263C19.7398 23.447 19.5998 23.6493 19.4198 23.8332C19.2198 23.9987 18.9998 24.1275 18.7598 24.2194C18.5198 24.3298 18.2598 24.3666 17.9998 24.3666C17.4798 24.3666 16.9598 24.1643 16.5798 23.8332C16.3998 23.6493 16.2598 23.447 16.1598 23.2263C16.0598 23.0057 15.9998 22.7666 15.9998 22.5275C15.9998 22.0493 16.2198 21.5712 16.5798 21.2218C17.1398 20.7068 18.0198 20.5413 18.7598 20.8356C18.9998 20.9275 19.2198 21.0563 19.4198 21.2218C19.7798 21.5712 19.9998 22.0493 19.9998 22.5275C19.9998 22.7666 19.9598 23.0057 19.8398 23.2263Z" fill="#FC8686"/>
<path d="M31.9999 25.2871C27.58 25.2871 24 28.579 24 32.6433C24 36.7076 27.58 39.9996 31.9999 39.9996C36.4199 39.9996 39.9998 36.7076 39.9998 32.6433C39.9998 28.579 36.4199 25.2871 31.9999 25.2871ZM35.1999 35.6594C34.8999 35.9352 34.5199 36.064 34.1399 36.064C33.7599 36.064 33.3799 35.9352 33.0799 35.6594L32.0199 34.6847L30.9199 35.6962C30.6199 35.972 30.2399 36.1008 29.8599 36.1008C29.4799 36.1008 29.0999 35.972 28.8 35.6962C28.22 35.1628 28.22 34.2801 28.8 33.7468L29.8999 32.7353L28.84 31.7606C28.26 31.2273 28.26 30.3445 28.84 29.8112C29.4199 29.2779 30.3799 29.2779 30.9599 29.8112L32.0199 30.8043L33.0199 29.8847C33.5999 29.3514 34.5599 29.3514 35.1399 29.8847C35.7199 30.4181 35.7199 31.3008 35.1399 31.8341L34.1399 32.7537L35.1999 33.7284C35.7799 34.2617 35.7799 35.1261 35.1999 35.6594Z" fill="#FC8686"/>
</svg>
