<svg width="17" height="21" viewBox="0 0 17 21" fill="none" xmlns="http://www.w3.org/2000/svg">
<path d="M10.5827 0.0820312H2.24935C1.69681 0.0820313 1.16691 0.301525 0.77621 0.692225C0.385509 1.08293 0.166016 1.61283 0.166016 2.16536V18.832C0.166016 19.3846 0.385509 19.9145 0.77621 20.3052C1.16691 20.6959 1.69681 20.9154 2.24935 20.9154H14.7494C15.3019 20.9154 15.8318 20.6959 16.2225 20.3052C16.6132 19.9145 16.8327 19.3846 16.8327 18.832V6.33203L10.5827 0.0820312ZM5.8931 14.8633C5.57123 15.1654 5.09622 15.3008 4.5431 15.3008C4.43585 15.3019 4.32865 15.2957 4.22227 15.282V16.7674H3.29102V12.6674C3.71128 12.6048 4.13593 12.5762 4.56081 12.582C5.14102 12.582 5.55352 12.6924 5.83164 12.9143C6.09623 13.1247 6.27539 13.4695 6.27539 13.8758C6.27435 14.2841 6.13893 14.6289 5.8931 14.8633ZM9.85873 16.2747C9.42123 16.6383 8.7556 16.8112 7.94206 16.8112C7.45456 16.8112 7.10977 16.7799 6.87539 16.7487V12.6685C7.29581 12.6071 7.72033 12.5782 8.14518 12.582C8.93373 12.582 9.44623 12.7237 9.84623 13.0258C10.2785 13.3466 10.5494 13.8581 10.5494 14.5924C10.5494 15.3872 10.2587 15.9362 9.85873 16.2747ZM13.7077 13.3841H12.1119V14.3331H13.6035V15.0977H12.1119V16.7685H11.1681V12.6133H13.7077V13.3841ZM10.5827 7.3737H9.54102V2.16536L14.7494 7.3737H10.5827Z" fill="#C9250F"/>
</svg>
