<svg width="44" height="44" viewBox="0 0 44 44" fill="none" xmlns="http://www.w3.org/2000/svg">
<path d="M22 12.2822V18.3933V24.5044M22 31.7178V30.6067V31.7178ZM2 22C2 12.5711 2 7.85778 4.92889 4.92889C7.85778 2 12.5733 2 22 2C31.4289 2 36.1422 2 39.0711 4.92889C42 7.85778 42 12.5733 42 22C42 31.4289 42 36.1422 39.0711 39.0711C36.1422 42 31.4267 42 22 42C12.5711 42 7.85778 42 4.92889 39.0711C2 36.1422 2 31.4267 2 22Z" fill="#F30000"/>
<path d="M22 12.2822V18.3933V24.5044M22 31.7178V30.6067M2 22C2 12.5711 2 7.85778 4.92889 4.92889C7.85778 2 12.5733 2 22 2C31.4289 2 36.1422 2 39.0711 4.92889C42 7.85778 42 12.5733 42 22C42 31.4289 42 36.1422 39.0711 39.0711C36.1422 42 31.4267 42 22 42C12.5711 42 7.85778 42 4.92889 39.0711C2 36.1422 2 31.4267 2 22Z" stroke="white" stroke-width="3" stroke-linecap="round" stroke-linejoin="round"/>
</svg>
