<svg width="25" height="25" viewBox="0 0 25 25" fill="none" xmlns="http://www.w3.org/2000/svg">
<path d="M23.4375 4.57031V20.4281H1.5625V4.57031H23.4375Z" fill="#2DCC9F"/>
<path d="M18.932 6.67376C18.5291 6.58874 18.1091 6.65119 17.7484 6.84975C17.3876 7.04831 17.1102 7.36978 16.9665 7.75567C16.8228 8.14155 16.8224 8.56621 16.9654 8.95235C17.1084 9.3385 17.3852 9.66047 17.7456 9.85969C18.106 10.0589 18.5259 10.1221 18.929 10.0378C19.332 9.95354 19.6914 9.72734 19.9418 9.40041C20.1921 9.07348 20.3168 8.66753 20.293 8.25644C20.2693 7.84535 20.0988 7.45644 19.8125 7.16048C19.5741 6.91405 19.2675 6.74455 18.932 6.67376ZM14.15 15.7042C12.7312 13.7313 11.312 11.7587 9.89219 9.78626L3.57812 18.5683H12.0938C12.7792 17.6141 13.4651 16.6602 14.1516 15.7066M17.2328 12.5011C15.7781 14.523 14.324 16.5451 12.8703 18.5675H21.5961C20.1424 16.5451 18.688 14.523 17.2328 12.5011Z" fill="white"/>
</svg>
