<svg width="83" height="88" viewBox="0 0 83 88" fill="none" xmlns="http://www.w3.org/2000/svg">
<g filter="url(#filter0_d_14739_11551)">
<g clip-path="url(#clip0_14739_11551)">
<rect x="0.84098" y="0.840942" width="5.89474" height="85.8948" rx="2.94737" fill="#36689E"/>
<path fill-rule="evenodd" clip-rule="evenodd" d="M22.2285 32.0707C22.2285 31.6379 22.4004 31.2229 22.7064 30.917C23.0123 30.611 23.4273 30.4391 23.8601 30.4391H58.6671C59.0998 30.4391 59.5148 30.611 59.8208 30.917C60.1268 31.2229 60.2987 31.6379 60.2987 32.0707C60.2987 32.5034 60.1268 32.9184 59.8208 33.2244C59.5148 33.5303 59.0998 33.7022 58.6671 33.7022H23.8601C23.4273 33.7022 23.0123 33.5303 22.7064 33.2244C22.4004 32.9184 22.2285 32.5034 22.2285 32.0707ZM22.2285 42.9479C22.2285 42.5151 22.4004 42.1001 22.7064 41.7942C23.0123 41.4882 23.4273 41.3163 23.8601 41.3163H47.7899C48.2226 41.3163 48.6376 41.4882 48.9436 41.7942C49.2496 42.1001 49.4215 42.5151 49.4215 42.9479C49.4215 43.3806 49.2496 43.7956 48.9436 44.1016C48.6376 44.4075 48.2226 44.5794 47.7899 44.5794H23.8601C23.4273 44.5794 23.0123 44.4075 22.7064 44.1016C22.4004 43.7956 22.2285 43.3806 22.2285 42.9479ZM22.2285 53.8251C22.2285 53.3923 22.4004 52.9773 22.7064 52.6714C23.0123 52.3654 23.4273 52.1935 23.8601 52.1935H34.7373C35.17 52.1935 35.585 52.3654 35.891 52.6714C36.1969 52.9773 36.3688 53.3923 36.3688 53.8251C36.3688 54.2578 36.1969 54.6728 35.891 54.9788C35.585 55.2847 35.17 55.4566 34.7373 55.4566H23.8601C23.4273 55.4566 23.0123 55.2847 22.7064 54.9788C22.4004 54.6728 22.2285 54.2578 22.2285 53.8251Z" fill="#36689E"/>
</g>
</g>
<defs>
<filter id="filter0_d_14739_11551" x="-0.842106" y="0" width="84.6842" height="87.6842" filterUnits="userSpaceOnUse" color-interpolation-filters="sRGB">
<feFlood flood-opacity="0" result="BackgroundImageFix"/>
<feColorMatrix in="SourceAlpha" type="matrix" values="0 0 0 0 0 0 0 0 0 0 0 0 0 0 0 0 0 0 127 0" result="hardAlpha"/>
<feOffset dy="0.842106"/>
<feGaussianBlur stdDeviation="0.421053"/>
<feColorMatrix type="matrix" values="0 0 0 0 0 0 0 0 0 0 0 0 0 0 0 0 0 0 0.12 0"/>
<feBlend mode="normal" in2="BackgroundImageFix" result="effect1_dropShadow_14739_11551"/>
<feBlend mode="normal" in="SourceGraphic" in2="effect1_dropShadow_14739_11551" result="shape"/>
</filter>
<clipPath id="clip0_14739_11551">
<rect width="83" height="86" rx="6.73684" fill="white"/>
</clipPath>
</defs>
</svg>
