<svg width="26" height="26" viewBox="0 0 26 26" fill="none" xmlns="http://www.w3.org/2000/svg">
<circle cx="13" cy="12.998" r="13" fill="#FE6A6A" fill-opacity="0.22"/>
<path d="M10.985 18.998H9.29V8.52805H13.805C14.745 8.52805 15.485 8.81305 16.025 9.38305C16.565 9.94305 16.835 10.708 16.835 11.678C16.835 12.428 16.66 13.053 16.31 13.553C15.97 14.043 15.465 14.388 14.795 14.588L17.06 18.998H15.17L13.07 14.768H10.985V18.998ZM13.685 13.343C14.115 13.343 14.45 13.233 14.69 13.013C14.93 12.783 15.05 12.458 15.05 12.038V11.318C15.05 10.898 14.93 10.578 14.69 10.358C14.45 10.128 14.115 10.013 13.685 10.013H10.985V13.343H13.685Z" fill="#F30000"/>
</svg>
