<svg width="83" height="88" viewBox="0 0 83 88" fill="none" xmlns="http://www.w3.org/2000/svg">
<g filter="url(#filter0_d_14739_11558)">
<g clip-path="url(#clip0_14739_11558)">
<rect x="0.840912" y="0.840942" width="5.89474" height="85.8948" rx="2.94737" fill="#5278FF"/>
<path d="M42.0315 32.2976H39.8357C39.6349 32.2976 39.4705 32.4619 39.4705 32.6628V45.2302C39.4705 45.3489 39.5253 45.4584 39.6212 45.5269L47.1671 51.0368C47.3314 51.1555 47.5597 51.1236 47.6783 50.9592L48.9839 49.1789C49.1072 49.01 49.0707 48.7817 48.9063 48.6676L42.3967 43.9611V32.6628C42.3967 32.4619 42.2323 32.2976 42.0315 32.2976ZM52.0653 35.7305L59.2232 37.4788C59.4514 37.5336 59.6751 37.3602 59.6751 37.1273L59.7116 29.7549C59.7116 29.4491 59.3601 29.2756 59.1227 29.4673L51.9283 35.0868C51.874 35.1289 51.8326 35.1854 51.8089 35.25C51.7852 35.3145 51.7803 35.3844 51.7946 35.4517C51.8089 35.5189 51.8419 35.5807 51.8898 35.6301C51.9377 35.6794 51.9985 35.7142 52.0653 35.7305ZM59.7207 49.4756L57.1324 48.5854C57.0422 48.5545 56.9434 48.5601 56.8572 48.601C56.7711 48.642 56.7043 48.715 56.6713 48.8045C56.5846 49.0374 56.4933 49.2656 56.3974 49.4939C55.5849 51.4157 54.4208 53.1458 52.9326 54.6295C51.461 56.1057 49.7169 57.2824 47.797 58.0943C45.8082 58.9351 43.6703 59.3667 41.5111 59.3633C39.329 59.3633 37.2154 58.9388 35.2251 58.0943C33.3052 57.2824 31.5612 56.1057 30.0895 54.6295C28.6059 53.1458 27.4418 51.4157 26.6247 49.4939C25.7884 47.5039 25.36 45.3664 25.3647 43.2079C25.3647 41.0258 25.7893 38.9077 26.6338 36.9174C27.4464 34.9955 28.6104 33.2654 30.0986 31.7818C31.5703 30.3055 33.3144 29.1289 35.2342 28.3169C37.2154 27.4724 39.3336 27.0479 41.5156 27.0479C43.6977 27.0479 45.8113 27.4724 47.8016 28.3169C49.7214 29.1289 51.4655 30.3055 52.9372 31.7818C53.4028 32.2519 53.8411 32.7404 54.2428 33.2562L56.9726 31.1198C53.38 26.5275 47.7879 23.5739 41.5065 23.5785C30.5688 23.5831 21.7858 32.4665 21.8954 43.4087C22.0049 54.1593 30.7468 62.8373 41.5156 62.8373C49.9837 62.8373 57.1963 57.4689 59.9444 49.9504C60.0129 49.7586 59.9125 49.5441 59.7207 49.4756Z" fill="#5278FF"/>
</g>
</g>
<defs>
<filter id="filter0_d_14739_11558" x="-0.842106" y="0" width="84.6842" height="87.6842" filterUnits="userSpaceOnUse" color-interpolation-filters="sRGB">
<feFlood flood-opacity="0" result="BackgroundImageFix"/>
<feColorMatrix in="SourceAlpha" type="matrix" values="0 0 0 0 0 0 0 0 0 0 0 0 0 0 0 0 0 0 127 0" result="hardAlpha"/>
<feOffset dy="0.842106"/>
<feGaussianBlur stdDeviation="0.421053"/>
<feColorMatrix type="matrix" values="0 0 0 0 0 0 0 0 0 0 0 0 0 0 0 0 0 0 0.12 0"/>
<feBlend mode="normal" in2="BackgroundImageFix" result="effect1_dropShadow_14739_11558"/>
<feBlend mode="normal" in="SourceGraphic" in2="effect1_dropShadow_14739_11558" result="shape"/>
</filter>
<clipPath id="clip0_14739_11558">
<rect width="83" height="86" rx="6.73684" fill="white"/>
</clipPath>
</defs>
</svg>
