<svg width="83" height="88" viewBox="0 0 83 88" fill="none" xmlns="http://www.w3.org/2000/svg">
<g filter="url(#filter0_d_14739_11572)">
<g clip-path="url(#clip0_14739_11572)">
<rect x="0.840515" y="0.840942" width="5.89474" height="85.8948" rx="2.94737" fill="url(#paint0_linear_14739_11572)"/>
<path d="M62.1456 31.8529C62.1456 31.3336 61.9394 30.8357 61.5722 30.4685C61.205 30.1013 60.707 29.895 60.1877 29.895H22.3351C21.8158 29.895 21.3178 30.1013 20.9507 30.4685C20.5835 30.8357 20.3772 31.3336 20.3772 31.8529C20.3772 32.3722 20.5835 32.8702 20.9507 33.2374C21.3178 33.6045 21.8158 33.8108 22.3351 33.8108H60.1877C60.707 33.8108 61.205 33.6045 61.5722 33.2374C61.9394 32.8702 62.1456 32.3722 62.1456 31.8529ZM62.1456 39.6845C62.1456 39.1652 61.9394 38.6672 61.5722 38.3001C61.205 37.9329 60.707 37.7266 60.1877 37.7266H22.3351C21.8158 37.7266 21.3178 37.9329 20.9507 38.3001C20.5835 38.6672 20.3772 39.1652 20.3772 39.6845C20.3772 40.2038 20.5835 40.7018 20.9507 41.0689C21.3178 41.4361 21.8158 41.6424 22.3351 41.6424H47.0202C48.8987 40.7798 50.9418 40.3345 53.0088 40.3371C55.0758 40.3345 57.1189 40.7798 58.9973 41.6424H60.1877C60.707 41.6424 61.205 41.4361 61.5722 41.0689C61.9394 40.7018 62.1456 40.2038 62.1456 39.6845ZM38.8858 57.3056H22.3351C21.8158 57.3056 21.3178 57.0993 20.9507 56.7321C20.5835 56.3649 20.3772 55.8669 20.3772 55.3477C20.3772 54.8284 20.5835 54.3304 20.9507 53.9632C21.3178 53.596 21.8158 53.3898 22.3351 53.3898H38.7083C38.5914 54.6972 38.6494 56.0144 38.8858 57.3056ZM39.6325 49.474H22.3351C21.8158 49.474 21.3178 49.2677 20.9507 48.9005C20.5835 48.5333 20.3772 48.0353 20.3772 47.5161C20.3772 46.9968 20.5835 46.4988 20.9507 46.1316C21.3178 45.7645 21.8158 45.5582 22.3351 45.5582H41.9323C40.9617 46.7329 40.1845 48.0547 39.6298 49.474M64.7562 54.695C64.7562 57.8106 63.5185 60.7986 61.3154 63.0017C59.1124 65.2047 56.1244 66.4424 53.0088 66.4424C49.8932 66.4424 46.9052 65.2047 44.7021 63.0017C42.4991 60.7986 41.2614 57.8106 41.2614 54.695C41.2614 51.5794 42.4991 48.5914 44.7021 46.3884C46.9052 44.1853 49.8932 42.9477 53.0088 42.9477C56.1244 42.9477 59.1124 44.1853 61.3154 46.3884C63.5185 48.5914 64.7562 51.5794 64.7562 54.695ZM53.0088 56.5407L56.0005 59.5349C56.1218 59.6563 56.2659 59.7526 56.4244 59.8182C56.583 59.8839 56.753 59.9177 56.9246 59.9177C57.0962 59.9177 57.2662 59.8839 57.4247 59.8182C57.5833 59.7526 57.7274 59.6563 57.8487 59.5349C57.9701 59.4136 58.0663 59.2695 58.132 59.1109C58.1977 58.9524 58.2315 58.7824 58.2315 58.6108C58.2315 58.4392 58.1977 58.2692 58.132 58.1107C58.0663 57.9521 57.9701 57.808 57.8487 57.6867L54.8544 54.695L57.8487 51.7034C58.0938 51.4583 58.2315 51.1258 58.2315 50.7792C58.2315 50.4326 58.0938 50.1002 57.8487 49.8551C57.6036 49.61 57.2712 49.4723 56.9246 49.4723C56.578 49.4723 56.2455 49.61 56.0005 49.8551L53.0088 52.8494L50.0171 49.8551C49.772 49.61 49.4396 49.4723 49.093 49.4723C48.7464 49.4723 48.414 49.61 48.1689 49.8551C47.9238 50.1002 47.7861 50.4326 47.7861 50.7792C47.7861 51.1258 47.9238 51.4583 48.1689 51.7034L51.1631 54.695L48.1689 57.6867C48.0475 57.808 47.9512 57.9521 47.8856 58.1107C47.8199 58.2692 47.7861 58.4392 47.7861 58.6108C47.7861 58.7824 47.8199 58.9524 47.8856 59.1109C47.9512 59.2695 48.0475 59.4136 48.1689 59.5349C48.2902 59.6563 48.4343 59.7526 48.5929 59.8182C48.7514 59.8839 48.9214 59.9177 49.093 59.9177C49.2646 59.9177 49.4346 59.8839 49.5931 59.8182C49.7517 59.7526 49.8958 59.6563 50.0171 59.5349L53.0088 56.5407Z" fill="url(#paint1_linear_14739_11572)"/>
</g>
</g>
<defs>
<filter id="filter0_d_14739_11572" x="-0.842106" y="0" width="84.6842" height="87.6842" filterUnits="userSpaceOnUse" color-interpolation-filters="sRGB">
<feFlood flood-opacity="0" result="BackgroundImageFix"/>
<feColorMatrix in="SourceAlpha" type="matrix" values="0 0 0 0 0 0 0 0 0 0 0 0 0 0 0 0 0 0 127 0" result="hardAlpha"/>
<feOffset dy="0.842106"/>
<feGaussianBlur stdDeviation="0.421053"/>
<feColorMatrix type="matrix" values="0 0 0 0 0 0 0 0 0 0 0 0 0 0 0 0 0 0 0.12 0"/>
<feBlend mode="normal" in2="BackgroundImageFix" result="effect1_dropShadow_14739_11572"/>
<feBlend mode="normal" in="SourceGraphic" in2="effect1_dropShadow_14739_11572" result="shape"/>
</filter>
<linearGradient id="paint0_linear_14739_11572" x1="3.78788" y1="0.840942" x2="3.78788" y2="86.7357" gradientUnits="userSpaceOnUse">
<stop stop-color="#CE3636"/>
<stop offset="1" stop-color="#FF0000" stop-opacity="0.61"/>
</linearGradient>
<linearGradient id="paint1_linear_14739_11572" x1="42.5667" y1="29.895" x2="42.5667" y2="66.4424" gradientUnits="userSpaceOnUse">
<stop stop-color="#CE3636"/>
<stop offset="1" stop-color="#FF0000" stop-opacity="0.61"/>
</linearGradient>
<clipPath id="clip0_14739_11572">
<rect width="83" height="86" rx="6.73684" fill="white"/>
</clipPath>
</defs>
</svg>
