<svg width="28" height="28" viewBox="0 0 28 28" fill="none" xmlns="http://www.w3.org/2000/svg">
<path d="M7.875 6.12553L7.875 21.876C7.8755 22.0354 7.91956 22.1917 8.00243 22.3281C8.08531 22.4644 8.20386 22.5756 8.34532 22.6497C8.48679 22.7237 8.64582 22.7579 8.80528 22.7485C8.96475 22.739 9.11862 22.6864 9.25033 22.5961L20.6456 14.7209C21.1181 14.3945 21.1181 13.6087 20.6456 13.2815L9.25033 5.40626C9.1189 5.3151 8.96495 5.26164 8.80522 5.2517C8.64548 5.24175 8.48607 5.27569 8.34431 5.34983C8.20254 5.42397 8.08384 5.53548 8.0011 5.67223C7.91836 5.80899 7.87475 5.96576 7.875 6.12553Z" fill="#36689E"/>
<rect x="27" y="1" width="26" height="26" rx="4" transform="rotate(90 27 1)" stroke="#36689E" stroke-width="2"/>
</svg>
