<svg width="19" height="19" viewBox="0 0 19 19" fill="none" xmlns="http://www.w3.org/2000/svg">
<path d="M18.6612 4.54C18.7539 4.44749 18.8274 4.3376 18.8776 4.21662C18.9278 4.09565 18.9536 3.96597 18.9536 3.835C18.9536 3.70403 18.9278 3.57435 18.8776 3.45338C18.8274 3.3324 18.7539 3.22251 18.6612 3.13L16.3212 0.79C16.1212 0.59 15.8712 0.5 15.6112 0.5C15.3512 0.5 15.1012 0.6 14.9112 0.79L13.0812 2.62L16.8312 6.37L18.6612 4.54ZM0.951172 14.75V18.5H4.70117L15.7612 7.44L12.0112 3.69L0.951172 14.75ZM3.87117 16.5H2.95117V15.58L12.0112 6.52L12.9312 7.44L3.87117 16.5Z" fill="#FE6A6A"/>
</svg>
