<svg width="35" height="36" viewBox="0 0 35 36" fill="none" xmlns="http://www.w3.org/2000/svg">
<path d="M10.5 5.75C9.10761 5.75 7.77226 6.30312 6.78769 7.28769C5.80312 8.27226 5.25 9.60761 5.25 11V17.3C5.80932 17.0138 6.39548 16.7834 7 16.6122V11C7 10.0717 7.36875 9.1815 8.02513 8.52513C8.6815 7.86875 9.57174 7.5 10.5 7.5H24.5C25.4283 7.5 26.3185 7.86875 26.9749 8.52513C27.6313 9.1815 28 10.0717 28 11V25C28 25.9283 27.6313 26.8185 26.9749 27.4749C26.3185 28.1313 25.4283 28.5 24.5 28.5H18.8878C18.7145 29.1108 18.4852 29.6952 18.2 30.25H24.5C25.8924 30.25 27.2277 29.6969 28.2123 28.7123C29.1969 27.7277 29.75 26.3924 29.75 25V11C29.75 9.60761 29.1969 8.27226 28.2123 7.28769C27.2277 6.30312 25.8924 5.75 24.5 5.75H10.5ZM9.625 33.75C11.7136 33.75 13.7166 32.9203 15.1935 31.4435C16.6703 29.9666 17.5 27.9636 17.5 25.875C17.5 23.7864 16.6703 21.7834 15.1935 20.3065C13.7166 18.8297 11.7136 18 9.625 18C7.53642 18 5.53338 18.8297 4.05653 20.3065C2.57968 21.7834 1.75 23.7864 1.75 25.875C1.75 27.9636 2.57968 29.9666 4.05653 31.4435C5.53338 32.9203 7.53642 33.75 9.625 33.75ZM9.625 21.5C9.85706 21.5 10.0796 21.5922 10.2437 21.7563C10.4078 21.9204 10.5 22.1429 10.5 22.375V25H13.125C13.3571 25 13.5796 25.0922 13.7437 25.2563C13.9078 25.4204 14 25.6429 14 25.875C14 26.1071 13.9078 26.3296 13.7437 26.4937C13.5796 26.6578 13.3571 26.75 13.125 26.75H10.5V29.375C10.5 29.6071 10.4078 29.8296 10.2437 29.9937C10.0796 30.1578 9.85706 30.25 9.625 30.25C9.39294 30.25 9.17038 30.1578 9.00628 29.9937C8.84219 29.8296 8.75 29.6071 8.75 29.375V26.75H6.125C5.89294 26.75 5.67038 26.6578 5.50628 26.4937C5.34219 26.3296 5.25 26.1071 5.25 25.875C5.25 25.6429 5.34219 25.4204 5.50628 25.2563C5.67038 25.0922 5.89294 25 6.125 25H8.75V22.375C8.75 22.1429 8.84219 21.9204 9.00628 21.7563C9.17038 21.5922 9.39294 21.5 9.625 21.5ZM19.25 11.875C19.25 11.6429 19.1578 11.4204 18.9937 11.2563C18.8296 11.0922 18.6071 11 18.375 11C18.1429 11 17.9204 11.0922 17.7563 11.2563C17.5922 11.4204 17.5 11.6429 17.5 11.875V17.125C17.5 17.3571 17.5922 17.5796 17.7563 17.7437C17.9204 17.9078 18.1429 18 18.375 18H21.875C22.1071 18 22.3296 17.9078 22.4937 17.7437C22.6578 17.5796 22.75 17.3571 22.75 17.125C22.75 16.8929 22.6578 16.6704 22.4937 16.5063C22.3296 16.3422 22.1071 16.25 21.875 16.25H19.25V11.875Z" fill="white"/>
</svg>
