<svg width="34" height="34" viewBox="0 0 34 34" fill="none" xmlns="http://www.w3.org/2000/svg">
<path d="M17.0007 28.334C23.234 28.334 28.334 23.234 28.334 17.0007C28.334 10.7673 23.234 5.66732 17.0007 5.66732C10.7673 5.66732 5.66732 10.7673 5.66732 17.0007C5.66732 23.234 10.7673 28.334 17.0007 28.334ZM17.0007 2.83398C24.7923 2.83398 31.1673 9.20898 31.1673 17.0007C31.1673 24.7923 24.7923 31.1673 17.0007 31.1673C9.20898 31.1673 2.83398 24.7923 2.83398 17.0007C2.83398 9.20898 9.20898 2.83398 17.0007 2.83398ZM24.084 19.6923L23.0923 21.534L15.584 17.4257V9.91732H17.709V16.1507L24.084 19.6923Z" fill="#36689E"/>
</svg>
