<svg width="27" height="27" viewBox="0 0 27 27" fill="none" xmlns="http://www.w3.org/2000/svg">
<path opacity="0.5" d="M24.75 11.25H2.25V21.375C2.25 22.2701 2.60558 23.1286 3.23851 23.7615C3.87145 24.3944 4.72989 24.75 5.625 24.75H21.375C22.2701 24.75 23.1286 24.3944 23.7615 23.7615C24.3944 23.1286 24.75 22.2701 24.75 21.375V11.25ZM7.875 9C7.57663 9 7.29048 8.88147 7.0795 8.6705C6.86853 8.45952 6.75 8.17337 6.75 7.875V3.375C6.75 3.07663 6.86853 2.79048 7.0795 2.5795C7.29048 2.36853 7.57663 2.25 7.875 2.25C8.17337 2.25 8.45952 2.36853 8.6705 2.5795C8.88147 2.79048 9 3.07663 9 3.375V7.875C9 8.17337 8.88147 8.45952 8.6705 8.6705C8.45952 8.88147 8.17337 9 7.875 9ZM19.125 9C18.8266 9 18.5405 8.88147 18.3295 8.6705C18.1185 8.45952 18 8.17337 18 7.875V3.375C18 3.07663 18.1185 2.79048 18.3295 2.5795C18.5405 2.36853 18.8266 2.25 19.125 2.25C19.4234 2.25 19.7095 2.36853 19.9205 2.5795C20.1315 2.79048 20.25 3.07663 20.25 3.375V7.875C20.25 8.17337 20.1315 8.45952 19.9205 8.6705C19.7095 8.88147 19.4234 9 19.125 9Z" fill="#36689E"/>
<path d="M21.375 4.5H20.25V7.875C20.25 8.17337 20.1315 8.45952 19.9205 8.6705C19.7095 8.88147 19.4234 9 19.125 9C18.8266 9 18.5405 8.88147 18.3295 8.6705C18.1185 8.45952 18 8.17337 18 7.875V4.5H9V7.875C9 8.17337 8.88147 8.45952 8.6705 8.6705C8.45952 8.88147 8.17337 9 7.875 9C7.57663 9 7.29048 8.88147 7.0795 8.6705C6.86853 8.45952 6.75 8.17337 6.75 7.875V4.5H5.625C4.72989 4.5 3.87145 4.85558 3.23851 5.48851C2.60558 6.12145 2.25 6.97989 2.25 7.875V11.25H24.75V7.875C24.75 6.97989 24.3944 6.12145 23.7615 5.48851C23.1286 4.85558 22.2701 4.5 21.375 4.5Z" fill="#36689E"/>
</svg>
