<svg width="100" height="100" viewBox="0 0 100 100" fill="none" xmlns="http://www.w3.org/2000/svg">
<path d="M16.6252 74.8646H79.3752C85.7918 74.8646 89.7918 67.9063 86.5835 62.3646L55.2085 8.15625C52.0002 2.61458 44.0002 2.61458 40.7918 8.15625L9.41685 62.3646C6.20851 67.9063 10.2085 74.8646 16.6252 74.8646ZM48.0002 45.6979C45.7085 45.6979 43.8335 43.8229 43.8335 41.5313V33.1979C43.8335 30.9063 45.7085 29.0313 48.0002 29.0313C50.2918 29.0313 52.1668 30.9063 52.1668 33.1979V41.5313C52.1668 43.8229 50.2918 45.6979 48.0002 45.6979ZM52.1668 62.3646H43.8335V54.0313H52.1668V62.3646Z" fill="#F3AF00"/>
</svg>
